<svg xmlns="http://www.w3.org/2000/svg" viewBox="0 0 512 512" style="enable-background:new 0 0 512 512" xml:space="preserve"><circle style="fill:#d80027" cx="256" cy="256" r="256"/><path d="M400.7 190h-92.73A33.4 33.4 0 1 0 256 148.5a33.4 33.4 0 1 0-51.97 41.5h-92.72c0 24.6 21.41 44.53 46 44.53h-1.48a44.52 44.52 0 0 0 44.52 44.52c0 7.97 2.1 15.43 5.76 21.9l-36.93 36.93 28.34 28.33 40.19-40.2a30.5 30.5 0 0 0 4.88 1.36l-24.28 54.84L256 422.96l37.7-40.75-24.3-54.84c1.7-.31 3.32-.77 4.9-1.35l40.18 40.19 28.34-28.34-36.93-36.93a44.24 44.24 0 0 0 5.76-21.89 44.52 44.52 0 0 0 44.52-44.52h-1.48c24.59 0 46-19.93 46-44.52z"/></svg>
