<svg xmlns="http://www.w3.org/2000/svg" viewBox="0 0 512 512" style="enable-background:new 0 0 512 512" xml:space="preserve"><path style="fill:#0052b4" d="M0 256a257.1 257.1 0 0 0 5.13 51.2L256 322.78l250.87-15.58c3.36-16.54 5.13-33.66 5.13-51.2s-1.77-34.66-5.13-51.2L256 189.22 5.13 204.8A257.1 257.1 0 0 0 0 256z"/><path style="fill:#f0f0f0" d="M506.87 307.2H5.13C28.85 424.05 132.15 512 256 512s227.15-87.95 250.87-204.8z"/><path d="M5.13 204.8h501.75C483.14 87.95 379.85 0 256 0S28.85 87.95 5.13 204.8z"/><path style="fill:#ffda44" d="M367.3 204.8H144.7l45.48-21.39-24.22-44.05 49.38 9.45 6.26-49.89 34.4 36.69 34.4-36.69 6.26 49.89 49.38-9.45-24.21 44.05z"/><path style="fill:#a2001d" d="M0 256c0 141.38 114.62 256 256 256L51.2 102.4A254.86 254.86 0 0 0 0 256zM256 512c141.38 0 256-114.62 256-256a254.86 254.86 0 0 0-51.2-153.6L256 512z"/></svg>
