<svg xmlns="http://www.w3.org/2000/svg" viewBox="0 0 512 512" style="enable-background:new 0 0 512 512" xml:space="preserve"><circle style="fill:#f0f0f0" cx="256" cy="256" r="256"/><path style="fill:#338af3" d="M256 0C154.5 0 66.81 59.06 25.4 144.7h461.2C445.19 59.07 357.5 0 256 0zM256 512c101.5 0 189.19-59.06 230.6-144.7H25.4C66.81 452.93 154.5 512 256 512z"/><path style="fill:#ffda44" d="m332.52 256-31.27 14.71 16.65 30.28-33.95-6.5-4.3 34.3L256 303.56l-23.65 25.23-4.3-34.3-33.95 6.5 16.65-30.28L179.49 256l31.26-14.71-16.65-30.27 33.95 6.49 4.3-34.3L256 208.44l23.65-25.23 4.3 34.3 33.95-6.49-16.65 30.27z"/></svg>
