<svg xmlns="http://www.w3.org/2000/svg" viewBox="0 0 512 512" style="enable-background:new 0 0 512 512" xml:space="preserve"><path style="fill:#0052b4" d="M512 256c0-31.31-5.63-61.31-15.92-89.04L256 155.83 15.92 166.96C5.63 194.69 0 224.69 0 256s5.63 61.31 15.92 89.04L256 356.17l240.08-11.13A255.43 255.43 0 0 0 512 256z"/><path style="fill:#ff9811" d="M256 512c110.07 0 203.9-69.47 240.08-166.96H15.92C52.1 442.53 145.92 512 256 512z"/><path style="fill:#d80027" d="M15.92 166.96h480.16C459.9 69.47 366.08 0 256 0S52.1 69.47 15.92 166.96z"/></svg>
