<svg xmlns="http://www.w3.org/2000/svg" viewBox="0 0 512 512" style="enable-background:new 0 0 512 512" xml:space="preserve"><path style="fill:#0052b4" d="M512 256c0 141.38-114.62 256-256 256S0 397.38 0 256C0 256.06 256 .03 256 0c141.38 0 256 114.62 256 256z"/><path style="fill:#f0f0f0" d="M256 0h-.04.04zM255.31 256h.69v-.69l-.69.69z"/><path style="fill:#f0f0f0" d="M256 133.57V0h-.04C114.59.02 0 114.63 0 256h133.56v-75.21L208.78 256h46.54l.68-.69v-46.53l-75.21-75.21H256z"/><path style="fill:#d80027" d="M129.51 33.4A257.22 257.22 0 0 0 33.4 129.5V256h66.78V100.18H256V33.38H129.51z"/><path style="fill:#d80027" d="m256 224.52-90.95-90.95h-31.48L256 256v-31.48z"/><path style="fill:#f0f0f0" d="m154.4 300.52 14.05 29.38 31.72-7.33-14.21 29.3 25.52 20.23-31.77 7.16.09 32.57-25.4-20.38-25.41 20.38.09-32.57-31.77-7.16 25.52-20.23-14.21-29.3 31.73 7.33zM383.28 356.17l7.03 14.69 15.86-3.66-7.1 14.65 12.76 10.11-15.89 3.58.05 16.29-12.71-10.19-12.7 10.19.05-16.29-15.89-3.58 12.76-10.11-7.1-14.65 15.86 3.66zM317.93 200.35l7.03 14.69 15.86-3.67-7.1 14.65 12.75 10.12-15.88 3.58.04 16.28-12.7-10.19-12.7 10.19.04-16.28-15.88-3.58 12.76-10.12-7.11-14.65 15.87 3.67zM383.28 111.3l7.03 14.69 15.86-3.66-7.1 14.65 12.76 10.11-15.89 3.59.05 16.28-12.71-10.19-12.7 10.19.05-16.28-15.89-3.59 12.76-10.11-7.1-14.65 15.86 3.66zM440.37 178.09l7.02 14.69 15.87-3.67-7.11 14.65 12.76 10.12-15.88 3.58.04 16.28-12.7-10.19-12.7 10.19.04-16.28-15.88-3.58 12.75-10.12-7.1-14.65 15.86 3.67zM399.55 256l5.53 17.01h17.88l-14.47 10.51 5.53 17-14.47-10.51-14.47 10.51 5.53-17-14.47-10.51h17.88z"/></svg>
