<svg xmlns="http://www.w3.org/2000/svg" viewBox="0 0 512 512" style="enable-background:new 0 0 512 512" xml:space="preserve"><path style="fill:#d80027" d="M512 256c0-31.31-5.63-61.31-15.92-89.04L256 155.83 15.92 166.96C5.63 194.69 0 224.69 0 256s5.63 61.31 15.92 89.04L256 356.17l240.08-11.13A255.43 255.43 0 0 0 512 256z"/><path style="fill:#6da544" d="M256 512c110.07 0 203.9-69.47 240.08-166.96H15.92C52.1 442.53 145.92 512 256 512z"/><path style="fill:#338af3" d="M15.92 166.96h480.16C459.9 69.47 366.08 0 256 0S52.1 69.47 15.92 166.96z"/><path style="fill:#f0f0f0" d="M261.56 328.35a72.35 72.35 0 1 1 34.42-136 89.04 89.04 0 1 0 0 127.3 72 72 0 0 1-34.42 8.7z"/><path style="fill:#f0f0f0" d="m317.22 205.91 9.58 26.95 25.83-12.28-12.28 25.84L367.3 256l-26.95 9.58 12.28 25.84-25.83-12.28-9.58 26.95-9.58-26.95-25.84 12.28 12.28-25.84-26.95-9.58 26.95-9.58-12.28-25.84 25.84 12.28z"/></svg>
