<svg xmlns="http://www.w3.org/2000/svg" viewBox="0 0 512 512" style="enable-background:new 0 0 512 512" xml:space="preserve"><path style="fill:#0052b4" d="M512 256c0-87.86-44.27-165.37-111.71-211.48L256 33.4 111.71 44.52C44.27 90.62 0 168.14 0 256c0 87.86 44.27 165.37 111.71 211.48L256 478.6l144.29-11.13C467.73 421.38 512 343.86 512 256z"/><path style="fill:#a2001d" d="M400.29 44.52A254.8 254.8 0 0 0 256 0a254.8 254.8 0 0 0-144.29 44.52H400.3zM111.71 467.48A254.8 254.8 0 0 0 256 512a254.8 254.8 0 0 0 144.29-44.52H111.7z"/><circle style="fill:#f0f0f0" cx="256" cy="256" r="122.44"/><circle style="fill:#6da544" cx="256" cy="256" r="100.17"/><circle style="fill:#f0f0f0" cx="256" cy="256" r="66.78"/><path style="fill:#0052b4" d="M256 239.3 219.83 256v27.83L256 306.09l36.17-22.26V256z"/><path style="fill:#ffda44" d="M219.83 222.61h72.35V256h-72.35z"/></svg>
