<svg xmlns="http://www.w3.org/2000/svg" viewBox="0 0 512 512" style="enable-background:new 0 0 512 512" xml:space="preserve"><circle style="fill:#f0f0f0" cx="256" cy="256" r="256"/><path style="fill:#ffda44" d="M256 0C165.23 0 85.5 47.24 40.04 118.48L387.2 475.85C461.95 431.15 512 349.42 512 256 512 114.62 397.38 0 256 0z"/><path style="fill:#0052b4" d="M512 256c0-66.42-25.3-126.93-66.78-172.43v344.86A255.06 255.06 0 0 0 512 256zM319.79 481.87l26.81-.01 8.28-25.51 8.3 25.5 13.45-.01a255.75 255.75 0 0 0 23.9-14.53L44.69 111.47a256.06 256.06 0 0 0-16.02 26.75l3.16 9.71 26.82-.01-21.69 15.77 8.3 25.5-21.7-15.75-12.95 9.42A255.91 255.91 0 0 0 0 256c0 141.38 114.62 256 256 256 29.9 0 58.58-5.13 85.25-14.55l-21.46-15.58zm-262.7-237 8.28-25.5-21.7-15.76 26.81-.02 8.27-25.5 8.3 25.5 26.82-.02-21.69 15.77 8.3 25.5-21.7-15.75-21.68 15.78zm55.23 55.65 8.27-25.5-21.7-15.76 26.82-.01 8.27-25.51 8.3 25.5 26.82-.02L147.4 275l8.3 25.5-21.7-15.75-21.69 15.77zm55.23 55.65 8.27-25.5-21.7-15.75 26.81-.02 8.27-25.51 8.3 25.5 26.82-.02-21.69 15.78 8.3 25.5-21.7-15.75-21.68 15.77zm76.9 39.88-21.68 15.78 8.27-25.51-21.7-15.75 26.82-.02 8.27-25.5 8.3 25.5 26.81-.03-21.68 15.78 8.3 25.5-21.7-15.75zM278 467.48l8.27-25.51-21.7-15.75 26.81-.02 8.27-25.5 8.3 25.5 26.82-.02-21.69 15.77 8.3 25.5-21.7-15.75L278 467.48z"/></svg>
