<svg xmlns="http://www.w3.org/2000/svg" viewBox="0 0 512 512" style="enable-background:new 0 0 512 512" xml:space="preserve"><path style="fill:#f0f0f0" d="M12.09 178.09A255.77 255.77 0 0 0 0 255.99c0 27.18 4.25 53.35 12.09 77.92L256 345.04l243.91-11.13A255.85 255.85 0 0 0 512 256a255.8 255.8 0 0 0-12.09-77.91L256 166.96 12.09 178.09z"/><path d="M512 256c0-15.19-1.33-30.06-3.87-44.52H3.87a257.36 257.36 0 0 0 0 89.04h504.26A257.57 257.57 0 0 0 512 256z"/><path style="fill:#338af3" d="M256 512c114.22 0 210.95-74.8 243.91-178.09H12.1C45.06 437.2 141.79 512 256 512zM256 0C141.8 0 45.06 74.8 12.1 178.1H499.9C466.95 74.8 370.2-.01 256 0z"/></svg>
