<svg xmlns="http://www.w3.org/2000/svg" viewBox="0 0 512 512" style="enable-background:new 0 0 512 512" xml:space="preserve"><circle style="fill:#6da544" cx="256" cy="256" r="256"/><path style="fill:#ffda44" d="M256 100.17 467.48 256 256 411.83 44.52 256z"/><circle style="fill:#f0f0f0" cx="256" cy="256" r="89.04"/><path style="fill:#0052b4" d="M211.48 250.44c-15.49 0-30.43 2.35-44.5 6.72.63 48.64 40.23 87.88 89.02 87.88a88.92 88.92 0 0 0 72.92-37.96c-27.56-34.5-69.96-56.64-117.44-56.64zM343.4 273.06a89.04 89.04 0 0 0-169.22-52.2 183.7 183.7 0 0 1 37.3-3.82c51.72 0 98.5 21.5 131.91 56.02z"/></svg>
