<svg xmlns="http://www.w3.org/2000/svg" viewBox="0 0 511.99 511.99" style="enable-background:new 0 0 511.989 511.989" xml:space="preserve"><circle style="fill:#f0f0f0" cx="256" cy="256" r="255.96"/><path d="M34.33 128.02a256.14 256.14 0 0 0-25.75 62.23l428.06 247.14a256.18 256.18 0 0 0 41.02-53.42L34.33 128.02z"/><path style="fill:#ffda44" d="M383.97 34.33C281.56-24.8 155.27-5.1 75.35 74.6l428.06 247.14c29.05-109.06-17.02-228.28-119.44-287.41zM128.02 477.66c102.41 59.13 228.7 39.42 308.62-40.27L8.58 190.25C-20.47 299.3 25.6 418.53 128.02 477.66z"/><path style="fill:#d80027" d="M328.33 228.17a72.34 72.34 0 1 1-135.98-34.4 89.03 89.03 0 1 0 127.28 0 72 72 0 0 1 8.7 34.4z"/><path style="fill:#d80027" d="M239.3 144.71h33.39v166.93H239.3z"/><path style="fill:#d80027" d="M311.64 178.1H200.35c0 7.68 6.7 13.9 14.38 13.9h-.47c0 7.69 6.23 13.92 13.92 13.92 0 7.68 6.22 13.9 13.9 13.9h27.83c7.68 0 13.9-6.22 13.9-13.9 7.7 0 13.92-6.23 13.92-13.91h-.46c7.68 0 14.37-6.23 14.37-13.91zM178.1 322.77h155.8v33.39H178.1z"/><path style="fill:#d80027" d="M289.38 333.9h66.77v33.39h-66.77zM155.84 333.9h66.77v33.39h-66.77z"/></svg>
