<svg xmlns="http://www.w3.org/2000/svg" viewBox="0 0 512 512" style="enable-background:new 0 0 512 512" xml:space="preserve"><path style="fill:#ffda44" d="M256 0c-31.31 0-61.31 5.63-89.04 15.92L155.83 256l11.13 240.08C194.69 506.37 224.69 512 256 512s61.31-5.63 89.04-15.92L356.17 256 345.04 15.92A255.46 255.46 0 0 0 256 0z"/><path style="fill:#d80027" d="M512 256c0-110.07-69.47-203.9-166.96-240.08v480.16C442.53 459.9 512 366.08 512 256z"/><path style="fill:#0052b4" d="M166.96 496.08V15.92C69.47 52.1 0 145.92 0 256s69.47 203.9 166.96 240.08z"/></svg>
