<svg xmlns="http://www.w3.org/2000/svg" viewBox="0 0 512 512" style="enable-background:new 0 0 512 512" xml:space="preserve"><circle style="fill:#ffda44" cx="256" cy="256" r="256"/><path style="fill:#0052b4" d="M256 512c84 0 158.55-40.46 205.23-102.95H50.77C97.45 471.55 172 512 256 512zM512 256C512 114.62 397.38 0 256 0S0 114.62 0 256c0 30.27 5.27 59.31 14.92 86.27h482.16c9.65-26.96 14.92-56 14.92-86.27z"/><path style="fill:#f0f0f0" d="m175.22 164.18 13.82 42.51h44.7l-36.17 26.28 13.82 42.52-36.17-26.28-36.16 26.28 13.81-42.52-36.16-26.28h44.7zM98.45 119.66l8.29 25.51h26.83l-21.7 15.76 8.28 25.51-21.7-15.76-21.69 15.76 8.28-25.51-21.69-15.76h26.82z"/></svg>
