<svg xmlns="http://www.w3.org/2000/svg" viewBox="0 0 512 512" style="enable-background:new 0 0 512 512" xml:space="preserve"><path style="fill:#338af3" d="M233.74 278.26S75.13 74.95 74.98 74.98A255.2 255.2 0 0 1 256 0c141.38 0 256 114.62 256 256l-278.26 22.26z"/><path style="fill:#6da544" d="M233.74 256S75.13 437.06 74.98 437.02A255.2 255.2 0 0 0 256 512c141.38 0 256-114.62 256-256H233.74z"/><path style="fill:#f0f0f0" d="M74.98 74.98c-99.97 99.97-99.97 262.06 0 362.04L256 256 74.98 74.98z"/><path style="fill:#d80027" d="m103.61 189.22 16.58 51.01h53.64l-43.4 31.54 16.58 51.01-43.4-31.53-43.4 31.53 16.58-51.01-43.4-31.54h53.64z"/></svg>
