<svg xmlns="http://www.w3.org/2000/svg" viewBox="0 0 512 512" style="enable-background:new 0 0 512 512" xml:space="preserve"><circle style="fill:#f0f0f0" cx="256" cy="256" r="256"/><path style="fill:#d80027" d="M8.82 322.78c23.64 87.7 92.7 156.76 180.4 180.4v-180.4H8.82z"/><path style="fill:#0052b4" d="M189.22 8.82c-87.7 23.64-156.76 92.7-180.4 180.4h180.4V8.82z"/><path style="fill:#d80027" d="M503.18 189.22c-23.64-87.7-92.7-156.76-180.4-180.4v180.4h180.4z"/><path style="fill:#0052b4" d="M322.78 503.18c87.7-23.64 156.76-92.7 180.4-180.4h-180.4v180.4z"/><path style="fill:#496e2d" d="M322.78 256a66.78 66.78 0 1 1-133.56 0c0-36.88 66.78-66.78 66.78-66.78s66.78 29.9 66.78 66.78z"/><path style="fill:#0052b4" d="M189.22 256a66.78 66.78 0 1 1 133.56 0"/><path style="fill:#d80027" d="M218.44 222.6v41.75a37.56 37.56 0 1 0 75.13 0V222.6h-75.13z"/></svg>
