<svg xmlns="http://www.w3.org/2000/svg" viewBox="0 0 512 512" style="enable-background:new 0 0 512 512" xml:space="preserve"><circle style="fill:#f0f0f0" cx="256" cy="256" r="256"/><path style="fill:#496e2d" d="M306.09 507.09c101.2-20.08 180.92-99.8 201-201h-201v201zM4.91 306.09c20.08 101.2 99.8 180.92 201 201v-201h-201zM507.09 205.91c-20.08-101.2-99.8-180.92-201-201v201h201zM205.91 4.91C104.71 25 25 104.71 4.91 205.91h201v-201z"/><path style="fill:#ffda44" d="M239.3 306.09h-33.39v201a256.32 256.32 0 0 0 33.4 4.35V306.1zM239.3 205.91V.56c-11.34.73-22.5 2.2-33.39 4.35v201h33.4z"/><path d="M272.7.56C267.17.2 261.6 0 256 0s-11.17.2-16.7.56V205.9h33.4V.56zM239.3 511.44c5.53.36 11.09.56 16.7.56s11.17-.2 16.7-.56V306.1h-33.4v205.35z"/><path style="fill:#ffda44" d="M205.91 239.3v-33.39h-201a256 256 0 0 0-4.35 33.4H205.9zM306.09 239.3h205.35c-.73-11.34-2.2-22.49-4.35-33.39h-201v33.4z"/><path d="M306.09 272.7h205.35c.36-5.52.56-11.09.56-16.7s-.2-11.18-.56-16.7H306.1v33.4zM.56 239.3C.2 244.82 0 250.4 0 256s.2 11.18.56 16.7H205.9v-33.4H.56z"/><circle style="fill:#d80027" cx="256" cy="256" r="122.44"/><path style="fill:#496e2d" d="M283.9 269.66c-9.11-18.21-20.95-36.67-20.95-36.67s.3-8.4.3-13.42a13.66 13.66 0 0 0-27.27-1.17 10.77 10.77 0 0 0-4.27 20.29c1.72-4 5.07-7.13 9.21-8.56.68.56 1.4 1.05 2.18 1.47l1.75.84s-6.49 18.29-6.49 28.11c0 27.63 18.22 36.15 18.22 36.15v.28l-9.11 9.1h18.21v-18.2l9.1 9.1c.09-.17 17.26-11.03 9.11-27.32zM256 155.83l4.14 12.75h13.41l-10.84 7.88 4.14 12.76-10.85-7.88-10.85 7.88 4.15-12.76-10.85-7.88h13.41zM197.12 174.96l10.85 7.88 10.85-7.88-4.15 12.75 10.85 7.88-13.41.01-4.14 12.75-4.15-12.75-13.41-.01 10.85-7.88zM160.73 225.05h13.41l4.14-12.76 4.15 12.76 13.41-.01-10.85 7.89 4.14 12.75-10.85-7.88-10.85 7.88 4.15-12.75zM160.73 286.96l10.85-7.89-4.15-12.75 10.85 7.88 10.85-7.88-4.14 12.75 10.85 7.89h-13.41l-4.15 12.75-4.14-12.75zM197.12 337.04l4.14-12.75-10.85-7.88h13.41l4.15-12.76 4.14 12.76h13.41l-10.85 7.88 4.15 12.75-10.85-7.88zM256 356.17l-4.14-12.75h-13.41l10.85-7.88-4.15-12.76 10.85 7.89 10.85-7.89-4.14 12.76 10.84 7.88h-13.41zM314.88 337.04l-10.85-7.88-10.85 7.88 4.15-12.75-10.85-7.88h13.41l4.14-12.76 4.15 12.76h13.41l-10.85 7.88zM351.27 286.96h-13.41l-4.14 12.75-4.15-12.75h-13.41l10.85-7.89-4.14-12.75 10.85 7.88 10.85-7.88-4.15 12.75zM351.27 225.05l-10.85 7.88 4.15 12.75-10.85-7.88-10.85 7.88 4.14-12.75-10.85-7.88 13.41-.01 4.15-12.75 4.14 12.76zM314.88 174.96l-4.14 12.75 10.85 7.88h-13.41l-4.15 12.76-4.14-12.75h-13.41l10.85-7.89-4.15-12.75 10.85 7.88z"/></svg>
