<svg xmlns="http://www.w3.org/2000/svg" viewBox="0 0 512 512" style="enable-background:new 0 0 512 512" xml:space="preserve"><path style="fill:#ffda44" d="M483.57 138.62a255.83 255.83 0 0 0-46.54-63.65 255.82 255.82 0 0 0-63.65-46.54l-180.34 164.6L28.42 373.38a255.84 255.84 0 0 0 46.54 63.65 255.85 255.85 0 0 0 63.65 46.54l180.35-164.6 164.6-180.35z"/><path style="fill:#d80027" d="M74.97 437.03a257.63 257.63 0 0 0 34.22 28.75l356.59-356.59a257.47 257.47 0 0 0-62.97-62.96L46.23 402.8c8.43 12.02 18 23.48 28.74 34.22z"/><path style="fill:#338af3" d="M74.97 74.97C-5.79 155.74-21.3 277.04 28.43 373.38L373.38 28.43C277.04-21.3 155.74-5.8 74.98 74.97zM437.03 437.03c80.76-80.77 96.27-202.07 46.54-298.41L138.62 483.57c96.34 49.73 217.64 34.22 298.4-46.54z"/><path style="fill:#ffda44" d="m136.43 77.91 13.81 42.51h44.7l-36.16 26.28 13.81 42.51-36.16-26.27-36.17 26.27 13.81-42.51-36.16-26.28h44.7z"/></svg>
