<svg xmlns="http://www.w3.org/2000/svg" viewBox="0 0 512 512" style="enable-background:new 0 0 512 512" xml:space="preserve"><path style="fill:#ffda44" d="M0 256C0 114.62 114.62 0 256 0s256 114.62 256 256l-256 22.26L0 256z"/><path style="fill:#d80027" d="M34.26 384C78.52 460.52 161.25 512 256 512s177.48-51.48 221.74-128L256 367.3 34.26 384z"/><path style="fill:#0052b4" d="M477.74 384A254.82 254.82 0 0 0 512 256H0c0 46.63 12.47 90.35 34.26 128h443.48z"/><circle style="fill:#ffda44" cx="256" cy="256" r="89.04"/><path style="fill:#338af3" d="M256 311.65A55.72 55.72 0 0 1 200.35 256v-33.4c0-30.68 24.96-55.64 55.65-55.64s55.65 24.96 55.65 55.65V256A55.71 55.71 0 0 1 256 311.65z"/><path d="M345.04 122.44h-66.78a22.26 22.26 0 0 0-44.52 0h-66.79c0 12.29 10.71 22.26 23 22.26h-.73c0 12.3 9.96 22.26 22.26 22.26 0 12.3 9.96 22.26 22.26 22.26h44.52c12.3 0 22.26-9.97 22.26-22.26 12.3 0 22.26-9.97 22.26-22.26h-.74c12.3 0 23-9.97 23-22.26z"/></svg>
