<svg xmlns="http://www.w3.org/2000/svg" viewBox="0 0 512 512" style="enable-background:new 0 0 512 512" xml:space="preserve"><circle style="fill:#f0f0f0" cx="256" cy="256" r="256"/><path style="fill:#d80027" d="M256 0C145.93 0 52.1 69.47 15.92 166.96h480.16C459.9 69.47 366.08 0 256 0z"/><path d="M256 512c110.07 0 203.9-69.47 240.08-166.96H15.92C52.1 442.53 145.92 512 256 512z"/><path style="fill:#ff9811" d="M345.04 228.17h-66.78a22.26 22.26 0 0 0-44.52 0h-66.79c0 12.3 10.71 22.27 23 22.27h-.73c0 12.29 9.96 22.26 22.26 22.26 0 12.3 9.96 22.26 22.26 22.26h44.52c12.3 0 22.26-9.97 22.26-22.26 12.3 0 22.26-9.97 22.26-22.26h-.74c12.3 0 23-9.97 23-22.27z"/></svg>
