<svg xmlns="http://www.w3.org/2000/svg" viewBox="0 0 512 512" style="enable-background:new 0 0 512 512" xml:space="preserve"><circle style="fill:#f0f0f0" cx="256" cy="256" r="256"/><path style="fill:#6da544" d="M155.83 166.96h340.25C459.9 69.47 366.07 0 256 0A255.17 255.17 0 0 0 74.99 74.99l80.84 91.97z"/><path style="fill:#d80027" d="M155.83 345.04h340.25C459.9 442.53 366.07 512 256 512a255.17 255.17 0 0 1-181.01-74.99l80.84-91.97z"/><path style="fill:#0052b4" d="M74.98 74.98c-99.97 99.97-99.97 262.06 0 362.04L256 256 74.98 74.98z"/><path style="fill:#dedde0" d="M300.52 211.48v55.65c0 34.08 44.52 44.52 44.52 44.52s44.53-10.44 44.53-44.52v-55.65h-89.05z"/><path style="fill:#786145" d="M333.91 257.11h22.26v32.28h-22.26z"/><path style="fill:#6da544" d="M367.3 244.87a22.26 22.26 0 1 0-44.52 0 11.13 11.13 0 1 0 0 22.26h44.52a11.13 11.13 0 1 0 0-22.26z"/></svg>
