<svg xmlns="http://www.w3.org/2000/svg" viewBox="0 0 512 512" style="enable-background:new 0 0 512 512" xml:space="preserve"><path style="fill:#ffda44" d="M0 256c0 31.32 5.63 61.31 15.92 89.05L256 367.3l240.08-22.26A255.41 255.41 0 0 0 512 256c0-30.89-5.47-60.5-15.5-87.9L256 144.7 15.5 168.1A255.48 255.48 0 0 0 0 256z"/><path style="fill:#d80027" d="M256 512c110.07 0 203.9-69.47 240.08-166.96H15.92C52.1 442.53 145.92 512 256 512z"/><path style="fill:#6da544" d="M256 0C145.93 0 52.1 69.47 15.92 166.96h480.16C459.9 69.47 366.08 0 256 0z"/><circle style="fill:#0052b4" cx="256" cy="256" r="122.44"/><path style="fill:#ffda44" d="m255.97 161.19 22.11 68.02h71.63l-57.97 42.04 22.27 68.23-58.04-42.24-57.94 42.16 22.18-68.15-57.92-42.04h71.58z"/><path style="fill:#ffda44" d="m344.12 272.93-70.11-22.78 43.33-59.64-18.01-13.09L256 237.06l-43.33-59.64-18.01 13.09 43.33 59.64-70.11 22.78 6.87 21.17 70.12-22.78v73.72h22.26v-73.72l70.11 22.78z"/></svg>
