<svg xmlns="http://www.w3.org/2000/svg" viewBox="0 0 512 512" style="enable-background:new 0 0 512 512" xml:space="preserve"><path style="fill:#ffda44" d="M0 256c0 31.31 5.63 61.31 15.92 89.04L256 356.17l240.08-11.13C506.37 317.31 512 287.31 512 256s-5.63-61.31-15.92-89.04L256 155.83 15.92 166.96A255.46 255.46 0 0 0 0 256z"/><path style="fill:#d80027" d="M256 0C145.93 0 52.1 69.47 15.92 166.96h480.16C459.9 69.47 366.08 0 256 0z"/><path style="fill:#496e2d" d="M496.08 345.04H15.92C52.1 442.53 145.92 512 256 512s203.9-69.47 240.08-166.96z"/><path d="m256 166.96 22.1 68.02h71.53l-57.87 42.04 22.1 68.02L256 303l-57.87 42.04 22.11-68.02-57.87-42.04h71.53z"/></svg>
