<svg xmlns="http://www.w3.org/2000/svg" viewBox="0 0 512 512" style="enable-background:new 0 0 512 512" xml:space="preserve"><path style="fill:#ffda44" d="M256 0c-23.1 0-45.49 3.08-66.78 8.82L166.96 256l22.26 247.18A256.27 256.27 0 0 0 256 512c141.38 0 256-114.62 256-256S397.38 0 256 0z"/><path style="fill:#6da544" d="m166.96 256 22.26 247.18A256.27 256.27 0 0 0 256 512c141.38 0 256-114.62 256-256H166.96z"/><path style="fill:#d80027" d="M0 256c0 97.03 53.99 181.46 133.56 224.87V31.13C54 74.55 0 158.97 0 256z"/><path style="fill:#d80027" d="M0 256c0 118.28 80.22 217.8 189.22 247.18V8.82C80.22 38.2 0 137.72 0 256z"/><path d="m96.74 189.22 16.57 51.01h53.65l-43.4 31.54 16.57 51.01-43.39-31.53-43.4 31.53 16.58-51.01-43.4-31.54h53.64z"/></svg>
