<svg xmlns="http://www.w3.org/2000/svg" viewBox="0 0 512 512" style="enable-background:new 0 0 512 512" xml:space="preserve"><circle style="fill:#f0f0f0" cx="256" cy="256" r="256"/><path style="fill:#6da544" d="M256 0a254.81 254.81 0 0 0-124.66 32.37v447.26A254.81 254.81 0 0 0 256 512c141.38 0 256-114.62 256-256S397.38 0 256 0z"/><path style="fill:#f0f0f0" d="M132.1 31.95a256.54 256.54 0 0 0-40.68 27.98L287.48 256 91.42 452.07a257.97 257.97 0 0 1 40.67 27.98L512 256 132.1 31.95z"/><path style="fill:#ffda44" d="M110.47 45.38a257.6 257.6 0 0 0-22.45 17.44L256 256 88.02 449.18a257.4 257.4 0 0 0 22.45 17.44L468.17 256 110.48 45.38z"/><path d="M91.42 59.93c-5.7 4.79-11.19 9.8-16.44 15.05L233.74 256 74.98 437.02a256.6 256.6 0 0 0 16.44 15.05L287.48 256 91.42 59.93z"/><path style="fill:#d80027" d="M74.98 74.98c-99.97 99.97-99.97 262.06 0 362.04L256 256 74.98 74.98z"/></svg>
