<svg xmlns="http://www.w3.org/2000/svg" viewBox="0 0 512 512" style="enable-background:new 0 0 512 512" xml:space="preserve"><path style="fill:#a2001d" d="M512 256c0 141.38-114.62 256-256 256S0 397.38 0 256 256 0 256 0s256 114.62 256 256z"/><path style="fill:#0052b4" d="M0 256C0 114.62 114.62 0 256 0s256 114.62 256 256"/><path style="fill:#f0f0f0" d="M345.04 322.78 256 311.65l-89.04 11.13V189.22h178.08z"/><circle style="fill:#0052b4" cx="256" cy="267.13" r="44.52"/><circle style="fill:#a2001d" cx="256" cy="267.13" r="22.26"/><path style="fill:#6da544" d="M222.61 211.48h66.78L256 244.87z"/><path style="fill:#ffda44" d="M244.87 233.74h22.26v66.78h-22.26z"/><path style="fill:#6da544" d="M291.62 293.84h-71.24l-53.42 28.94h178.08z"/></svg>
