<svg xmlns="http://www.w3.org/2000/svg" viewBox="0 0 512 512" style="enable-background:new 0 0 512 512" xml:space="preserve"><circle style="fill:#f0f0f0" cx="256" cy="256" r="256"/><path style="fill:#338af3" d="M256 512c101.5 0 189.19-59.06 230.6-144.7H25.4C66.81 452.93 154.5 512 256 512zM256 0C154.5 0 66.81 59.06 25.4 144.7h461.2C445.19 59.07 357.5 0 256 0zM157.54 166.96l8.29 25.51h26.82l-21.69 15.76 8.29 25.51-21.71-15.77-21.69 15.77 8.28-25.51-21.69-15.76h26.82zM157.54 278.26l8.29 25.51h26.82l-21.69 15.77 8.29 25.5-21.71-15.76-21.69 15.76 8.28-25.5-21.69-15.77h26.82zM354.46 166.96l8.28 25.51h26.83l-21.7 15.76 8.29 25.51-21.7-15.77-21.7 15.77 8.28-25.51-21.69-15.76h26.82zM354.46 278.26l8.28 25.51h26.83l-21.7 15.77 8.29 25.5-21.7-15.76-21.7 15.76 8.28-25.5-21.69-15.77h26.82zM256 222.61l8.29 25.51h26.82l-21.7 15.76 8.29 25.51-21.7-15.76-21.7 15.76 8.29-25.51-21.7-15.76h26.82z"/></svg>
