<svg xmlns="http://www.w3.org/2000/svg" viewBox="0 0 512 512" style="enable-background:new 0 0 512 512" xml:space="preserve"><circle style="fill:#f0f0f0" cx="256" cy="256" r="256"/><path style="fill:#0052b4" d="M352.4 200.35h-64.27L256 144.7l-32.13 55.65h-64.26L191.74 256l-32.13 55.65h64.26L256 367.3l32.13-55.65h64.26L320.26 256l32.13-55.65zM295.47 256l-19.74 34.19h-39.48L216.53 256l19.73-34.19h39.48L295.48 256zM256 187.62l7.35 12.73h-14.7l7.35-12.73zm-59.21 34.2h14.69l-7.35 12.72-7.34-12.73zm0 68.37 7.34-12.73 7.35 12.73h-14.7zM256 324.38l-7.34-12.73h14.69L256 324.38zm59.21-34.2h-14.69l7.35-12.72 7.34 12.73zm-14.69-68.37h14.7l-7.35 12.73-7.35-12.73zM415.36 55.65H96.64a257.3 257.3 0 0 0-59.07 66.78h436.86a257.35 257.35 0 0 0-59.07-66.78zM96.64 456.35h318.72a257.3 257.3 0 0 0 59.06-66.79H37.57a257.35 257.35 0 0 0 59.07 66.79z"/></svg>
