<svg xmlns="http://www.w3.org/2000/svg" viewBox="0 0 512 512" style="enable-background:new 0 0 512 512" xml:space="preserve"><path style="fill:#f0f0f0" d="M256 512c31.31 0 61.31-5.63 89.04-15.92L356.17 256 345.04 15.92C317.31 5.63 287.31 0 256 0s-61.31 5.63-89.04 15.92L155.83 256l11.13 240.08A255.43 255.43 0 0 0 256 512z"/><path style="fill:#ff9811" d="M0 256c0 110.07 69.47 203.9 166.96 240.08V15.92C69.47 52.1 0 145.92 0 256z"/><path style="fill:#6da544" d="M345.04 15.92v480.16C442.53 459.9 512 366.08 512 256S442.53 52.1 345.04 15.92z"/></svg>
