<svg xmlns="http://www.w3.org/2000/svg" viewBox="0 0 512 512" style="enable-background:new 0 0 512 512" xml:space="preserve"><circle style="fill:#338af3" cx="256" cy="256" r="256"/><path style="fill:#ffda44" d="M400.7 258.78H111.3c0 19.98 17.4 36.18 37.38 36.18h-1.2a36.17 36.17 0 0 0 36.17 36.17 36.17 36.17 0 0 0 36.18 36.17h72.34a36.17 36.17 0 0 0 36.18-36.17 36.17 36.17 0 0 0 36.17-36.17h-1.2c19.97 0 37.38-16.2 37.38-36.18z"/><path style="fill:#338af3" d="M356.17 211.48c0 55.32-44.85 100.17-100.17 100.17-55.33 0-100.17-44.85-100.17-100.17"/><path style="fill:#ffda44" d="m332.52 211.48-31.27 14.71 16.65 30.27-33.95-6.49-4.3 34.3L256 259.04l-23.65 25.23-4.3-34.3-33.95 6.49 16.65-30.28-31.26-14.7 31.26-14.71-16.65-30.28 33.95 6.5 4.3-34.3L256 163.92l23.65-25.23 4.3 34.3 33.95-6.5-16.65 30.28z"/></svg>
