<svg xmlns="http://www.w3.org/2000/svg" viewBox="0 0 512 512" style="enable-background:new 0 0 512 512" xml:space="preserve"><circle style="fill:#d80027" cx="256" cy="256" r="256"/><path style="fill:#ffda44" d="m381.2 256-51.16 24.06 27.24 49.55-55.55-10.63-7.04 56.12L256 333.83l-38.69 41.27-7.04-56.12-55.55 10.63 27.24-49.55L130.8 256l51.16-24.06-27.24-49.55 55.55 10.63 7.04-56.12L256 178.18l38.7-41.28 7.03 56.12 55.56-10.63-27.25 49.55z"/><circle style="fill:#d80027" cx="256" cy="256" r="77.91"/><path style="fill:#ffda44" d="M217.04 256c-1.87 0-3.73.1-5.56.28a44.33 44.33 0 0 0 10.42 28.34 78.08 78.08 0 0 1 15.06-24.92 55.36 55.36 0 0 0-19.92-3.7zM241.03 297.93a44.42 44.42 0 0 0 29.95 0A55.68 55.68 0 0 0 256 271.96a55.67 55.67 0 0 0-14.97 25.97zM294.56 233.75a44.5 44.5 0 0 0-77.12 0A77.4 77.4 0 0 1 256 244.22a77.4 77.4 0 0 1 38.56-10.47zM275.04 259.7a78.06 78.06 0 0 1 15.05 24.92 44.33 44.33 0 0 0 10.42-28.34 55.33 55.33 0 0 0-25.47 3.42z"/></svg>
