<svg xmlns="http://www.w3.org/2000/svg" viewBox="0 0 512 512" style="enable-background:new 0 0 512 512" xml:space="preserve"><path style="fill:#f0f0f0" d="M0 256c0 39.89 9.13 77.65 25.4 111.3L256 378.43l230.6-11.13C502.87 333.66 512 295.9 512 256s-9.13-77.65-25.4-111.3L256 133.57 25.4 144.7A254.98 254.98 0 0 0 0 256z"/><path style="fill:#6da544" d="M256 512c101.5 0 189.19-59.06 230.6-144.7H25.4C66.81 452.93 154.5 512 256 512z"/><path style="fill:#0052b4" d="M256 0C154.5 0 66.81 59.06 25.4 144.7h461.2C445.19 59.07 357.5 0 256 0z"/><path d="M272.7 250.44v-61.22h-33.4v61.22l-40.32 40.33c11.72 19.2 32.88 32.01 57.02 32.01s45.3-12.81 57.03-32.01l-40.33-40.33z"/></svg>
