<svg xmlns="http://www.w3.org/2000/svg" viewBox="0 0 512 512" style="enable-background:new 0 0 512 512" xml:space="preserve"><circle style="fill:#f0f0f0" cx="256" cy="256" r="256"/><path style="fill:#f0f0f0" d="M58.52 93.1h394.96a257.41 257.41 0 0 0-50.27-46.55H108.79a257.35 257.35 0 0 0-50.27 46.54zM0 256c0 7.85.37 15.6 1.06 23.27h509.88c.69-7.66 1.06-15.42 1.06-23.27s-.37-15.6-1.06-23.27H1.06C.37 240.4 0 248.15 0 256zM27.92 372.36h456.16a254.3 254.3 0 0 0 18.28-46.54H9.64a254.27 254.27 0 0 0 18.28 46.54zM108.8 465.45h294.4a257.41 257.41 0 0 0 50.28-46.54H58.52a257.5 257.5 0 0 0 50.27 46.54zM9.64 186.18h492.72a254.26 254.26 0 0 0-18.28-46.54H27.92a254.33 254.33 0 0 0-18.28 46.54z"/><path style="fill:#d80027" d="M122.44 46.55H403.2A254.82 254.82 0 0 0 256 0c-33.4 0-91.93 17.23-133.56 46.55zM244.87 139.64h239.21a256.3 256.3 0 0 0-30.6-46.55H244.87v46.55zM244.87 232.73h266.07a255.13 255.13 0 0 0-8.58-46.55H244.87v46.55zM9.64 325.82h492.72c4.24-15 7.14-30.56 8.58-46.55H1.06a255.05 255.05 0 0 0 8.58 46.55zM58.52 418.9h394.96a256.41 256.41 0 0 0 30.6-46.54H27.92a256.3 256.3 0 0 0 30.6 46.55zM256 512c54.8 0 105.57-17.23 147.2-46.55H108.8A254.82 254.82 0 0 0 256 512z"/><path style="fill:#0052b4" d="M9.64 186.18c-4.24 15-7.14 30.56-8.58 46.55H256V0C138.82 0 40.03 78.73 9.64 186.18z"/><path style="fill:#f0f0f0" d="m152.39 66.78 16.57 51.02h53.65l-43.4 31.53 16.58 51.02-43.4-31.53-43.4 31.53 16.58-51.02-43.4-31.53h53.64z"/></svg>
