<svg xmlns="http://www.w3.org/2000/svg" viewBox="0 0 512 512" style="enable-background:new 0 0 512 512" xml:space="preserve"><path d="M25.4 144.7C9.13 178.35 0 216.1 0 256s9.13 77.65 25.4 111.3L256 389.56l230.6-22.26C502.87 333.65 512 295.9 512 256s-9.13-77.65-25.4-111.3L256 122.44 25.4 144.7z"/><path style="fill:#496e2d" d="M25.41 367.3C66.81 452.93 154.51 512 256 512c101.5 0 189.18-59.06 230.59-144.7H25.4z"/><path style="fill:#d80027" d="M25.41 144.7H486.6C445.19 59.07 357.49 0 256 0 154.5 0 66.82 59.06 25.41 144.7z"/><path style="fill:#f0f0f0" d="m315.59 209.19 21 28.94 34.02-11.03-21.04 28.92 21 28.94-34-11.07-21.04 28.92.02-35.76-34-11.07 34.01-11.03z"/><path style="fill:#f0f0f0" d="M258.26 328.35a72.35 72.35 0 1 1 34.42-136 89.04 89.04 0 1 0 0 127.3 72 72 0 0 1-34.42 8.7z"/></svg>
