<svg xmlns="http://www.w3.org/2000/svg" viewBox="0 0 512 512" style="enable-background:new 0 0 512 512" xml:space="preserve"><path style="fill:#d80027" d="M512 256c0 141.38-114.62 256-256 256S0 397.38 0 256c11.13 0 256-33.4 256-33.4L512 256z"/><path style="fill:#0052b4" d="M0 256C0 114.62 114.62 0 256 0s256 114.62 256 256"/><path style="fill:#ffda44" d="M189.22 178.09a33.4 33.4 0 0 0-55.65-24.89v-19.64h11.13V111.3h-11.13v-11.13H111.3v11.13h-11.13v22.27h11.13v19.64a33.4 33.4 0 0 0-44.52 49.76v19.64h111.3v-19.64a33.3 33.3 0 0 0 11.14-24.88z"/></svg>
