<svg xmlns="http://www.w3.org/2000/svg" viewBox="0 0 512 512" style="enable-background:new 0 0 512 512" xml:space="preserve"><path style="fill:#d80027" d="M0 256c0 31.31 5.63 61.31 15.92 89.04L256 356.17l240.08-11.13C506.37 317.31 512 287.31 512 256s-5.63-61.31-15.92-89.04L256 155.83 15.92 166.96A255.46 255.46 0 0 0 0 256z"/><path d="M256 0C145.93 0 52.1 69.47 15.92 166.96h480.16C459.9 69.47 366.08 0 256 0z"/><path style="fill:#496e2d" d="M496.08 345.04H15.92C52.1 442.53 145.92 512 256 512s203.9-69.47 240.08-166.96z"/><path style="fill:#d80027" d="m332.52 122.44-31.27-14.71 16.65-30.28-33.95 6.5-4.3-34.3L256 74.87l-23.65-25.22-4.3 34.3-33.95-6.5 16.65 30.28-31.26 14.71z"/></svg>
