<svg xmlns="http://www.w3.org/2000/svg" viewBox="0 0 512 512" style="enable-background:new 0 0 512 512" xml:space="preserve"><path style="fill:#0052b4" d="M256 512c141.38 0 256-114.62 256-256 0-42.96-10.6-83.45-29.3-119l-227 119.3L375 29.3A254.86 254.86 0 0 0 256 0C114.62 0 0 114.62 0 256a255.2 255.2 0 0 0 74.98 181.02A255.2 255.2 0 0 0 256 512z"/><path style="fill:#f0f0f0" d="M482.43 137.28a255.94 255.94 0 0 0-45.7-62 255.9 255.9 0 0 0-62-45.7L74.67 437.31l407.75-300.04z"/><path style="fill:#ff9811" d="m74.68 437.32 407.75-300.04a255.94 255.94 0 0 0-45.7-62L74.67 437.32z"/><path style="fill:#f0f0f0" d="m222.31 150.12-31.27 14.71 16.65 30.28-33.95-6.5-4.3 34.3-23.65-25.23-23.64 25.23-4.3-34.3-33.95 6.5 16.64-30.28-31.26-14.71 31.26-14.7-16.64-30.28 33.94 6.49 4.31-34.3 23.64 25.23 23.65-25.23 4.3 34.3 33.95-6.49-16.64 30.28z"/></svg>
