<svg xmlns="http://www.w3.org/2000/svg" viewBox="0 0 512 512" style="enable-background:new 0 0 512 512" xml:space="preserve"><path style="fill:#d80027" d="M31.13 133.56 256 155.84l224.87-22.27C437.45 54 353.04 0 256 0S74.55 53.99 31.13 133.56z"/><path style="fill:#ffda44" d="M31.13 378.44 256 400.7l224.87-22.26A254.86 254.86 0 0 0 512 256l-256-22.26L0 256c0 44.35 11.28 86.06 31.13 122.44z"/><path style="fill:#0052b4" d="M31.13 133.56A254.86 254.86 0 0 0 0 256h512c0-44.35-11.28-86.06-31.13-122.44H31.13z"/><path style="fill:#6da544" d="M256 512c97.03 0 181.45-53.99 224.87-133.56H31.13C74.55 458 158.97 512 256 512z"/></svg>
