<svg xmlns="http://www.w3.org/2000/svg" viewBox="0 0 512 512" style="enable-background:new 0 0 512 512" xml:space="preserve"><path style="fill:#ffda44" d="M367.3 25.4C333.65 9.13 295.9 0 256 0s-77.65 9.13-111.3 25.4L122.44 256l22.26 230.6C178.35 502.87 216.1 512 256 512s77.65-9.13 111.3-25.4L389.56 256 367.3 25.4z"/><path style="fill:#0052b4" d="M144.7 25.41C59.07 66.81 0 154.51 0 256s59.07 189.18 144.7 230.59V25.4z"/><path style="fill:#d80027" d="M367.3 25.41V486.6C452.93 445.19 512 357.49 512 256S452.93 66.82 367.3 25.41z"/><path style="fill:#ff9811" d="M345.04 201.42h-61.21a27.83 27.83 0 1 0-55.66 0h-61.21c0 15.13 13.18 27.4 28.3 27.4h-.9a27.4 27.4 0 0 0 27.4 27.4 27.4 27.4 0 0 0 22.32 26.9l-21.59 48.74a88.77 88.77 0 0 0 33.51 6.55 88.77 88.77 0 0 0 33.5-6.55l-21.58-48.74a27.4 27.4 0 0 0 22.33-26.9 27.4 27.4 0 0 0 27.4-27.4h-.92c15.13 0 28.31-12.27 28.31-27.4z"/><path style="fill:#0052b4" d="M256 239.3 219.83 256v33.39L256 311.65l36.17-22.26V256z"/><path style="fill:#d80027" d="M219.83 222.61h72.35V256h-72.35z"/></svg>
