<svg xmlns="http://www.w3.org/2000/svg" viewBox="0 0 512 512" style="enable-background:new 0 0 512 512" xml:space="preserve"><circle style="fill:#ffda44" cx="256" cy="256" r="256"/><path style="fill:#a2001d" d="M512 256c0-87.86-44.27-165.38-111.71-211.48H111.7C44.27 90.62 0 168.14 0 256c0 87.86 44.27 165.38 111.71 211.48H400.3C467.73 421.38 512 343.86 512 256z"/><path style="fill:#ffda44" d="M200.35 189.22h111.3V144.7l-22.26 11.13L256 122.44l-33.39 33.39-22.26-11.13zM356.17 256h-55.63a25.69 25.69 0 1 0-44.88-24.94A25.68 25.68 0 1 0 210.78 256h-54.96c0 17.02 14.83 30.82 31.85 30.82h-1.02a30.83 30.83 0 0 0 22.02 29.54l-25.02 25.02L207.26 365l33.5-33.5c1.3.49 2.66.87 4.07 1.14l-20.24 45.7a83.18 83.18 0 0 0 31.41 6.13 83.2 83.2 0 0 0 31.41-6.14l-20.24-45.7c1.4-.25 2.76-.64 4.07-1.12l33.5 33.5 23.6-23.62-25.01-25.02a30.83 30.83 0 0 0 22.02-29.54h-1.03c17.03 0 31.85-13.8 31.85-30.82z"/><path style="fill:#6da544" d="m256 272.7-36.17 16.69v33.39L256 345.04l36.17-22.26v-33.39z"/><path style="fill:#0052b4" d="M219.83 256h72.35v44.52h-72.35z"/></svg>
