<svg xmlns="http://www.w3.org/2000/svg" viewBox="0 0 512 512" style="enable-background:new 0 0 512 512" xml:space="preserve"><circle style="fill:#d80027" cx="256" cy="256" r="256"/><path style="fill:#ffda44" d="M407.29 210.09H291.7L256 100.17 220.29 210.1H104.7l93.5 67.93-35.71 109.92 93.5-67.93 93.5 67.93-35.71-109.92 93.5-67.93zm-182.9 59.43 12.07-37.17h39.08l12.08 37.17L256 292.49l-31.62-22.97zm43.92-59.43h-24.62L256 172.21l12.3 37.88zm38.24 45.67-7.6-23.4h39.82l-32.22 23.4zm-93.5-23.4-7.6 23.4-32.23-23.4h39.83zm-8.2 97.3 12.3-37.88 19.91 14.47-32.22 23.41zm70.09-23.4 19.91-14.48 12.3 37.88-32.21-23.4z"/></svg>
