<svg xmlns="http://www.w3.org/2000/svg" viewBox="0 0 512 512" style="enable-background:new 0 0 512 512" xml:space="preserve"><circle style="fill:#f0f0f0" cx="256" cy="256" r="256"/><path style="fill:#338af3" d="M256 0C154.5 0 66.81 59.06 25.4 144.7h461.2C445.19 59.07 357.5 0 256 0zM256 512c101.5 0 189.19-59.06 230.6-144.7H25.4C66.81 452.93 154.5 512 256 512z"/><path style="fill:#ffda44" d="M256 178.09a77.91 77.91 0 1 0 0 155.82 77.91 77.91 0 0 0 0-155.82zm0 122.43a44.52 44.52 0 1 1 0-89.04 44.52 44.52 0 0 1 0 89.04z"/><path style="fill:#0052b4" d="M294.56 267.13 256 256l-38.56 11.13-12.85 22.26h102.82z"/><path style="fill:#338af3" d="m256 200.35-25.7 44.52L256 256l25.71-11.13z"/><path style="fill:#6da544" d="M217.44 267.13h77.12l-12.85-22.26H230.3z"/></svg>
