<svg xmlns="http://www.w3.org/2000/svg" viewBox="0 0 512 512" style="enable-background:new 0 0 512 512" xml:space="preserve"><circle style="fill:#ffda44" cx="256" cy="256" r="256"/><path style="fill:#d80027" d="M294.93 509.06a254.63 254.63 0 0 0 112.46-46.62L256 256l38.93 253.06zM217.07 2.94A254.66 254.66 0 0 0 104.6 49.56L256 256 217.07 2.94zM104.61 462.44a254.66 254.66 0 0 0 112.45 46.62L256 256 104.61 462.44zM49.56 104.61A254.65 254.65 0 0 0 2.94 217.07L256 256 49.56 104.61zM2.94 294.93A254.63 254.63 0 0 0 49.56 407.4L256 256 2.94 294.93zM509.06 217.07a254.65 254.65 0 0 0-46.62-112.46L256 256l253.06-38.93zM407.39 49.56A254.64 254.64 0 0 0 294.93 2.94L256 256 407.39 49.56zM462.44 407.39a254.68 254.68 0 0 0 46.62-112.46L256 256l206.44 151.39z"/><circle style="fill:#d80027" cx="256" cy="256" r="89.04"/><circle style="fill:#ffda44" cx="256" cy="256" r="66.78"/></svg>
