<svg xmlns="http://www.w3.org/2000/svg" viewBox="0 0 512 512" style="enable-background:new 0 0 512 512" xml:space="preserve"><circle style="fill:#f0f0f0" cx="256" cy="256" r="256"/><path style="fill:#d80027" d="M8.82 322.78a256.22 256.22 0 0 0 91.35 136.33V322.77H8.82zM233.74 511.03c7.34.63 14.76.97 22.26.97 118.28 0 217.8-80.22 247.18-189.22H233.74v188.25zM503.18 189.22C473.8 80.22 374.28 0 256 0c-7.5 0-14.92.34-22.26.97v188.25h269.44zM100.17 52.9A256.22 256.22 0 0 0 8.82 189.22h91.35V52.9z"/><path style="fill:#0052b4" d="M509.83 222.6H200.35V6.1a254.26 254.26 0 0 0-66.79 25.04V222.6H2.16a258.2 258.2 0 0 0 0 66.78h131.4v191.48a254.26 254.26 0 0 0 66.79 25.04V289.4h309.48a258.56 258.56 0 0 0 0-66.78z"/></svg>
