<svg xmlns="http://www.w3.org/2000/svg" viewBox="0 0 512 512" style="enable-background:new 0 0 512 512" xml:space="preserve"><circle style="fill:#f0f0f0" cx="256" cy="256" r="256"/><path style="fill:#d80027" d="M0 256c0 97.03 53.99 181.46 133.56 224.87V31.13C54 74.55 0 158.97 0 256z"/><path style="fill:#d80027" d="M496.08 345.04C506.37 317.31 512 287.31 512 256s-5.63-61.31-15.92-89.04H15.92C5.63 194.69 0 224.69 0 256s5.63 61.31 15.92 89.04L256 367.3l240.08-22.26z"/><path style="fill:#6da544" d="M256 512c110.07 0 203.9-69.47 240.08-166.96H15.92C52.1 442.53 145.93 512 256 512z"/><path style="fill:#d80027" d="M0 256c0 118.28 80.22 217.8 189.22 247.18V8.82C80.22 38.2 0 137.72 0 256z"/><path style="fill:#f0f0f0" d="m156.62 112.65-23.61-23.61-15.74 15.75-15.74-15.75-23.61 23.61 15.74 15.75-15.75 15.74 23.61 23.61 15.75-15.74 15.74 15.74 23.61-23.61-15.74-15.74z"/></svg>
