<svg xmlns="http://www.w3.org/2000/svg" viewBox="0 0 512 512" style="enable-background:new 0 0 512 512" xml:space="preserve"><circle style="fill:#f0f0f0" cx="256" cy="256" r="256"/><path style="fill:#d80027" d="M256 0C154.5 0 66.81 59.06 25.4 144.7h461.2C445.19 59.07 357.5 0 256 0z"/><path style="fill:#0052b4" d="M256 512c101.5 0 189.19-59.06 230.6-144.7H25.4C66.81 452.93 154.5 512 256 512z"/><path style="fill:#6da544" d="m318.96 181.9-23.6 23.62a55.65 55.65 0 1 1-78.7 0l-23.62-23.61a89.04 89.04 0 1 0 125.92 0z"/><path style="fill:#ffda44" d="m256 211.48 8.29 25.51h26.82l-21.7 15.76 8.29 25.51L256 262.5l-21.7 15.76 8.29-25.51-21.7-15.76h26.82z"/></svg>
