<svg xmlns="http://www.w3.org/2000/svg" viewBox="0 0 512 512" style="enable-background:new 0 0 512 512" xml:space="preserve"><path style="fill:#ffda44" d="M345.04 15.92A255.48 255.48 0 0 0 256 0c-31.31 0-61.31 5.63-89.04 15.92L144.7 256l22.26 240.08A255.4 255.4 0 0 0 256 512a255.4 255.4 0 0 0 89.04-15.92L367.3 256 345.04 15.92z"/><path style="fill:#d80027" d="M512 256c0-110.07-69.47-203.9-166.96-240.08v480.16C442.53 459.9 512 366.08 512 256z"/><path style="fill:#0052b4" d="M0 256c0 110.07 69.47 203.9 166.96 240.08V15.92C69.47 52.1 0 145.92 0 256z"/></svg>
