<svg xmlns="http://www.w3.org/2000/svg" viewBox="0 0 512 512" style="enable-background:new 0 0 511.999 511.999" xml:space="preserve"><circle style="fill:#ffda44" cx="256" cy="256" r="256"/><path d="M74.98 437.02a257.47 257.47 0 0 0 34.22 28.75L465.76 109.2a257.6 257.6 0 0 0-62.96-62.96L46.24 402.8c8.42 12.02 18 23.48 28.74 34.22z"/><path style="fill:#6da544" d="M74.98 74.98c-80.76 80.76-96.27 202.06-46.54 298.4L373.38 28.44C277.04-21.28 155.74-5.78 74.98 74.98z"/><path style="fill:#d80027" d="M437.02 437.02c80.76-80.76 96.26-202.05 46.54-298.4L138.62 483.56c96.34 49.73 217.63 34.22 298.4-46.54z"/><path style="fill:#f0f0f0" d="m162.77 302.01 23.9 12.18 18.96-18.97-4.19 26.49 23.9 12.18-26.5 4.19-4.19 26.49-12.18-23.89-26.49 4.19 18.97-18.96zM302.01 162.77l23.89 12.18 18.97-18.97-4.19 26.49 23.89 12.18-26.49 4.2-4.19 26.49-12.18-23.9-26.49 4.19 18.96-18.96z"/></svg>
