<svg xmlns="http://www.w3.org/2000/svg" viewBox="0 0 512 512" style="enable-background:new 0 0 512 512" xml:space="preserve"><path style="fill:#d80027" d="M512 256c0 141.38-114.62 256-256 256S0 397.38 0 256L256 0c141.38 0 256 114.62 256 256z"/><path style="fill:#0052b4" d="M256 256V0C114.62 0 0 114.62 0 256h256z"/><path style="fill:#f0f0f0" d="m205.05 166.96 4.15 12.75h13.41l-10.85 7.88 4.14 12.76-10.85-7.88-10.85 7.88 4.15-12.76-10.85-7.88h13.41zM137.7 66.78l6.9 21.26h22.36l-18.09 13.14 6.91 21.26-18.08-13.14-18.08 13.14 6.9-21.26-18.08-13.14h22.35zM204.48 89.04l6.91 21.26h22.35l-18.08 13.14 6.9 21.26-18.08-13.14-18.08 13.14 6.91-21.26-18.09-13.14h22.35zM151.69 178.09l6.91 21.26h22.35l-18.08 13.13 6.91 21.26-18.09-13.14-18.08 13.14 6.91-21.26-18.08-13.13h22.35zM93.18 122.44l6.9 21.25h22.36l-18.09 13.14 6.91 21.26-18.08-13.14-18.09 13.14L82 156.83l-18.08-13.14h22.35z"/></svg>
