<svg xmlns="http://www.w3.org/2000/svg" viewBox="0 0 512 512" style="enable-background:new 0 0 512 512" xml:space="preserve"><path style="fill:#338af3" d="M512 256c0 141.38-114.62 256-256 256S0 397.38 0 256c11.13 0 256-33.4 256-33.4L512 256z"/><path style="fill:#f0f0f0" d="M0 256C0 114.62 114.62 0 256 0s256 114.62 256 256"/><path style="fill:#6da544" d="M357.62 176.64 256 278.26 154.38 176.64a121.72 121.72 0 0 0-20.81 68.23v33.39c0 53.62 34.64 99.29 82.72 115.82a37.02 37.02 0 0 0 4.07 40l36.38-29.15 36.39 29.16a37.04 37.04 0 0 0 3.84-40.46c47.42-16.89 81.46-62.22 81.46-115.37v-33.39c0-25.24-7.67-48.72-20.81-68.23z"/><path style="fill:#ffda44" d="M256 367.3c-49.1 0-89.04-39.94-89.04-89.04v-33.39c0-49.1 39.94-89.04 89.04-89.04s89.04 39.94 89.04 89.04v33.4c0 49.09-39.94 89.03-89.04 89.03z"/><path style="fill:#338af3" d="M311.65 278.26v-33.39c0-30.69-24.96-55.65-55.65-55.65s-55.65 24.96-55.65 55.65v33.4L256 289.38l55.65-11.13z"/><path style="fill:#6da544" d="M200.35 278.26c0 30.69 24.96 55.65 55.65 55.65s55.65-24.96 55.65-55.65h-111.3z"/><path style="fill:#ffda44" d="M322.78 155.83a33.4 33.4 0 0 0-55.65-24.89V111.3h11.13V89.04h-11.13V77.91h-22.26v11.13h-11.13v22.26h11.13v19.64a33.4 33.4 0 0 0-44.52 49.76v19.65h111.3V180.7a33.3 33.3 0 0 0 11.13-24.88z"/></svg>
