<svg xmlns="http://www.w3.org/2000/svg" viewBox="0 0 512 512" style="enable-background:new 0 0 512 512" xml:space="preserve"><path style="fill:#ffda44" d="M367.3 25.4C333.65 9.13 295.9 0 256 0s-77.65 9.13-111.3 25.4L122.44 256l22.26 230.6C178.35 502.87 216.1 512 256 512s77.65-9.13 111.3-25.4L389.56 256 367.3 25.4z"/><path style="fill:#496e2d" d="m256 166.96 22.1 68.02h71.53l-57.87 42.04 22.1 68.02L256 303l-57.87 42.04 22.11-68.02-57.87-42.04h71.53zM144.7 25.41C59.07 66.81 0 154.51 0 256s59.07 189.18 144.7 230.59V25.4z"/><path style="fill:#d80027" d="M367.3 25.41V486.6C452.93 445.19 512 357.49 512 256S452.93 66.82 367.3 25.41z"/></svg>
