<svg xmlns="http://www.w3.org/2000/svg" viewBox="0 0 512 512" style="enable-background:new 0 0 512 512" xml:space="preserve"><circle style="fill:#f0f0f0" cx="256" cy="256" r="256"/><path style="fill:#d80027" d="M0 256C0 114.62 114.62 0 256 0s256 114.62 256 256"/><path style="fill:#f0f0f0" d="M155.83 133.56a77.93 77.93 0 0 1 61.21-76.1 77.91 77.91 0 1 0 0 152.2 77.93 77.93 0 0 1-61.21-76.1zM256 61.22l5.53 17h17.88l-14.47 10.51 5.53 17.01L256 95.23l-14.47 10.51 5.53-17.01-14.47-10.51h17.88z"/><path style="fill:#f0f0f0" d="m212.63 94.61 5.52 17h17.88l-14.46 10.51 5.52 17.01-14.46-10.51-14.47 10.51 5.52-17.01-14.46-10.51h17.88zM299.38 94.61l5.52 17h17.88l-14.46 10.51 5.52 17.01-14.46-10.51-14.47 10.51 5.53-17.01-14.47-10.51h17.88zM282.68 144.7l5.53 17h17.88l-14.47 10.51 5.53 17.01-14.47-10.51-14.47 10.51 5.53-17.01-14.47-10.51h17.88zM229.32 144.7l5.53 17h17.88l-14.47 10.51 5.53 17.01-14.47-10.51-14.47 10.51 5.53-17.01-14.47-10.51h17.88z"/></svg>
