<svg xmlns="http://www.w3.org/2000/svg" viewBox="0 0 512 512" style="enable-background:new 0 0 512 512" xml:space="preserve"><circle style="fill:#f0f0f0" cx="256" cy="256" r="256"/><path style="fill:#0052b4" d="M256 512c141.38 0 256-114.62 256-256 0-31.31-5.63-61.31-15.92-89.04H15.92A255.45 255.45 0 0 0 0 256c0 141.38 114.62 256 256 256z"/><path style="fill:#d80027" d="M256 512c110.07 0 203.9-69.47 240.08-166.96H15.92C52.1 442.53 145.92 512 256 512z"/><path style="fill:#f0f0f0" d="M66.2 144.7v127.7c0 72.65 94.9 94.9 94.9 94.9s94.9-22.25 94.9-94.9V144.7H66.2z"/><path style="fill:#d80027" d="M88.46 144.7v127.7c0 8.53 1.9 16.58 5.65 24.14h133.98a53.55 53.55 0 0 0 5.65-24.14V144.7H88.46z"/><path style="fill:#f0f0f0" d="M205.62 233.74h-33.39v-22.26h22.26v-22.26h-22.26v-22.26h-22.26v22.26h-22.26v22.26h22.26v22.26h-33.39V256h33.39v22.26h22.26V256h33.39z"/><path style="fill:#0052b4" d="M124.47 327.61c14.35 9.02 29.08 14.25 36.63 16.58 7.54-2.33 22.28-7.56 36.63-16.58 14.46-9.1 24.6-19.49 30.36-31.07a38.77 38.77 0 0 0-31.33-6.12 38.96 38.96 0 0 0-71.32 0 38.77 38.77 0 0 0-31.33 6.12c5.75 11.58 15.9 21.98 30.36 31.07z"/></svg>
