<svg xmlns="http://www.w3.org/2000/svg" viewBox="0 0 512 512" style="enable-background:new 0 0 512 512" xml:space="preserve"><circle style="fill:#f0f0f0" cx="256" cy="256" r="256"/><path style="fill:#0052b4" d="M496.08 166.96H222.6v-66.79H89.04v66.79H15.92C5.63 194.69 0 224.69 0 256s5.63 61.31 15.92 89.04L256 367.3l240.08-22.26C506.37 317.31 512 287.31 512 256s-5.63-61.31-15.92-89.04z"/><path style="fill:#d80027" d="M256 512c110.07 0 203.9-69.47 240.08-166.96H15.92C52.1 442.53 145.92 512 256 512z"/><path style="fill:#f0f0f0" d="M89.04 166.96v22.26c0 51.12 66.79 66.78 66.79 66.78s66.78-15.66 66.78-66.78v-22.26l-22.26 22.26-44.52-33.4-44.53 33.4-22.26-22.26z"/></svg>
