<svg xmlns="http://www.w3.org/2000/svg" viewBox="0 0 512 512" style="enable-background:new 0 0 512 512" xml:space="preserve"><circle style="fill:#f0f0f0" cx="256" cy="256" r="256"/><path d="M492.03 156.75C453.26 64.66 362.19 0 256 0A255.17 255.17 0 0 0 74.99 74.99l64.1 81.76h352.94z"/><path style="fill:#496e2d" d="m139.83 354.32-64.84 82.7A255.17 255.17 0 0 0 256 512c106.55 0 197.88-65.1 236.42-157.68h-352.6z"/><path style="fill:#a2001d" d="M55.65 188.29v134.5h447.53A256.13 256.13 0 0 0 512 256c0-23.44-3.16-46.14-9.06-67.71H55.65z"/><path style="fill:#0052b4" d="M74.98 74.98c-99.97 99.97-99.97 262.06 0 362.04L256 256 74.98 74.98z"/><path style="fill:#ffda44" d="m83.39 192.35 31.24 43.6 51.13-16.24-31.81 43.19 31.24 43.6-50.9-16.9-31.82 43.19.35-53.64-50.91-16.91 51.13-16.25z"/></svg>
