<svg xmlns="http://www.w3.org/2000/svg" viewBox="0 0 512 512" style="enable-background:new 0 0 511.999 511.999" xml:space="preserve"><path style="fill:#ff9811" d="M0 44.52v422.96V256z"/><circle style="fill:#ffda44" cx="256" cy="256" r="256"/><path style="fill:#ff9811" d="M200.35 44.52H111.7a257.75 257.75 0 0 0-11.54 8.37L77.91 256l22.27 203.11c3.76 2.9 7.6 5.7 11.53 8.38h88.64V44.52z"/><path style="fill:#6da544" d="M0 256c0 82.75 39.27 156.3 100.18 203.1V52.9C39.27 99.7 0 173.26 0 256z"/><path style="fill:#ffda44" d="M411.83 156.06v6.41l.23.04z"/><path style="fill:#a2001d" d="M491.6 322.78h-48.24l-20.4 22.26v44.52h-44.52V367.3h22.26v-44.52H300.52v27.83h-22.26v-53.03a33.3 33.3 0 0 1-11.13-24.88V128a33.4 33.4 0 0 1 33.4-33.4v205.92h44.51l15.28-12.73a53.24 53.24 0 0 1-4.15-20.66v-33.39h-33.39v-66.78h66.78c0-11.13 16.7-22.26 16.7-22.26s16.7 11.13 16.7 22.26v66.78c12.38.15 32.05-.17 53.3 0a67.53 67.53 0 0 1-8.78-33.39 66.6 66.6 0 0 1 21.98-49.52 257.03 257.03 0 0 0-89.17-106.3H233.74v422.95h166.55a256.57 256.57 0 0 0 100.11-135.1l-8.8-9.6z"/></svg>
