<svg xmlns="http://www.w3.org/2000/svg" viewBox="0 0 512 512" style="enable-background:new 0 0 512 512" xml:space="preserve"><path style="fill:#f0f0f0" d="M25.4 144.7C9.13 178.35 0 216.1 0 256s9.13 77.65 25.4 111.3L256 389.56l230.6-22.26C502.87 333.65 512 295.9 512 256s-9.13-77.65-25.4-111.3L256 122.44 25.4 144.7z"/><path style="fill:#6da544" d="M25.41 367.3C66.81 452.93 154.51 512 256 512s189.18-59.07 230.59-144.7H25.4z"/><path style="fill:#d80027" d="M25.41 144.7H486.6C445.19 59.07 357.49 0 256 0S66.82 59.07 25.41 144.7z"/><path style="fill:#ffda44" d="M211.48 322.78h89.04v-37.84l-17.81 8.9L256 267.13l-26.71 26.71-17.81-8.9zM160.53 278.26l4.15 12.76h13.41l-10.85 7.88 4.14 12.75-10.85-7.88-10.85 7.88 4.15-12.75-10.85-7.88h13.41zM173.38 233.74l4.15 12.75h13.41l-10.85 7.89 4.14 12.75-10.85-7.88-10.85 7.88 4.15-12.75-10.85-7.89h13.41zM210.11 200.35l4.15 12.75h13.41l-10.85 7.89 4.14 12.75-10.85-7.88-10.85 7.88 4.15-12.75-10.85-7.89h13.41zM351.47 278.26l-4.15 12.76h-13.41l10.85 7.88-4.14 12.75 10.85-7.88 10.85 7.88-4.15-12.75 10.85-7.88h-13.41zM338.62 233.74l-4.15 12.75h-13.41l10.85 7.89-4.14 12.75 10.85-7.88 10.85 7.88-4.15-12.75 10.85-7.89h-13.41zM301.89 200.35l-4.15 12.75h-13.41l10.85 7.89-4.14 12.75 10.85-7.88 10.85 7.88-4.15-12.75 10.85-7.89h-13.41zM256 183.65l4.15 12.76h13.41l-10.85 7.88 4.14 12.75-10.85-7.88-10.85 7.88 4.15-12.75-10.85-7.88h13.41z"/></svg>
