<svg xmlns="http://www.w3.org/2000/svg" viewBox="0 0 512 512" style="enable-background:new 0 0 512 512" xml:space="preserve"><circle style="fill:#ffda44" cx="256" cy="256" r="256"/><path d="M74.98 437.02a257.53 257.53 0 0 0 34.22 28.75L465.77 109.2a257.59 257.59 0 0 0-62.96-62.96L46.22 402.8c8.43 12.02 18.01 23.48 28.75 34.22z"/><path style="fill:#6da544" d="M74.98 74.98c-80.76 80.76-96.27 202.06-46.54 298.4L373.38 28.44C277.04-21.3 155.74-5.78 74.98 74.98z"/><path style="fill:#338af3" d="M437.02 437.02c80.76-80.76 96.27-202.06 46.54-298.4L138.62 483.56c96.34 49.73 217.64 34.22 298.4-46.54z"/></svg>
