<svg xmlns="http://www.w3.org/2000/svg" viewBox="0 0 512 512" style="enable-background:new 0 0 512 512" xml:space="preserve"><path style="fill:#496e2d" d="M256 0c-19.12 0-37.73 2.11-55.65 6.08L189.22 256l11.13 249.91A256.9 256.9 0 0 0 256 512c141.38 0 256-114.62 256-256S397.38 0 256 0zM66.78 83.57C25.3 129.07 0 189.57 0 256s25.3 126.93 66.78 172.43L77.91 256 66.78 83.57z"/><path style="fill:#f0f0f0" d="M374.42 193.1a77.93 77.93 0 0 0-31.92-92.3 77.91 77.91 0 1 1-51.4 143.26 77.92 77.92 0 0 0 83.32-50.96zM304.56 91.17l-10.94 14.15-16.83-6.04 10.07 14.77-10.95 14.14 17.17-5 10.07 14.77.54-17.87 17.16-5-16.83-6.04z"/><path style="fill:#f0f0f0" d="m334.12 137.25-10.95 14.14-16.83-6.04 10.07 14.78-10.95 14.14 17.17-5.01 10.07 14.78.54-17.87 17.16-5.01-16.83-6.04zM252.46 107.96l-10.94 14.14-16.83-6.04 10.06 14.78-10.94 14.14 17.16-5.01 10.07 14.78.54-17.88 17.17-5-16.83-6.04zM251.26 160.74l-10.94 14.14-16.83-6.04 10.06 14.78-10.94 14.14 17.17-5.01 10.06 14.78.54-17.87 17.17-5.01-16.83-6.04zM301.49 178.76l-10.95 14.14-16.83-6.04 10.07 14.78-10.95 14.14 17.17-5.01 10.07 14.78.54-17.87 17.16-5.01-16.83-6.04z"/><path style="fill:#d80027" d="M66.78 83.57v344.86a255.73 255.73 0 0 0 133.57 77.48V6.08a255.73 255.73 0 0 0-133.57 77.5z"/><path style="fill:#f0f0f0" d="m117.75 134.79-22.36-16.66V94.57l22.36-16.66h31.63l22.36 16.66v23.56l-22.36 16.66z"/><path style="fill:#ff9811" d="M133.57 77.91h-15.82L95.39 94.57v11.52h38.18zM133.57 134.79h15.81l22.36-16.66v-12.02h-38.17z"/><path style="fill:#f0f0f0" d="m117.75 434.09-22.36-16.66v-23.56l22.36-16.66h31.63l22.36 16.66v23.56l-22.36 16.66z"/><path style="fill:#ff9811" d="M133.57 377.21h-15.82l-22.36 16.66v11.52h38.18zM133.57 434.09h15.81l22.36-16.66v-12.02h-38.17z"/><path style="fill:#496e2d" d="m117.75 284.44-22.36-16.66v-23.56l22.36-16.66h31.63l22.36 16.66v23.56l-22.36 16.66zM172.52 321.08h-9.74v-9.73h-17.11l-12.1-12.11-12.11 12.11h-17.11v9.73h-9.74v19.48h9.74v9.74h17.11l12.11 12.11 12.1-12.11h17.11v-9.74h9.74zM172.52 171.43h-9.74v-9.74h-17.11l-12.1-12.1-12.11 12.1h-17.11v9.74h-9.74v19.48h9.74v9.74h17.11l12.11 12.11 12.1-12.11h17.11v-9.74h9.74z"/><path style="fill:#d80027" d="M122.43 244.87h22.26v22.26h-22.26z"/><circle style="fill:#d80027" cx="133.56" cy="181.17" r="11.13"/><circle style="fill:#d80027" cx="133.56" cy="330.83" r="11.13"/></svg>
