<svg xmlns="http://www.w3.org/2000/svg" viewBox="0 0 512 512" style="enable-background:new 0 0 512 512" xml:space="preserve"><path style="fill:#ffda44" d="M446.8 426.67C487.33 381.37 512 321.57 512 256s-24.66-125.38-65.2-170.67L256 66.78 65.2 85.33C24.67 130.63 0 190.43 0 256s24.66 125.37 65.2 170.67L256 445.22l190.8-18.55z"/><path d="M65.2 85.33h381.6C399.91 32.97 331.8 0 256 0S112.08 32.97 65.2 85.33z"/><path style="fill:#d80027" d="m0 256 256 22.26L512 256c0-29.92-5.15-58.64-14.59-85.33H14.6A255.51 255.51 0 0 0 0 256z"/><path d="M14.59 341.33H497.4A255.56 255.56 0 0 0 512 256H0a255.5 255.5 0 0 0 14.59 85.33z"/><path style="fill:#d80027" d="M446.8 426.67H65.2C112.09 479.03 180.2 512 256 512s143.92-32.97 190.8-85.33z"/><path style="fill:#f0f0f0" d="M341.43 256c0 47.18-38.25 85.43-85.43 85.43s-85.43-38.25-85.43-85.43 38.25-85.43 85.43-85.43 85.43 38.25 85.43 85.43z"/><path d="M287.3 260.36 256 246.79s7.32-24.3 7.71-25.96a16.64 16.64 0 0 0-4.45-15.59l7.87-7.87a27.74 27.74 0 0 0-19.68-8.15 27.74 27.74 0 0 0-19.67 8.15l7.87 7.87a16.64 16.64 0 0 0-4.17 16.65l-11.85 11.85h21.53s-8.9 13.37-13.76 24.36c-4.86 10.98.07 24.38 11.3 29.38l6.5 2.89 10.8 10.15v11.13l-11.13 11.13h22.26v-22.26l10.16-10.16h21c.1-.2.21-.4.3-.62 5-11.24-.06-24.4-11.3-29.38z"/></svg>
