<svg xmlns="http://www.w3.org/2000/svg" viewBox="0 0 512 512" style="enable-background:new 0 0 512 512" xml:space="preserve"><path style="fill:#f0f0f0" d="M12.09 178.09A255.75 255.75 0 0 0 0 255.99c0 27.18 4.25 53.35 12.09 77.92L256 345.04l243.91-11.13a255.84 255.84 0 0 0 12.1-77.91c-.01-27.17-4.26-53.34-12.1-77.91L256 166.96 12.09 178.09z"/><path style="fill:#d80027" d="M499.91 178.09 256 166.96 12.09 178.09a255.47 255.47 0 0 0-6 22.26H505.9a254.46 254.46 0 0 0-6-22.26zM6.09 311.65a254.73 254.73 0 0 0 6 22.26h.02L256 345.04l243.9-11.13a255.11 255.11 0 0 0 6.01-22.26H6.09z"/><path style="fill:#6da544" d="M256 512c114.21 0 210.94-74.8 243.91-178.09H12.09C45.05 437.2 141.79 512 255.99 512z"/><path style="fill:#338af3" d="M256 0C141.78 0 45.06 74.8 12.09 178.1H499.9C466.95 74.8 370.2 0 256 0z"/><path style="fill:#f0f0f0" d="M116.99 105.74a50.1 50.1 0 0 1 39.35-48.92 50.09 50.09 0 1 0 0 97.84 50.1 50.1 0 0 1-39.35-48.92zM185.94 128.51l3.39 10.43h10.98l-8.88 6.45 3.39 10.44-8.88-6.45-8.87 6.45 3.39-10.44-8.88-6.45h10.97zM220.96 128.51l3.4 10.43h10.97l-8.88 6.45 3.39 10.44-8.88-6.45-8.87 6.45 3.39-10.44-8.88-6.45h10.97zM255.99 128.51l3.39 10.43h10.97l-8.88 6.45 3.39 10.44-8.87-6.45-8.88 6.45 3.39-10.44-8.88-6.45h10.97zM291.01 128.51l3.39 10.43h10.97l-8.88 6.45 3.39 10.44-8.87-6.45-8.88 6.45 3.39-10.44-8.88-6.45h10.97zM326.03 128.51l3.39 10.43h10.97l-8.88 6.45 3.39 10.44-8.87-6.45-8.88 6.45 3.39-10.44-8.88-6.45h10.98zM220.96 92.08l3.4 10.43h10.97l-8.88 6.46 3.39 10.43-8.88-6.45-8.87 6.45 3.39-10.43-8.88-6.46h10.97zM255.99 92.08l3.39 10.43h10.97l-8.88 6.46 3.39 10.43-8.87-6.45-8.88 6.45 3.39-10.43-8.88-6.46h10.97zM291.01 92.08l3.39 10.43h10.97l-8.88 6.46 3.39 10.43-8.87-6.45-8.88 6.45 3.39-10.43-8.88-6.46h10.97zM326.03 92.08l3.39 10.43h10.97l-8.88 6.46 3.39 10.43-8.87-6.45-8.88 6.45 3.39-10.43-8.88-6.46h10.98zM255.99 55.65l3.39 10.44h10.97l-8.88 6.45 3.39 10.43-8.87-6.45-8.88 6.45 3.39-10.43-8.88-6.45h10.97zM291.01 55.65l3.39 10.44h10.97l-8.88 6.45 3.39 10.43-8.87-6.45-8.88 6.45 3.39-10.43-8.88-6.45h10.97zM326.03 55.65l3.39 10.44h10.97l-8.88 6.45 3.39 10.43-8.87-6.45-8.88 6.45 3.39-10.43-8.88-6.45h10.98z"/></svg>
