<svg xmlns="http://www.w3.org/2000/svg" viewBox="0 0 512 512" style="enable-background:new 0 0 512 512" xml:space="preserve"><circle style="fill:#496e2d" cx="256" cy="256" r="256"/><path style="fill:#d80027" d="M356.17 256H256v256c29.92 0 58.64-5.15 85.33-14.59L356.17 256z"/><path style="fill:#ff9811" d="M426.67 446.8C479.03 399.91 512 331.8 512 256H411.83l14.84 190.8z"/><path d="M341.33 256v241.41a255.85 255.85 0 0 0 85.34-50.62V256h-85.34z"/><path style="fill:#ff9811" d="M473.04 166.96h-66.78a22.26 22.26 0 0 0-44.52 0h-66.79c0 12.3 10.71 22.26 23 22.26h-.73c0 12.3 9.96 22.26 22.26 22.26 0 12.3 9.96 22.26 22.26 22.26h44.52c12.3 0 22.26-9.97 22.26-22.26 12.3 0 22.26-9.97 22.26-22.26h-.74c12.3 0 23-9.97 23-22.26z"/></svg>
