<svg xmlns="http://www.w3.org/2000/svg" viewBox="0 0 512 512" style="enable-background:new 0 0 512 512" xml:space="preserve"><circle style="fill:#f0f0f0" cx="256" cy="256" r="256"/><path style="fill:#ffda44" d="M487.5 146.6a256.65 256.65 0 0 0-52.2-73.3L256 55.65 76.7 73.3 75 75l71.6 71.6 109.4 3.34 231.5-3.34zM75 437c.94.94 1.88 1.88 2.84 2.81L256 456.35l178.16-16.54a256.7 256.7 0 0 0 52.82-73.3l-331.16-10.34L75 437z"/><path d="m509.45 219.9-297.97-8.42L256 256l-44.52 44.52 297.82-7.31a257.93 257.93 0 0 0 .15-73.3z"/><path style="fill:#6da544" d="M256 0A255.15 255.15 0 0 0 76.7 73.3h358.6A255.15 255.15 0 0 0 256 0z"/><path style="fill:#d80027" d="M219.9 219.9h289.55a254.2 254.2 0 0 0-21.95-73.3H146.6l73.3 73.3zM145.49 366.51h341.49a254.21 254.21 0 0 0 22.32-73.3H218.8l-73.31 73.3z"/><path style="fill:#6da544" d="M256 512a255.13 255.13 0 0 0 178.16-72.19H77.84A255.13 255.13 0 0 0 256 512z"/><path d="M91.42 59.93c-5.7 4.79-11.19 9.8-16.44 15.05L256 256 74.98 437.02a257.46 257.46 0 0 0 16.44 15.05L287.48 256 91.42 59.93z"/><path style="fill:#d80027" d="m102.93 189.22 16.57 51.01h53.65l-43.4 31.54 16.57 51.01-43.39-31.53-43.4 31.53 16.57-51.01-43.39-31.54h53.64z"/><path style="fill:#ffda44" d="m148.52 260.17-43.2-15.3s-3.2-29.94-3.38-30.96a16.7 16.7 0 0 0-33.1 3.13c0 1.53.22 3 .6 4.41l-12.1 12.2h21.53c0 22.35-16.68 22.35-16.68 44.61l9.25 22.26h55.65l9.28-22.26c.93-2.14 1.49-4.34 1.72-6.54 8-3.23 10.43-11.55 10.43-11.55z"/></svg>
