<svg xmlns="http://www.w3.org/2000/svg" xmlns:xlink="http://www.w3.org/1999/xlink" width="400" zoomAndPan="magnify" viewBox="0 0 300 74.999997" height="100" preserveAspectRatio="xMidYMid meet" version="1.0"><defs><g/><clipPath id="1a8ca5fd4f"><path d="M 155.335938 25 L 205.585938 25 L 205.585938 64.097656 L 155.335938 64.097656 Z M 155.335938 25 " clip-rule="nonzero"/></clipPath><clipPath id="8543373757"><path d="M 155.335938 10.847656 L 204 10.847656 L 204 47 L 155.335938 47 Z M 155.335938 10.847656 " clip-rule="nonzero"/></clipPath></defs><g fill="#ffffff" fill-opacity="1"><g transform="translate(-3.546733, 50.777449)"><g><path d="M 13.867188 -30.238281 C 13.175781 -30.109375 12.527344 -30.328125 11.878906 -30.238281 C 10.585938 -30.109375 9.246094 -30.023438 7.90625 -30.023438 C 6.695312 -30.066406 5.488281 -29.894531 4.234375 -30.023438 C 3.757812 -30.023438 3.238281 -30.109375 2.808594 -29.9375 C 2.460938 -29.679688 2.765625 -26.957031 2.765625 -25.875 C 2.808594 -25.230469 2.59375 -24.582031 2.59375 -23.890625 C 2.636719 -22.765625 2.636719 -21.644531 2.765625 -20.476562 C 2.9375 -18.488281 2.679688 -16.503906 2.679688 -14.515625 C 2.722656 -13.261719 2.679688 -11.964844 2.765625 -10.714844 C 2.9375 -9.332031 2.722656 -7.949219 2.851562 -6.566406 C 3.023438 -4.753906 2.894531 -2.894531 2.894531 -1.035156 C 2.894531 -0.605469 3.066406 -0.214844 3.328125 0.0859375 C 5.011719 0.0859375 6.695312 0.171875 8.335938 0.0429688 C 10.410156 -0.0859375 12.484375 0 14.558594 -0.0429688 C 16.675781 -0.128906 18.792969 -0.0429688 20.910156 -0.128906 C 22.421875 -0.214844 23.933594 -0.0859375 25.402344 -0.171875 C 26.007812 -0.214844 26.566406 0.0429688 27.171875 -0.257812 C 27.863281 -0.949219 27.433594 -1.859375 27.5625 -2.851562 L 27.605469 -4.621094 C 27.476562 -4.882812 27.214844 -4.96875 26.957031 -4.925781 C 26.4375 -4.882812 25.875 -4.796875 25.359375 -4.882812 C 24.40625 -5.011719 23.457031 -4.707031 22.507812 -4.753906 C 21.816406 -4.796875 21.082031 -4.796875 20.390625 -4.753906 C 19.484375 -4.707031 18.574219 -4.664062 17.667969 -4.664062 L 14.816406 -4.664062 C 14.210938 -13.089844 14.300781 -21.46875 14.644531 -29.808594 C 14.34375 -30.023438 14.082031 -30.28125 13.867188 -30.238281 Z M 13.867188 -30.238281 "/></g></g></g><g fill="#ffffff" fill-opacity="1"><g transform="translate(25.35097, 50.777449)"><g><path d="M 5.875 -31.535156 C 4.535156 -31.105469 3.414062 -30.542969 2.894531 -29.117188 C 2.722656 -28.597656 2.59375 -28.078125 2.722656 -27.605469 C 3.066406 -25.273438 4.707031 -24.363281 6.652344 -24.234375 C 7.34375 -24.234375 7.992188 -24.148438 8.640625 -24.191406 C 10.410156 -24.320312 11.921875 -24.925781 12.832031 -26.699219 C 13.21875 -27.476562 13.261719 -29.117188 12.527344 -29.9375 C 11.921875 -30.585938 11.230469 -31.148438 10.324219 -31.492188 C 8.8125 -32.097656 7.34375 -32.011719 5.875 -31.535156 Z M 12.742188 -22.765625 C 9.460938 -22.679688 5.917969 -22.851562 2.9375 -22.636719 C 2.636719 -22.335938 2.59375 -22.074219 2.59375 -21.816406 C 2.636719 -21.167969 2.636719 -20.21875 2.679688 -19.613281 C 2.851562 -17.839844 2.765625 -16.328125 2.765625 -14.601562 C 2.765625 -12.875 2.59375 -11.144531 2.59375 -9.375 C 2.636719 -7.042969 2.808594 -4.753906 2.765625 -2.417969 C 2.765625 -1.640625 2.679688 -0.90625 2.808594 -0.0429688 C 6.132812 0.0429688 9.460938 0.0429688 12.742188 -0.0859375 C 13.132812 -0.476562 13.089844 -0.820312 13.046875 -1.167969 C 12.960938 -1.769531 12.917969 -2.332031 12.960938 -2.9375 C 12.960938 -5.054688 13.046875 -7.085938 13.046875 -9.160156 C 13.003906 -11.273438 13.003906 -13.390625 13.003906 -15.507812 C 13.003906 -17.367188 13.089844 -19.527344 13.089844 -21.382812 C 13.132812 -21.816406 13.089844 -22.292969 12.742188 -22.765625 Z M 12.742188 -22.765625 "/></g></g></g><g fill="#ffffff" fill-opacity="1"><g transform="translate(40.944493, 50.777449)"><g><path d="M 27.519531 -22.980469 C 25.875 -23.070312 24.496094 -22.636719 23.5 -21.167969 C 22.980469 -20.390625 22.550781 -19.355469 22.203125 -18.53125 C 21.210938 -16.113281 20.175781 -13.738281 19.222656 -11.320312 L 18.015625 -8.46875 C 15.550781 -13.175781 14.039062 -18.058594 11.664062 -22.679688 C 11.058594 -22.808594 1.339844 -22.722656 0.863281 -22.507812 C 0.777344 -22.117188 0.949219 -21.601562 1.125 -21.296875 L 1.726562 -20.042969 C 3.84375 -16.027344 5.617188 -11.835938 7.515625 -7.691406 C 8.769531 -5.097656 10.109375 -2.679688 11.363281 -0.0859375 C 11.878906 0.257812 12.527344 0.128906 13.132812 0.171875 C 14.125 0.257812 15.164062 0.128906 16.199219 0.128906 C 17.195312 0.128906 18.144531 0.214844 19.09375 0.0429688 C 19.355469 -0.257812 19.570312 -0.605469 19.699219 -0.90625 C 20.042969 -1.945312 20.433594 -2.851562 20.824219 -3.84375 C 21.601562 -5.789062 22.421875 -7.691406 23.199219 -9.632812 C 24.191406 -12.007812 25.140625 -14.644531 26.050781 -16.976562 C 26.394531 -17.929688 27.476562 -19.007812 28.726562 -18.707031 C 28.769531 -18.707031 29.03125 -18.707031 29.117188 -18.75 C 29.246094 -18.921875 29.160156 -19.222656 29.246094 -19.398438 L 29.246094 -22.59375 C 28.726562 -22.9375 28.035156 -22.9375 27.519531 -22.980469 Z M 27.519531 -22.980469 "/></g></g></g><g fill="#ffffff" fill-opacity="1"><g transform="translate(70.922072, 50.777449)"><g><path d="M 5.875 -31.535156 C 4.535156 -31.105469 3.414062 -30.542969 2.894531 -29.117188 C 2.722656 -28.597656 2.59375 -28.078125 2.722656 -27.605469 C 3.066406 -25.273438 4.707031 -24.363281 6.652344 -24.234375 C 7.34375 -24.234375 7.992188 -24.148438 8.640625 -24.191406 C 10.410156 -24.320312 11.921875 -24.925781 12.832031 -26.699219 C 13.21875 -27.476562 13.261719 -29.117188 12.527344 -29.9375 C 11.921875 -30.585938 11.230469 -31.148438 10.324219 -31.492188 C 8.8125 -32.097656 7.34375 -32.011719 5.875 -31.535156 Z M 12.742188 -22.765625 C 9.460938 -22.679688 5.917969 -22.851562 2.9375 -22.636719 C 2.636719 -22.335938 2.59375 -22.074219 2.59375 -21.816406 C 2.636719 -21.167969 2.636719 -20.21875 2.679688 -19.613281 C 2.851562 -17.839844 2.765625 -16.328125 2.765625 -14.601562 C 2.765625 -12.875 2.59375 -11.144531 2.59375 -9.375 C 2.636719 -7.042969 2.808594 -4.753906 2.765625 -2.417969 C 2.765625 -1.640625 2.679688 -0.90625 2.808594 -0.0429688 C 6.132812 0.0429688 9.460938 0.0429688 12.742188 -0.0859375 C 13.132812 -0.476562 13.089844 -0.820312 13.046875 -1.167969 C 12.960938 -1.769531 12.917969 -2.332031 12.960938 -2.9375 C 12.960938 -5.054688 13.046875 -7.085938 13.046875 -9.160156 C 13.003906 -11.273438 13.003906 -13.390625 13.003906 -15.507812 C 13.003906 -17.367188 13.089844 -19.527344 13.089844 -21.382812 C 13.132812 -21.816406 13.089844 -22.292969 12.742188 -22.765625 Z M 12.742188 -22.765625 "/></g></g></g><g fill="#ffffff" fill-opacity="1"><g transform="translate(86.515596, 50.777449)"><g><path d="M 23.890625 -22.894531 C 20.996094 -23.585938 18.316406 -22.9375 15.636719 -21.945312 C 14.386719 -21.46875 13.304688 -20.777344 12.183594 -20 C 11.40625 -20.648438 11.015625 -21.816406 10.453125 -22.550781 C 7.128906 -22.9375 5.226562 -22.59375 2.636719 -22.550781 C 2.546875 -15.078125 2.59375 -7.429688 2.851562 0 L 11.707031 0 C 12.269531 0 12.832031 0.0429688 13.304688 -0.390625 C 13.347656 -2.246094 13.175781 -4.019531 13.132812 -5.832031 C 13.046875 -8.640625 13.089844 -11.40625 13.089844 -14.210938 C 13.089844 -14.859375 13.21875 -15.507812 13.390625 -16.070312 C 14.386719 -16.804688 15.25 -17.625 16.371094 -18.058594 C 18.144531 -18.707031 20.042969 -17.582031 19.785156 -15.59375 C 19.785156 -14.257812 19.742188 -13.132812 19.828125 -11.878906 C 19.957031 -10.109375 19.914062 -8.292969 19.914062 -6.480469 C 19.914062 -4.839844 19.957031 -3.152344 19.957031 -1.46875 C 19.957031 -1.078125 19.871094 -0.605469 20.089844 -0.171875 C 20.476562 0.214844 20.867188 0.214844 21.339844 0.214844 C 22.421875 0.128906 23.328125 0.0859375 24.40625 0.0859375 C 26.265625 0.0429688 28.125 0.0429688 29.980469 0 C 30.195312 0 30.371094 0 30.542969 -0.214844 C 30.457031 -3.542969 30.457031 -6.910156 30.328125 -10.28125 C 30.238281 -12.3125 30.371094 -14.34375 30.238281 -16.371094 C 30.066406 -19.179688 28.511719 -20.996094 26.179688 -22.292969 C 25.445312 -22.679688 24.667969 -22.722656 23.890625 -22.894531 Z M 23.890625 -22.894531 "/></g></g></g><g fill="#ffffff" fill-opacity="1"><g transform="translate(119.732825, 50.777449)"><g><path d="M 12.742188 -23.328125 C 11.921875 -23.328125 11.101562 -23.113281 10.324219 -22.894531 C 7.644531 -22.160156 5.960938 -21.167969 4.535156 -19.007812 C 3.671875 -17.796875 3.109375 -16.675781 2.636719 -15.292969 C 1.945312 -13.347656 1.8125 -11.363281 2.074219 -9.332031 C 2.246094 -7.820312 2.503906 -6.265625 3.109375 -4.753906 C 3.5 -3.886719 4.621094 -1.8125 5.398438 -1.511719 C 6.265625 -0.648438 7.257812 -0.214844 8.46875 0.0429688 C 9.894531 0.390625 11.363281 0.605469 12.875 0.5625 C 15.035156 0.5625 17.324219 0.128906 19.179688 -1.078125 C 19.871094 -1.511719 20.304688 -1.597656 21.082031 -2.160156 C 21.082031 -1.46875 21.125 -0.949219 21.082031 -0.390625 C 20.824219 2.289062 19.527344 3.414062 16.804688 4.0625 C 15.464844 4.363281 13.867188 4.363281 12.570312 4.234375 C 10.671875 3.972656 9.289062 3.757812 7.601562 2.851562 C 6.957031 2.503906 6.4375 2.03125 5.746094 1.859375 C 5.3125 1.945312 5.140625 2.246094 4.925781 2.503906 C 4.449219 3.109375 3.671875 4.191406 3.28125 4.839844 C 2.851562 5.53125 3.109375 5.789062 3.972656 6.480469 C 5.011719 7.171875 5.660156 7.429688 6.910156 7.949219 C 10.800781 9.546875 15.550781 9.289062 19.65625 8.941406 C 26.566406 8.078125 29.289062 5.875 30.328125 3.671875 C 31.535156 1.511719 31.621094 0 31.707031 -2.375 C 31.707031 -3.457031 31.664062 -4.535156 31.664062 -5.617188 C 31.578125 -7.558594 31.925781 -9.460938 31.796875 -11.363281 C 31.578125 -14.601562 31.839844 -17.886719 31.882812 -21.125 C 31.882812 -22.378906 31.664062 -22.679688 30.414062 -22.722656 C 29.03125 -22.765625 27.648438 -22.59375 26.308594 -22.507812 C 25.617188 -22.464844 24.96875 -22.636719 24.277344 -22.464844 C 23.542969 -21.773438 22.765625 -21.039062 21.988281 -20.390625 C 21.558594 -20.519531 21.253906 -20.824219 20.953125 -21.039062 C 19.742188 -22.074219 18.273438 -22.679688 16.804688 -23.027344 C 15.507812 -23.328125 14.125 -23.285156 12.742188 -23.328125 Z M 16.460938 -17.886719 C 17.886719 -18.402344 19.265625 -18.230469 20.390625 -17.105469 C 20.867188 -16.632812 21.167969 -16.15625 21.082031 -15.421875 C 21.039062 -14.945312 21.039062 -14.429688 21.039062 -13.953125 L 20.953125 -9.632812 C 20.953125 -8.898438 21.039062 -8.164062 21.039062 -7.429688 C 21.039062 -6.78125 20.867188 -6.265625 20.304688 -5.832031 C 19.613281 -5.269531 19.007812 -4.664062 18.101562 -4.40625 C 16.847656 -4.105469 15.898438 -4.535156 15.121094 -5.441406 C 14.300781 -6.351562 13.910156 -7.429688 13.652344 -8.554688 C 13.175781 -10.410156 12.960938 -11.921875 13.390625 -13.824219 C 13.824219 -15.59375 14.601562 -17.195312 16.460938 -17.886719 Z M 16.460938 -17.886719 "/></g></g></g><g clip-path="url(#1a8ca5fd4f)"><path fill="#f46b0b" d="M 181.859375 25.542969 L 155.382812 52.167969 L 155.382812 60.804688 L 181.859375 34.222656 L 197.824219 50.253906 C 197.199219 51.03125 196.496094 51.777344 195.753906 52.445312 C 192.136719 55.886719 187.226562 57.964844 181.847656 57.964844 C 176.46875 57.964844 171.570312 55.886719 167.910156 52.445312 L 163.625 56.78125 C 168.386719 61.316406 174.816406 64.097656 181.859375 64.097656 C 189.996094 64.097656 197.28125 60.378906 202.152344 54.597656 C 203.476562 52.988281 204.644531 51.230469 205.578125 49.359375 Z M 181.859375 25.542969 " fill-opacity="1" fill-rule="evenodd"/></g><path fill="#575353" d="M 182.539062 48.835938 L 185.933594 48.835938 L 185.933594 52.242188 L 182.539062 52.242188 Z M 182.539062 48.835938 " fill-opacity="1" fill-rule="evenodd"/><path fill="#575353" d="M 182.539062 44.054688 L 185.933594 44.054688 L 185.933594 47.460938 L 182.539062 47.460938 Z M 182.539062 44.054688 " fill-opacity="1" fill-rule="evenodd"/><path fill="#575353" d="M 177.742188 48.835938 L 181.167969 48.835938 L 181.167969 52.242188 L 177.742188 52.242188 Z M 177.742188 48.835938 " fill-opacity="1" fill-rule="evenodd"/><path fill="#575353" d="M 177.742188 44.054688 L 181.167969 44.054688 L 181.167969 47.460938 L 177.742188 47.460938 Z M 177.742188 44.054688 " fill-opacity="1" fill-rule="evenodd"/><g clip-path="url(#8543373757)"><path fill="#575353" d="M 161.800781 41.421875 C 161.566406 40.136719 161.449219 38.804688 161.449219 37.472656 C 161.449219 26.128906 170.5625 16.980469 181.859375 16.980469 C 188.871094 16.980469 195.054688 20.539062 198.757812 25.96875 L 203.117188 21.550781 C 198.289062 15.066406 190.546875 10.847656 181.859375 10.847656 C 167.222656 10.847656 155.339844 22.777344 155.339844 37.472656 C 155.339844 40.605469 155.882812 43.574219 156.859375 46.386719 Z M 161.800781 41.421875 " fill-opacity="1" fill-rule="evenodd"/></g><g fill="#ffffff" fill-opacity="1"><g transform="translate(203.914187, 53.07529)"><g><path d="M 15.773438 -26.878906 C 14.269531 -26.675781 12.761719 -26.175781 11.304688 -25.671875 C 7.035156 -24.164062 4.167969 -21.351562 2.863281 -16.929688 C 2.261719 -14.820312 2.160156 -12.761719 2.359375 -10.601562 C 2.5625 -8.589844 3.265625 -6.730469 4.421875 -5.125 C 6.179688 -2.710938 8.390625 -0.855469 11.453125 -0.152344 C 11.503906 -0.152344 11.554688 -0.101562 11.65625 -0.101562 C 13.3125 0.601562 15.070312 0.703125 16.828125 0.855469 C 18.386719 1.003906 19.945312 0.855469 21.453125 0.855469 C 25.269531 0.652344 28.785156 -0.199219 31.699219 -2.863281 C 32.355469 -3.417969 32.804688 -4.121094 33.359375 -4.824219 C 34.210938 -5.929688 34.816406 -7.183594 35.167969 -8.589844 C 35.617188 -10.550781 35.820312 -12.558594 35.417969 -14.570312 C 35.015625 -16.527344 34.515625 -18.386719 33.457031 -20.09375 C 31.953125 -22.457031 30.042969 -24.214844 27.53125 -25.320312 C 26.074219 -25.972656 24.566406 -26.476562 23.007812 -26.777344 C 20.597656 -27.230469 18.1875 -27.230469 15.773438 -26.878906 Z M 19.390625 -21.550781 C 20.398438 -21.453125 21.148438 -20.949219 21.804688 -20.246094 C 23.058594 -18.890625 23.261719 -16.980469 23.359375 -15.222656 L 23.359375 -13.113281 C 23.359375 -11.304688 23.261719 -9.496094 22.707031 -7.785156 C 22.40625 -6.933594 22.003906 -6.128906 21.351562 -5.527344 C 19.792969 -3.917969 17.683594 -4.320312 16.378906 -5.976562 C 15.976562 -6.429688 15.574219 -7.035156 15.371094 -7.585938 C 14.71875 -9.292969 14.621094 -11.101562 14.519531 -12.859375 C 14.367188 -15.070312 15.070312 -17.132812 15.824219 -19.191406 C 16.378906 -20.75 17.835938 -21.703125 19.390625 -21.550781 Z M 19.390625 -21.550781 "/></g></g></g><g fill="#ffffff" fill-opacity="1"><g transform="translate(241.790329, 53.07529)"><g><path d="M 17.984375 -26.726562 C 15.171875 -27.328125 12.410156 -27.078125 9.644531 -26.375 C 7.886719 -25.921875 6.429688 -24.917969 5.175781 -23.5625 C 3.769531 -22.054688 2.964844 -20.296875 2.914062 -18.1875 C 2.863281 -16.027344 3.515625 -14.117188 5.425781 -12.8125 C 6.28125 -12.207031 7.132812 -11.605469 8.089844 -11.050781 C 9.796875 -10.148438 11.453125 -9.144531 13.3125 -8.492188 C 14.269531 -8.039062 15.171875 -7.484375 15.925781 -6.730469 C 16.328125 -6.328125 16.679688 -5.878906 16.378906 -5.273438 C 16.125 -4.722656 15.625 -4.519531 15.070312 -4.472656 C 13.5625 -4.320312 12.15625 -4.519531 10.699219 -4.921875 C 8.792969 -5.425781 7.082031 -6.128906 5.476562 -7.285156 C 5.226562 -7.433594 5.023438 -7.738281 4.570312 -7.6875 C 3.515625 -6.53125 2.863281 -5.125 2.261719 -3.617188 C 2.5625 -3.214844 2.761719 -2.914062 3.113281 -2.710938 C 4.121094 -2.160156 5.125 -1.558594 6.179688 -1.105469 C 8.238281 -0.351562 10.300781 0.152344 12.558594 0.453125 C 15.726562 0.855469 18.839844 0.753906 21.855469 -0.453125 C 25.019531 -1.65625 26.878906 -3.917969 27.078125 -7.386719 C 27.28125 -10.652344 25.570312 -12.761719 22.957031 -14.316406 C 20.898438 -15.574219 18.890625 -16.78125 16.828125 -17.886719 C 16.078125 -18.285156 15.371094 -18.738281 14.570312 -19.390625 C 13.210938 -20.496094 13.917969 -21.652344 14.769531 -22.054688 C 16.175781 -22.707031 19.390625 -22.003906 20.445312 -20.398438 C 20.847656 -19.84375 21.101562 -19.191406 21.503906 -18.6875 C 23.210938 -18.636719 24.917969 -18.335938 26.625 -18.738281 C 26.777344 -20.144531 26.175781 -21.199219 25.570312 -22.253906 C 24.816406 -23.710938 23.761719 -24.816406 22.207031 -25.519531 C 20.796875 -26.023438 19.390625 -26.375 17.984375 -26.726562 Z M 17.984375 -26.726562 "/></g></g></g><g fill="#ffffff" fill-opacity="1"><g transform="translate(270.875586, 53.07529)"><g><path d="M 13.613281 -33.257812 C 12.410156 -31.097656 10.953125 -29.488281 9.09375 -28.132812 C 7.132812 -26.726562 4.773438 -26.675781 2.511719 -25.921875 C 2.710938 -24.414062 2.359375 -22.910156 2.8125 -21.402344 C 3.917969 -21.199219 4.972656 -21.453125 5.976562 -21.25 C 6.230469 -20.949219 6.179688 -20.496094 6.179688 -20.195312 C 6.179688 -17.382812 6.128906 -14.519531 6.128906 -11.65625 C 6.128906 -10.652344 6.078125 -9.644531 6.078125 -8.640625 C 6.078125 -7.386719 6.378906 -6.027344 6.730469 -4.773438 C 6.882812 -4.121094 7.183594 -3.417969 7.636719 -2.863281 C 9.445312 -1.003906 11.605469 0 14.167969 0.351562 C 17.03125 0.753906 19.84375 0.503906 22.558594 -0.503906 C 23.210938 -0.703125 23.964844 -0.804688 24.515625 -1.507812 C 24.316406 -2.8125 24.617188 -4.21875 24.015625 -5.578125 C 23.359375 -5.425781 22.859375 -5.273438 22.355469 -5.175781 C 21.300781 -5.023438 20.296875 -5.074219 19.542969 -5.929688 C 19.039062 -6.480469 18.636719 -7.082031 18.386719 -7.835938 C 18.085938 -8.941406 18.136719 -10.046875 18.035156 -11.203125 C 17.886719 -14.015625 18.285156 -16.878906 18.1875 -19.695312 C 18.1875 -20.195312 18.085938 -20.898438 18.4375 -21.351562 C 20.296875 -21.503906 22.207031 -21.503906 24.015625 -21.503906 C 24.464844 -21.804688 24.414062 -22.105469 24.414062 -22.507812 C 24.414062 -23.210938 24.367188 -23.964844 24.414062 -24.667969 C 24.414062 -25.121094 24.464844 -25.671875 24.367188 -26.125 C 23.914062 -26.273438 23.410156 -26.324219 22.957031 -26.273438 C 21.453125 -26.175781 19.894531 -26.425781 18.238281 -26.222656 L 18.238281 -33.207031 C 16.527344 -33.507812 15.019531 -33.207031 13.613281 -33.257812 Z M 13.613281 -33.257812 "/></g></g></g></svg>