<svg xmlns="http://www.w3.org/2000/svg" viewBox="0 0 512 512" style="enable-background:new 0 0 512 512" xml:space="preserve"><path style="fill:#d80027" d="M367.3 25.4C333.65 9.13 295.9 0 256 0s-77.65 9.13-111.3 25.4L122.44 256l22.26 230.6C178.35 502.87 216.1 512 256 512s77.65-9.13 111.3-25.4L389.56 256 367.3 25.4z"/><path d="M144.7 25.41C59.07 66.81 0 154.51 0 256s59.07 189.18 144.7 230.59V25.4z"/><path style="fill:#496e2d" d="M367.3 25.41V486.6C452.93 445.19 512 357.49 512 256S452.93 66.82 367.3 25.41z"/><path style="fill:#ffda44" d="M256 166.96a89.04 89.04 0 1 0 0 178.08 89.04 89.04 0 0 0 0-178.08zm0 144.7a55.65 55.65 0 1 1 0-111.31 55.65 55.65 0 0 1 0 111.3z"/><path style="fill:#ffda44" d="M256 222.6a22.26 22.26 0 0 0-22.26 22.27v33.4h44.52v-33.4c0-12.3-9.96-22.26-22.26-22.26z"/></svg>
