<svg xmlns="http://www.w3.org/2000/svg" viewBox="0 0 512 512" style="enable-background:new 0 0 512 512" xml:space="preserve"><path style="fill:#ffda44" d="M144.7 486.6C178.35 502.87 216.1 512 256 512s77.65-9.13 111.3-25.4L389.56 256 367.3 25.4C333.65 9.13 295.9 0 256 0s-77.65 9.13-111.3 25.4L122.44 256l22.26 230.6z"/><path style="fill:#d80027" d="M367.3 486.59C452.93 445.19 512 357.49 512 256S452.94 66.82 367.3 25.41V486.6z"/><path style="fill:#0052b4" d="M144.7 486.59V25.4C59.07 66.81 0 154.51 0 256s59.06 189.18 144.7 230.59z"/><path style="fill:#d80027" d="M256 345.04V256h66.78v33.4c0 5.8-11.13 27.05-38.6 44.51-10.4 6.62-21.18 8.75-28.18 11.13zM189.22 189.22H256V256h-66.78z"/><path style="fill:#ff9811" d="M289.4 166.96A22.26 22.26 0 0 0 256 147.7a22.26 22.26 0 0 0-33.4 19.26h-55.64v111.3c0 41.44 32.9 65.4 58.7 77.82A22.26 22.26 0 0 0 256 386.56a22.26 22.26 0 0 0 30.33-30.48c25.82-12.42 58.72-36.38 58.72-77.82v-111.3H289.4zm22.25 111.3c0 5.8 0 23.45-27.47 40.92-10.4 6.61-21.18 10.9-28.18 13.29-7-2.39-17.77-6.68-28.18-13.3-27.47-17.46-27.47-35.1-27.47-40.91v-77.91h111.3v77.91z"/></svg>
