<svg xmlns="http://www.w3.org/2000/svg" viewBox="0 0 512 512" style="enable-background:new 0 0 512 512" xml:space="preserve"><path style="fill:#d80027" d="M0 256C0 114.62 114.62 0 256 0s256 114.62 256 256c-11.13 0-256 33.4-256 33.4L0 256z"/><path d="M512 256c0 141.38-114.62 256-256 256S0 397.38 0 256"/><path style="fill:#ffda44" d="m220.9 203.61 21.7 15.75-8.27 25.51 21.69-15.78 21.7 15.75-8.3-25.5 21.68-15.77-26.81.02-8.31-25.5-8.27 25.51z"/><path style="fill:#ffda44" d="M320 145.15a127.18 127.18 0 0 0-64-17.1v33.38a93.98 93.98 0 0 1 47.3 12.64c45.18 26.08 60.72 84.06 34.63 129.24-26.08 45.17-84.06 60.7-129.24 34.63a93.98 93.98 0 0 1-31.61-29.83l-27.88 18.4c10.6 16.11 25 30.06 42.8 40.34 61.12 35.3 139.56 14.27 174.85-46.85 35.29-61.12 14.27-139.56-46.85-174.85z"/><path style="fill:#ffda44" d="M182.19 233.74a33.4 33.4 0 0 0 13.27 45.32l108.45 59.26c-7.38 13.48-3.46 29.89 10.02 37.26l29.3 16.03a27.83 27.83 0 0 0 37.76-11.06l16.03-29.3-214.83-117.51z"/></svg>
