<svg xmlns="http://www.w3.org/2000/svg" viewBox="0 0 512 512" style="enable-background:new 0 0 512 512" xml:space="preserve"><path style="fill:#ffda44" d="M367.3 25.4C333.65 9.13 295.9 0 256 0s-77.65 9.13-111.3 25.4L122.44 256l22.26 230.6C178.35 502.87 216.1 512 256 512s77.65-9.13 111.3-25.4L389.56 256 367.3 25.4z"/><path style="fill:#0052b4" d="M144.7 25.41C59.07 66.81 0 154.51 0 256s59.07 189.18 144.7 230.59V25.4zM367.3 25.41V486.6C452.93 445.19 512 357.49 512 256S452.93 66.82 367.3 25.41z"/><path d="m333.91 155.83 14.94 7.46-14.94-7.46-14.93-7.47c-.9 1.8-20.4 41.47-23.59 102.07h-22.7v-94.6L256 133.56l-16.7 22.27v94.6h-22.7c-3.18-60.6-22.68-100.27-23.58-102.07l-29.87 14.93c.21.41 20.5 41.72 20.5 103.84v16.7h55.65v94.6h33.4v-94.6h55.65v-16.7c0-32.12 5.55-58.6 10.22-75.16 5.08-18.06 10.24-28.61 10.3-28.72l-14.96-7.42z"/></svg>
