<svg xmlns="http://www.w3.org/2000/svg" viewBox="0 0 512 512" style="enable-background:new 0 0 512 512" xml:space="preserve"><path style="fill:#ffda44" d="M74.98 437.02c-99.97-99.97-99.97-262.06 0-362.04s262.06-99.97 362.04 0c0 .04 67.97 230.06-32 330.03C305.03 505 75.04 437.1 74.97 437.02z"/><path style="fill:#ff9811" d="M74.98 437.02c99.97 99.97 262.06 99.97 362.04 0s99.97-262.06 0-362.04L74.98 437.02z"/><path style="fill:#f0f0f0" d="M400.82 144.7v-44.53h-85.34l-6.52 6.52c-23.19 23.2-19.29 50.24-16.44 70 2.64 18.32 2.96 25.34-3.86 32.15-6.81 6.81-13.83 6.5-32.15 3.86-19.75-2.85-46.8-6.75-70 16.44-23.18 23.18-19.28 50.23-16.43 69.99 2.64 18.32 2.96 25.34-3.85 32.15-6.81 6.8-13.83 6.49-32.15 3.85-7.14-1.03-14.53-2.1-22.41-2.19l-.5 44.52c4.94.06 10.58.87 16.55 1.73 7.07 1.02 15.07 2.18 23.5 2.18 8.73 0 17.91-1.25 26.99-5.16v35.62h66.78v-33.4h-33.4v-22.26h22.27v-33.39h-17.8c.85-10.8-.63-21.14-1.91-30.01-2.65-18.32-2.96-25.34 3.85-32.15 6.81-6.81 13.83-6.5 32.15-3.86 14.4 2.08 32.67 4.7 50.5-3v35.63h66.78V256h-33.4v-22.26h22.27v-33.4h-17.8c.85-10.8-.63-21.14-1.91-30-1.85-12.8-2.56-20.1-.5-25.64h64.73z"/></svg>
