<svg xmlns="http://www.w3.org/2000/svg" viewBox="0 0 512 512" style="enable-background:new 0 0 512 512" xml:space="preserve"><circle style="fill:#f0f0f0" cx="256" cy="256" r="256"/><path style="fill:#d80027" d="M411.88 52.9c-91.66-70.52-220.1-70.52-311.76 0L256 208.78 411.88 52.9zM256 303.22 100.12 459.1c91.66 70.52 220.1 70.52 311.76 0L256 303.22z"/><path style="fill:#6da544" d="M208.78 256 52.9 100.12c-70.52 91.66-70.52 220.1 0 311.76L208.78 256zM303.22 256 459.1 411.88c70.52-91.66 70.52-220.1 0-311.76L303.22 256z"/><circle style="fill:#f0f0f0" cx="256" cy="256" r="111.3"/><path style="fill:#d80027" d="m256 178.09 9.64 16.69h19.28l-9.64 16.7 9.64 16.69h-19.28l-9.64 16.7-9.64-16.7h-19.28l9.64-16.69-9.64-16.7h19.28zM207.01 256l9.63 16.7h19.28l-9.64 16.69 9.64 16.7h-19.28l-9.63 16.69-9.64-16.69h-19.28l9.64-16.7-9.64-16.69h19.28zM305 256l9.64 16.7h19.27l-9.64 16.69 9.64 16.7h-19.27L305 322.78l-9.64-16.69h-19.28l9.64-16.7-9.64-16.69h19.28z"/></svg>
