<svg xmlns="http://www.w3.org/2000/svg" viewBox="0 0 512 512" style="enable-background:new 0 0 512 512" xml:space="preserve"><path style="fill:#d80027" d="M0 256c0 44.35 11.28 86.06 31.13 122.44L256 400.7l224.87-22.26C500.72 342.06 512 300.35 512 256s-11.28-86.06-31.13-122.44L256 111.3 31.13 133.57A254.86 254.86 0 0 0 0 256z"/><path style="fill:#0052b4" d="M31.13 133.56h449.74C437.45 54 353.04 0 256 0S74.55 53.99 31.13 133.56zM256 512c97.03 0 181.45-53.99 224.87-133.56H31.13C74.55 458 158.97 512 256 512z"/><path style="fill:#f0f0f0" d="M345.04 306.09V272.7h-22.26v-44.53l-22.26-22.26-22.26 22.26v-44.52L256 161.39l-22.26 22.26v44.52l-22.26-22.26-22.26 22.26v44.53h-22.26v33.39H144.7v33.39h222.6v-33.39z"/></svg>
