<svg xmlns="http://www.w3.org/2000/svg" viewBox="0 0 512 512" style="enable-background:new 0 0 512 512" xml:space="preserve"><circle style="fill:#f0f0f0" cx="256" cy="256" r="256"/><path style="fill:#0052b4" d="M256 512c77.6 0 147.11-34.52 194.06-89.04H61.94C108.89 477.48 178.4 512 256 512zM512 256C512 114.62 397.38 0 256 0S0 114.62 0 256c0 23.1 3.08 45.49 8.82 66.78h494.36A256.32 256.32 0 0 0 512 256z"/><path style="fill:#d80027" d="M20.35 356.17a254.96 254.96 0 0 0 17.22 33.4h436.86a255.58 255.58 0 0 0 17.22-33.4H20.35z"/><path style="fill:#ffda44" d="m182.99 272.7 4.14 12.75h13.42l-10.85 7.88 4.14 12.76-10.85-7.89-10.85 7.89 4.15-12.76-10.85-7.88h13.41zM182.99 439.65l4.14 12.76h13.42l-10.85 7.88 4.14 12.75-10.85-7.88-10.85 7.88 4.15-12.75-10.85-7.88h13.41zM105.27 383.19l4.15 12.75h13.41l-10.85 7.88 4.14 12.76-10.85-7.88-10.85 7.88 4.15-12.76-10.85-7.88h13.41zM134.96 289.39l4.14 12.76h13.41l-10.84 7.88 4.14 12.75-10.85-7.88-10.85 7.88 4.15-12.75-10.86-7.88h13.42zM87.72 341.92h13.41l4.14-12.76 4.15 12.76 13.41-.01-10.85 7.89 4.14 12.75-10.85-7.88-10.85 7.88 4.15-12.75zM124.11 453.91l4.14-12.75-10.85-7.88h13.41l4.15-12.76 4.14 12.76h13.41l-10.85 7.88 4.15 12.75-10.85-7.88zM260.68 383.19l-4.15 12.75h-13.41l10.85 7.88-4.14 12.76 10.85-7.88 10.85 7.88-4.15-12.76 10.85-7.88h-13.41zM230.99 289.39l-4.14 12.76h-13.41l10.85 7.88-4.15 12.75 10.85-7.88 10.85 7.88-4.14-12.75 10.85-7.88h-13.41zM278.23 341.92h-13.41l-4.14-12.76-4.15 12.76-13.41-.01 10.85 7.89-4.14 12.75 10.85-7.88 10.85 7.88-4.15-12.75zM241.84 453.91l-4.14-12.75 10.85-7.88h-13.41l-4.15-12.76-4.14 12.76h-13.41l10.85 7.88-4.15 12.75 10.85-7.88z"/></svg>
