<svg xmlns="http://www.w3.org/2000/svg" viewBox="0 0 512 512" style="enable-background:new 0 0 512 512" xml:space="preserve"><path style="fill:#0052b4" d="M512 256c0 141.38-114.62 256-256 256S0 397.38 0 256C0 256.06 256 .03 256 0c141.38 0 256 114.62 256 256z"/><path style="fill:#f0f0f0" d="M256 0h-.04.04zM255.31 256h.69v-.69l-.69.69z"/><path style="fill:#f0f0f0" d="M256 133.56V0h-.04C114.59.02 0 114.63 0 256h133.56v-75.21L208.78 256h46.54l.68-.69v-46.53l-75.21-75.22H256z"/><circle style="fill:#6da544" cx="367.3" cy="144.7" r="44.52"/><path style="fill:#d80027" d="M129.51 33.4A257.21 257.21 0 0 0 33.4 129.5V256h66.78V100.18H256V33.38H129.51z"/><path style="fill:#d80027" d="m256 224.52-90.95-90.95h-31.48L256 256v-31.48zM289.39 133.56h155.83v66.78H289.39z"/><path style="fill:#496e2d" d="M445.22 256zM289.39 256z"/><path style="fill:#ffda44" d="M289.4 300.52v44.52h23.42c14.04 13.77 33.27 22.26 54.48 22.26s40.45-8.5 54.5-22.26h23.42v-44.52H289.39z"/><path style="fill:#338af3" d="M289.4 189.22V256c0 59.64 77.9 77.91 77.9 77.91s77.92-18.27 77.92-77.91v-66.78H289.39z"/><path style="fill:#f3f3f3" d="M367.3 224.89c-19.48 0-19.48 17.8-38.95 17.8-19.48 0-19.48-17.8-38.96-17.8v31.16c19.48 0 19.48 17.81 38.96 17.81s19.47-17.8 38.95-17.8c19.48 0 19.48 17.8 38.96 17.8s19.48-17.8 38.96-17.8v-31.17c-19.48 0-19.48 17.8-38.96 17.8s-19.48-17.8-38.96-17.8zM367.3 162.5c-19.48 0-19.48 17.81-38.95 17.81-19.48 0-19.48-17.8-38.96-17.8v31.16c19.48 0 19.48 17.8 38.96 17.8s19.47-17.8 38.95-17.8c19.48 0 19.48 17.8 38.96 17.8s19.48-17.8 38.96-17.8V162.5c-19.48 0-19.48 17.81-38.96 17.81s-19.48-17.8-38.96-17.8z"/></svg>
