<svg xmlns="http://www.w3.org/2000/svg" viewBox="0 0 512 512" style="enable-background:new 0 0 512 512" xml:space="preserve"><circle style="fill:#f0f0f0" cx="256" cy="256" r="256"/><path style="fill:#0052b4" d="M480.87 133.56C447.8 72.94 390.91 27.16 322.78 8.8l-11.13 124.77h169.22zM31.13 133.56h169.22L189.22 8.8C121.09 27.17 64.2 72.94 31.12 133.57z"/><path style="fill:#6da544" d="M311.65 256v122.44h169.22A254.85 254.85 0 0 0 512 256H311.65zM200.35 256H0c0 44.35 11.28 86.06 31.13 122.44h169.22V256z"/><path style="fill:#ffda44" d="M31.13 378.44c33.08 60.62 89.96 106.4 158.09 124.76l11.13-109.11-169.22-15.65zM322.78 503.2c68.13-18.37 125.01-64.14 158.1-124.77l-169.23 15.65 11.13 109.12z"/><path style="fill:#ffda44" d="m311.65 394.08 169.22-15.64H311.65zM200.35 378.44H31.13l169.22 15.64z"/><path style="fill:#d80027" d="M256 0c-23.1 0-45.49 3.08-66.78 8.82v494.36c21.3 5.74 43.67 8.82 66.78 8.82s45.49-3.08 66.78-8.82V8.82A256.28 256.28 0 0 0 256 0z"/><path style="fill:#ffda44" d="m137.7 55.65 6.9 21.26h22.36l-18.08 13.14 6.9 21.25-18.08-13.13-18.08 13.13 6.9-21.25-18.08-13.14h22.35z"/></svg>
