<svg xmlns="http://www.w3.org/2000/svg" viewBox="0 0 512 512" style="enable-background:new 0 0 512 512" xml:space="preserve"><circle style="fill:#f0f0f0" cx="256" cy="256" r="256"/><path style="fill:#d80027" d="M512 255.26H234.47c-55.1 55.1-88.41 97.63-122.43 131.65l144.7 13.04 224.53-22.26A254.84 254.84 0 0 0 512 256v-.74z"/><path style="fill:#ffda44" d="M112.05 132.82h368.4C436.93 53.66 352.74 0 256 0A255.15 255.15 0 0 0 75.36 74.62l36.69 58.2z"/><path style="fill:#0052b4" d="M123.18 377.7c-23.02 23-31.91 42.29-48.56 58.94A255.18 255.18 0 0 0 256 512c97.34 0 181.98-54.33 225.28-134.3h-358.1z"/><path style="fill:#6da544" d="M74.98 74.24c-99.97 99.97-99.97 262.06 0 362.04L256 255.26 74.98 74.24z"/><path style="fill:#f0f0f0" d="M67.53 255.26a77.93 77.93 0 0 1 61.21-76.1 77.91 77.91 0 1 0 0 152.2 77.93 77.93 0 0 1-61.22-76.1z"/><path style="fill:#f0f0f0" d="m127.88 188.48 4.15 12.75h13.41l-10.85 7.88 4.14 12.76-10.85-7.88-10.85 7.88 4.15-12.76-10.85-7.88h13.41zM127.88 221.87l4.15 12.75h13.41l-10.85 7.88 4.14 12.76-10.85-7.88-10.85 7.88 4.15-12.76-10.85-7.88h13.41zM127.88 255.26l4.15 12.75h13.41l-10.85 7.89 4.14 12.75-10.85-7.88-10.85 7.88 4.15-12.75-10.85-7.89h13.41zM127.88 288.65l4.15 12.75h13.41l-10.85 7.89 4.14 12.75-10.85-7.88-10.85 7.88 4.15-12.75-10.85-7.89h13.41z"/></svg>
