<svg xmlns="http://www.w3.org/2000/svg" viewBox="0 0 512 512" style="enable-background:new 0 0 512 512" xml:space="preserve"><path style="fill:#f0f0f0" d="M512 256c0-31.31-5.63-61.31-15.92-89.04L256 155.83 15.92 166.96C5.63 194.69 0 224.69 0 256s5.63 61.31 15.92 89.04L256 356.17l240.08-11.13A255.46 255.46 0 0 0 512 256z"/><path style="fill:#0052b4" d="M256 512c110.07 0 203.9-69.47 240.08-166.96H15.92C52.1 442.53 145.92 512 256 512z"/><path style="fill:#d80027" d="M15.92 166.96h480.16C459.9 69.47 366.08 0 256 0S52.1 69.47 15.92 166.96z"/><path style="fill:#338af3" d="M322.78 178.09h-44.52l7.42-55.65 29.68-22.27 29.68 22.27v44.52zM189.22 178.09h44.52l-7.42-55.65-29.68-22.27-29.68 22.27v44.52z"/><path style="fill:#0052b4" d="M285.68 178.09h-59.36v-55.65L256 100.17l29.68 22.27z"/><path style="fill:#f0f0f0" d="M166.96 166.96v122.43a88.97 88.97 0 0 0 35.8 71.33l15.58-3.9 19.67 19.79a89.1 89.1 0 0 0 35.9.02l22.44-18.7 12.9 2.76a88.93 88.93 0 0 0 35.8-71.3V166.96h-178.1z"/><path style="fill:#d80027" d="M166.96 166.96h35.62v35.62h-35.62zM238.19 166.96h35.62v35.62h-35.62zM309.43 166.96h35.62v35.62h-35.62z"/><path style="fill:#d80027" d="M202.57 202.57h35.62v35.62h-35.62zM273.81 202.57h35.62v35.62h-35.62z"/><path style="fill:#d80027" d="M166.96 238.18h35.62v35.62h-35.62zM202.57 273.8h35.62v35.62h-35.62zM238.19 238.18h35.62v35.62h-35.62zM309.43 238.18h35.62v35.62h-35.62zM273.81 273.8h35.62v35.62h-35.62zM238.19 309.42h35.62v35.62h-35.62zM202.57 309.42h-33.31a88.77 88.77 0 0 0 17.3 35.61h16.01v-35.61zM309.43 345.04h16.01a88.75 88.75 0 0 0 17.3-35.62h-33.31v35.62zM202.57 345.04v15.54a88.68 88.68 0 0 0 35.62 16.06v-31.6h-35.62zM273.8 345.04v31.6a88.65 88.65 0 0 0 35.63-16.06v-15.54H273.8z"/></svg>
