<svg xmlns="http://www.w3.org/2000/svg" viewBox="0 0 512 512" style="enable-background:new 0 0 512 512" xml:space="preserve"><path style="fill:#ff9811" d="M0 44.52v422.96V256z"/><circle style="fill:#f0f0f0" cx="256" cy="256" r="256"/><path style="fill:#0052b4" d="M256 0C172.25 0 97.9 40.23 51.2 102.4h409.62C414.11 40.22 339.75 0 256.01 0zM256 512c83.75 0 158.1-40.22 204.81-102.4H51.2C97.89 471.78 172.25 512 256 512zM0 256a257.1 257.1 0 0 0 5.13 51.2h501.75c3.35-16.54 5.12-33.66 5.12-51.2s-1.77-34.66-5.13-51.2H5.13A257.1 257.1 0 0 0 0 256z"/><path style="fill:#d80027" d="M74.98 74.98c-99.97 99.97-99.97 262.07 0 362.04L256 256 74.98 74.98z"/><path style="fill:#f0f0f0" d="m103.61 189.22 16.58 51.01h53.64l-43.4 31.54 16.58 51.01-43.4-31.53-43.4 31.53 16.58-51.01-43.4-31.54h53.64z"/></svg>
