<svg xmlns="http://www.w3.org/2000/svg" viewBox="0 0 512 512" style="enable-background:new 0 0 512 512" xml:space="preserve"><circle style="fill:#fcfcfc" cx="256" cy="256" r="256"/><path style="fill:#6da544" d="M400.7 222.6h-33.4c0 61.48-49.83 111.31-111.3 111.31s-111.3-49.83-111.3-111.3h-33.4c0 66.21 44.48 122.04 105.2 139.23a37.04 37.04 0 0 0 3.86 40.43l36.38-29.16 36.39 29.16a37.05 37.05 0 0 0 3.67-40.8c60.04-17.62 103.9-73.12 103.9-138.86z"/><path style="fill:#ffda44" d="M166.96 211.48s0 55.65 55.65 55.65l11.13 11.13H256s11.13-33.4 33.4-33.4c0 0 0-22.25 22.25-22.25h33.4s-11.14-44.52 44.52-77.92l-22.27-11.13s-77.9 55.66-133.56 44.53v22.26h-22.26l-11.13-11.13-33.4 22.26z"/></svg>
