<svg xmlns="http://www.w3.org/2000/svg" viewBox="0 0 512 512" style="enable-background:new 0 0 512 512" xml:space="preserve"><circle style="fill:#ffda44" cx="256" cy="256" r="256"/><path style="fill:#d80027" d="M256 0A254.95 254.95 0 0 0 91.42 59.93L367.3 256 91.42 452.07A254.95 254.95 0 0 0 256 512c141.38 0 256-114.62 256-256S397.38 0 256 0z"/><path d="M74.98 74.98c-99.97 99.97-99.97 262.06 0 362.04L256 256 74.98 74.98z"/><path style="fill:#f0f0f0" d="m70.98 197.36 38.96 36.87 47.11-25.67-23.03 48.45 38.96 36.88-53.19-6.93-23.03 48.45-9.85-52.73-53.19-6.93 47.11-25.67z"/></svg>
