<svg xmlns="http://www.w3.org/2000/svg" viewBox="0 0 512 512" style="enable-background:new 0 0 512 512" xml:space="preserve"><path style="fill:#338af3" d="M233.74 233.74S75.13 437.06 74.98 437.02A255.2 255.2 0 0 0 256 512c141.38 0 256-114.62 256-256l-278.26-22.26z"/><path style="fill:#6da544" d="M233.74 256S75.13 74.94 74.98 74.98A255.2 255.2 0 0 1 256 0c141.38 0 256 114.62 256 256H233.74z"/><path style="fill:#d80027" d="M74.98 74.98c-99.97 99.97-99.97 262.06 0 362.04C74.98 437.06 512 256 512 256L74.98 74.98z"/><path style="fill:#ffda44" d="M133.56 150.26c-49.1 0-89.04 39.95-89.04 89.04v33.4c0 49.1 39.95 89.04 89.04 89.04s89.05-39.95 89.05-89.05V239.3c0-49.1-39.95-89.04-89.05-89.04zm55.66 122.44a55.75 55.75 0 0 1-38.96 53.09v-36.4l23.62-23.62-23.6-23.61-.02-8.4V222.6h-33.39V256l-23.6 23.6 23.6 23.61v22.58a55.75 55.75 0 0 1-38.96-53.1v-33.38c0-30.7 24.97-55.66 55.66-55.66s55.65 24.97 55.65 55.66v33.39z"/></svg>
