<svg xmlns="http://www.w3.org/2000/svg" viewBox="0 0 512 512" style="enable-background:new 0 0 512 512" xml:space="preserve"><path style="fill:#ffda44" d="M486.6 367.3C502.87 333.65 512 295.9 512 256s-9.13-77.65-25.4-111.3L256 133.57 25.4 144.7A255 255 0 0 0 0 256c0 39.89 9.13 77.65 25.4 111.3L256 378.43l230.6-11.13z"/><path d="M256 0C154.5 0 66.81 59.06 25.4 144.7h461.2C445.19 59.07 357.5 0 256 0z"/><path style="fill:#0052b4" d="M256 512c-101.5 0-189.19-59.06-230.6-144.7h461.2C445.19 452.93 357.5 512 256 512z"/><path style="fill:#a2001d" d="M499.91 178.09H12.1C4.25 202.66 0 228.83 0 256s4.25 53.34 12.09 77.91H499.9C507.75 309.34 512 283.17 512 256s-4.25-53.34-12.09-77.91z"/><path style="fill:#ffda44" d="M89.04 244.87h333.91v22.26H89.04zM133.56 200.35h244.87v22.26H133.56z"/><path style="fill:#f0f0f0" d="M380.02 256S322.78 322.78 256 322.78 189.22 256 189.22 256s0-66.78 66.78-66.78S380.02 256 380.02 256z"/><path d="M256 322.78c-66.78 0-124.03-66.78-124.03-66.78s57.25-66.78 124.03-66.78"/><path style="fill:#f0f0f0" d="M211.48 233.74h22.26v44.52h-22.26z"/><path d="M278.26 233.74h22.26v44.52h-22.26z"/><circle style="fill:#0052b4" cx="89.04" cy="256" r="22.26"/><circle style="fill:#0052b4" cx="422.96" cy="256" r="22.26"/></svg>
