<svg xmlns="http://www.w3.org/2000/svg" viewBox="0 0 512 512" style="enable-background:new 0 0 512 512" xml:space="preserve"><path style="fill:#338af3" d="M512 256c0 141.38-114.62 256-256 256S0 397.38 0 256C0 256.06 256 .03 256 0c141.38 0 256 114.62 256 256z"/><path style="fill:#0052b4" d="M256 122.44v86.34l-89.04-86.34zM133.57 256h75.21l-75.21-100.17-11.13 77.91z"/><path style="fill:#f0f0f0" d="M256 0h-.04.04zM255.31 256h.69v-.69l-.69.69z"/><path style="fill:#f0f0f0" d="M256 133.56V0h-.04C114.59.02 0 114.63 0 256h133.56v-75.21L208.78 256h46.54l.68-.69v-46.53l-75.21-75.22H256z"/><path style="fill:#d80027" d="M129.51 33.4A257.22 257.22 0 0 0 33.4 129.5V256h66.78V100.18H256V33.38H129.51z"/><path style="fill:#d80027" d="m256 224.52-90.95-90.95h-31.48L256 256v-31.48z"/><path style="fill:#f3f3f3" d="M289.4 166.96V256c0 59.64 77.9 77.91 77.9 77.91s77.92-18.27 77.92-77.91v-89.04L367.3 144.7l-77.9 22.26z"/><path style="fill:#d80027" d="M445.22 166.96v-33.4H289.39v33.4h66.78v66.78H289.4V256h66.78v74.5c6.72 2.38 11.13 3.41 11.13 3.41s4.42-1.03 11.13-3.41V256h66.79v-22.26h-66.79v-66.78h66.79z"/></svg>
