<svg xmlns="http://www.w3.org/2000/svg" viewBox="0 0 512 512" style="enable-background:new 0 0 512 512" xml:space="preserve"><circle style="fill:#f0f0f0" cx="256" cy="256" r="256"/><path style="fill:#d80027" d="M509.83 222.6H289.4V2.18a258.56 258.56 0 0 0-66.78 0V222.6H2.17a258.56 258.56 0 0 0 0 66.78H222.6v220.44a258.56 258.56 0 0 0 66.78 0V289.4h220.44a258.53 258.53 0 0 0 0-66.78z"/><path style="fill:#d80027" d="M155.83 122.44v-33.4h-33.39v33.4h-33.4v33.39h33.4v33.39h33.39v-33.39h33.39v-33.39zM389.57 122.44v-33.4h-33.4v33.4h-33.39v33.39h33.39v33.39h33.4v-33.39h33.39v-33.39zM155.83 356.17v-33.39h-33.39v33.39h-33.4v33.4h33.4v33.39h33.39v-33.39h33.39v-33.4zM389.57 356.17v-33.39h-33.4v33.39h-33.39v33.4h33.39v33.39h33.4v-33.39h33.39v-33.4z"/></svg>
