<svg xmlns="http://www.w3.org/2000/svg" viewBox="0 0 512 512" style="enable-background:new 0 0 512 512" xml:space="preserve"><circle style="fill:#f0f0f0" cx="256" cy="256" r="256"/><path style="fill:#338af3" d="M256 189.22h247.18a254.56 254.56 0 0 0-28.75-66.79H256v66.79zM96.64 456.35h318.72a257.3 257.3 0 0 0 59.06-66.79H37.57a257.35 257.35 0 0 0 59.07 66.79zM89.04 61.94a257.25 257.25 0 0 0-51.47 60.5h51.47v-60.5zM256 256v-66.78H155.83V256H89.04v-66.78H8.82C3.08 210.52 0 232.89 0 256s3.08 45.49 8.82 66.78h494.36A256.32 256.32 0 0 0 512 256H256z"/><path style="fill:#338af3" d="M256 0a255.2 255.2 0 0 0-100.17 20.35v102.09H256V55.64h159.36A254.9 254.9 0 0 0 256 0z"/></svg>
