<svg xmlns="http://www.w3.org/2000/svg" viewBox="0 0 512 512" style="enable-background:new 0 0 512 512" xml:space="preserve"><circle style="fill:#ffda44" cx="256" cy="256" r="256"/><path style="fill:#a2001d" d="M111.71 44.52C152.8 16.44 202.48 0 256 0s103.2 16.44 144.29 44.52L256 55.65 111.71 44.52z"/><path style="fill:#0052b4" d="m256 256-16.34-16.34-4.34 7.77z"/><path style="fill:#496e2d" d="M74.98 74.98c-99.97 99.97-99.97 262.06 0 362.04L256 256 74.98 74.98zM437.02 74.98c99.97 99.97 99.97 262.06 0 362.04L256 256 437.02 74.98z"/><circle style="fill:#a2001d" cx="256" cy="256" r="89.04"/><path style="fill:#ffda44" d="m256 166.96 19.96 61.43h64.6l-52.26 37.97 19.96 61.43L256 289.83l-52.26 37.96 19.96-61.43-52.26-37.97h64.6zM256 0h-.09.17-.08z"/><path style="fill:#a2001d" d="M256.09 0h-.17A255.19 255.19 0 0 0 74.99 74.97h362.02A255.2 255.2 0 0 0 256.09 0zM75 437.03C121.31 483.35 185.3 512 256 512s134.68-28.65 181-74.97H75z"/><path style="fill:#ffda44" d="m256 27.83 4.15 12.75h13.41l-10.85 7.88 4.14 12.76L256 53.34l-10.85 7.88 4.15-12.76-10.85-7.88h13.41zM193.92 27.83l4.15 12.75h13.41l-10.85 7.88 4.14 12.76-10.85-7.88-10.84 7.88 4.14-12.76-10.85-7.88h13.41zM318.08 27.83l4.14 12.75h13.41l-10.85 7.88 4.15 12.76-10.85-7.88-10.85 7.88 4.14-12.76-10.85-7.88h13.41zM256 450.78l4.15 12.76h13.41l-10.85 7.88 4.14 12.75-10.85-7.88-10.85 7.88 4.15-12.75-10.85-7.88h13.41zM193.92 450.78l4.15 12.76h13.41l-10.85 7.88 4.14 12.75-10.85-7.88-10.84 7.88 4.14-12.75-10.85-7.88h13.41zM318.08 450.78l4.14 12.76h13.41l-10.85 7.88 4.15 12.75-10.85-7.88-10.85 7.88 4.14-12.75-10.85-7.88h13.41zM78 251.77a22.26 22.26 0 0 1-37.62 23.81c-11.9-18.8-5-49.52-5-49.52s30.72 6.9 42.62 25.71z"/><circle style="fill:#a2001d" cx="65.15" cy="273.08" r="11.13"/></svg>
