<svg xmlns="http://www.w3.org/2000/svg" viewBox="0 0 512 512" style="enable-background:new 0 0 512 512" xml:space="preserve"><circle style="fill:#f0f0f0" cx="256" cy="256" r="256"/><path style="fill:#338af3" d="M512 256c0-101.5-59.06-189.19-144.7-230.6v461.2C452.93 445.19 512 357.5 512 256zM0 256c0 101.5 59.06 189.19 144.7 230.6V25.4C59.07 66.81 0 154.5 0 256z"/><path style="fill:#acabb1" d="M322.9 299.29 279.61 256l41.21-41.2-1.87-21.76-11.8-11.8L256 232.39l-51.15-51.15-11.8 11.8-1.86 21.76 41.2 41.2-43.29 43.29 23.61 23.61L256 279.61l43.29 43.29z"/><path style="fill:#6da544" d="m318.96 193.04-23.6 23.6a55.65 55.65 0 1 1-78.7 0l-23.62-23.6a89.04 89.04 0 1 0 125.93 0z"/></svg>
