<svg xmlns="http://www.w3.org/2000/svg" viewBox="0 0 512 512" style="enable-background:new 0 0 512 512" xml:space="preserve"><path style="fill:#ffda44" d="M345.05 15.92A255.44 255.44 0 0 0 256 0c-31.31 0-61.3 5.63-89.04 15.92L155.83 256l11.13 240.08A255.45 255.45 0 0 0 256 512c31.32 0 61.31-5.63 89.05-15.92L356.18 256 345.05 15.92z"/><path style="fill:#d80027" d="M0 256c0 110.07 69.47 203.9 166.96 240.08V15.92C69.47 52.1 0 145.92 0 256z"/><path style="fill:#6da544" d="M512 256c0-110.07-69.47-203.9-166.96-240.08v480.16C442.53 459.9 512 366.07 512 256z"/></svg>
