<svg xmlns="http://www.w3.org/2000/svg" viewBox="0 0 512 512" style="enable-background:new 0 0 512 512" xml:space="preserve"><path style="fill:#f0f0f0" d="M15.92 166.96C5.63 194.69 0 224.69 0 256s5.63 61.31 15.92 89.04L256 367.3l240.08-22.26C506.37 317.31 512 287.31 512 256s-5.63-61.3-15.92-89.04L256 144.7 15.92 166.96z"/><path style="fill:#d80027" d="M256 0C145.93 0 52.1 69.47 15.92 166.96h480.16C459.9 69.47 366.08 0 256 0z"/><path style="fill:#6da544" d="M256 512c110.07 0 203.9-69.47 240.08-166.96H15.92C52.1 442.53 145.93 512 256 512z"/></svg>
