<svg xmlns="http://www.w3.org/2000/svg" viewBox="0 0 512 512" style="enable-background:new 0 0 512 512" xml:space="preserve"><circle style="fill:#f0f0f0" cx="256" cy="256" r="256"/><path style="fill:#ff9811" d="M256 0C154.5 0 66.81 59.06 25.4 144.7h461.2C445.19 59.07 357.5 0 256 0z"/><path style="fill:#6da544" d="M256 512c101.5 0 189.19-59.06 230.6-144.7H25.4C66.81 452.93 154.5 512 256 512z"/><circle style="fill:#0052b4" cx="256" cy="256" r="89.04"/><circle style="fill:#f0f0f0" cx="256" cy="256" r="55.65"/><path style="fill:#0052b4" d="m256 187.33 17.17 38.93 42.3-4.6L290.34 256l25.13 34.34-42.3-4.6L256 324.67l-17.17-38.93-42.3 4.6L221.66 256l-25.13-34.34 42.3 4.6z"/></svg>
