<svg xmlns="http://www.w3.org/2000/svg" viewBox="0 0 512 512" style="enable-background:new 0 0 512 512" xml:space="preserve"><circle style="fill:#f0f0f0" cx="256" cy="256" r="256"/><path style="fill:#d80027" d="M339.15 189.22h-33.5c.28 3.68.44 7.4.44 11.13 0 24.76-6.2 48.76-16.98 65.85-3.33 5.27-8.93 12.71-16.41 17.73v-94.71h-33.4v94.71c-7.48-5.02-13.08-12.46-16.4-17.73-10.8-17.09-16.99-41.09-16.99-65.85 0-3.74.16-7.45.44-11.13h-33.5c-.21 3.66-.33 7.37-.33 11.13 0 68.65 36.67 122.43 83.48 122.43s83.48-53.78 83.48-122.43c0-3.76-.12-7.47-.33-11.13z"/><path style="fill:#6da544" d="M105.74 122.44h33.39v22.26h33.4v-22.26h33.38v22.26h33.4v-22.26h33.38v22.26h33.4v-22.26h33.39v22.26h33.39v-22.26h33.39v22.26h80.34C445.19 59.07 357.5 0 256 0S66.81 59.06 25.4 144.7h80.34v-22.26z"/><path style="fill:#d80027" d="M406.26 367.3v22.26h-33.39V367.3h-33.4v22.26H306.1V367.3h-33.4v22.26h-33.38V367.3h-33.4v22.26h-33.39V367.3h-33.39v22.26h-33.4V367.3H25.4C66.81 452.93 154.5 512 256 512s189.19-59.06 230.6-144.7h-80.34z"/></svg>
