<svg xmlns="http://www.w3.org/2000/svg" viewBox="0 0 512 512" style="enable-background:new 0 0 512 512" xml:space="preserve"><circle style="fill:#f0f0f0" cx="256" cy="256" r="256"/><path style="fill:#a2001d" d="M256 0C145.93 0 52.1 69.47 15.92 166.96h480.16C459.9 69.47 366.08 0 256 0z"/><path d="M256 512c110.07 0 203.9-69.47 240.08-166.96H15.92C52.1 442.53 145.92 512 256 512z"/><path style="fill:#496e2d" d="m194.78 239.3-.41.01h-48.94a22.28 22.28 0 0 1 21.53-16.7v-33.4a55.72 55.72 0 0 0-55.66 55.66v27.83H194.78c3.07 0 5.57 2.5 5.57 5.56v11.13H89.05v33.4h144.69v-44.53a39 39 0 0 0-38.96-38.96zM278.26 289.39V189.22h-33.39v133.56h55.65v-33.39zM389.57 289.39V189.22h-33.4v100.17h-11.13V256h-33.39v66.78h100.18v-33.39z"/></svg>
