<svg xmlns="http://www.w3.org/2000/svg" viewBox="0 0 512 512" style="enable-background:new 0 0 512 512" xml:space="preserve"><circle style="fill:#f0f0f0" cx="256" cy="256" r="256"/><path d="M155.83 166.96h340.25C459.9 69.47 366.07 0 256 0A255.17 255.17 0 0 0 74.99 74.99l80.84 91.97z"/><path style="fill:#6da544" d="M155.83 345.04h340.25C459.9 442.53 366.07 512 256 512a255.17 255.17 0 0 1-181.01-74.99l80.84-91.97z"/><path style="fill:#d80027" d="M74.98 74.98c-99.97 99.97-99.97 262.06 0 362.04L256 256 74.98 74.98z"/><path style="fill:#f0f0f0" d="m101.61 200.35 14.04 29.38 31.73-7.34-14.21 29.31 25.52 20.23-31.77 7.16.09 32.56-25.4-20.37-25.41 20.37.09-32.56-31.77-7.16 25.52-20.23-14.21-29.31 31.73 7.34z"/></svg>
