<svg xmlns="http://www.w3.org/2000/svg" viewBox="0 0 512 512" style="enable-background:new 0 0 512 512" xml:space="preserve"><circle style="fill:#f0f0f0" cx="256" cy="256" r="256"/><path d="M256 0C154.5 0 66.81 59.06 25.4 144.7h461.2C445.19 59.07 357.5 0 256 0z"/><path style="fill:#496e2d" d="M256 512c-101.5 0-189.19-59.06-230.6-144.7h461.2C445.19 452.93 357.5 512 256 512z"/><path style="fill:#a2001d" d="M499.91 178.09H12.1C4.25 202.66 0 228.83 0 256s4.25 53.34 12.09 77.91H499.9C507.75 309.34 512 283.17 512 256s-4.25-53.34-12.09-77.91z"/><path style="fill:#f0f0f0" d="m335.72 118.3-30.32-13.99L256 216.16l-49.4-111.85-30.31 13.99L237.61 256l-61.32 137.7 30.31 13.99L256 295.84l49.4 111.85 30.32-13.99L274.39 256z"/><path style="fill:#f0f0f0" d="M276.6 131.49C264.84 118.67 256 111.3 256 111.3s-8.86 7.37-20.6 20.19V380.5c11.75 12.82 20.6 20.19 20.6 20.19s8.86-7.37 20.6-20.19V131.49z"/><path style="fill:#a2001d" d="M200.35 179.24v153.51c12.4 21.98 27.58 40 38.96 51.93V127.31c-11.38 11.95-26.56 29.96-38.96 51.93zM311.65 179.24c-12.4-21.97-27.58-39.98-38.95-51.93v257.37c11.37-11.94 26.55-29.95 38.95-51.92V179.23z"/><path d="M311.65 179.24v153.51c12.56-22.24 22.26-48.55 22.26-76.75s-9.7-54.5-22.26-76.76zM200.35 179.24v153.51c-12.56-22.24-22.26-48.55-22.26-76.75s9.7-54.5 22.26-76.76z"/></svg>
