<svg xmlns="http://www.w3.org/2000/svg" viewBox="0 0 512 512" style="enable-background:new 0 0 512 512" xml:space="preserve"><path style="fill:#d80027" d="M0 256C0 114.62 114.62 0 256 0s256 114.62 256 256"/><path style="fill:#ffda44" d="m345.04 238.08-36.38 17.11 19.37 35.24-39.51-7.56-5 39.91L256 293.43l-27.52 29.35-5-39.91-39.51 7.56 19.37-35.24-36.38-17.11 36.38-17.12-19.37-35.23 39.5 7.55 5.01-39.91L256 182.73l27.52-29.36 5 39.91 39.52-7.55-19.38 35.24zM322.78 83.48H272.7a16.7 16.7 0 0 0-33.4 0h-50.08c0 9.22 8.03 16.7 17.25 16.7h-.56a16.7 16.7 0 0 0 16.7 16.69 16.7 16.7 0 0 0 16.7 16.7h33.38a16.7 16.7 0 0 0 16.7-16.7 16.7 16.7 0 0 0 16.7-16.7h-.56c9.22 0 17.25-7.47 17.25-16.7z"/><path style="fill:#f0f0f0" d="M512 256c0 141.38-114.62 256-256 256S0 397.38 0 256h512z"/><path style="fill:#0052b4" d="M256 512c80.02 0 151.46-36.72 198.4-94.23-8.44-5.75-13-15.06-27.74-15.06-21.33 0-21.33 19.5-42.66 19.5s-21.34-19.5-42.67-19.5c-21.33 0-21.33 19.5-42.66 19.5s-21.34-19.5-42.67-19.5c-21.34 0-21.34 19.5-42.67 19.5-21.33 0-21.33-19.5-42.66-19.5-21.34 0-21.34 19.5-42.67 19.5s-21.34-19.5-42.67-19.5c-14.74 0-19.3 9.3-27.74 15.06C104.54 475.27 175.98 512 256 512zM469.33 288.65c-21.33 0-21.33-19.5-42.67-19.5-21.33 0-21.33 19.5-42.66 19.5s-21.34-19.5-42.67-19.5c-21.33 0-21.33 19.5-42.66 19.5s-21.34-19.5-42.67-19.5c-21.34 0-21.34 19.5-42.67 19.5-21.33 0-21.33-19.5-42.66-19.5-21.34 0-21.34 19.5-42.67 19.5s-21.34-19.5-42.67-19.5c-21.33 0-21.33 19.5-42.67 19.5-21.21 0-21.34-19.3-42.33-19.5.6 11.71 2 23.2 4.1 34.45 17.01 2.5 18.5 19.18 38.24 19.18 21.33 0 21.33-19.5 42.66-19.5s21.33 19.5 42.67 19.5 21.33-19.5 42.67-19.5c21.33 0 21.33 19.5 42.66 19.5s21.33-19.5 42.67-19.5c21.33 0 21.33 19.5 42.67 19.5 21.33 0 21.33-19.5 42.66-19.5 21.34 0 21.34 19.5 42.67 19.5s21.33-19.5 42.66-19.5c21.34 0 21.34 19.5 42.67 19.5 19.74 0 21.23-16.68 38.23-19.18a256.53 256.53 0 0 0 4.1-34.45c-20.99.21-21.11 19.5-42.33 19.5zM426.66 335.93c-21.33 0-21.33 19.5-42.66 19.5s-21.34-19.5-42.67-19.5c-21.33 0-21.33 19.5-42.66 19.5-21.34 0-21.34-19.5-42.67-19.5-21.34 0-21.34 19.5-42.67 19.5-21.33 0-21.33-19.5-42.66-19.5-21.34 0-21.34 19.5-42.67 19.5s-21.34-19.5-42.67-19.5c-21.33 0-21.33 19.5-42.67 19.5-15.24 0-19.6-9.95-28.62-15.64 6.01 17.36 13.83 33.87 23.24 49.3 1.64.3 3.42.48 5.38.48 21.34 0 21.34-19.5 42.67-19.5 21.33 0 21.33 19.5 42.67 19.5s21.33-19.5 42.67-19.5c21.33 0 21.33 19.5 42.66 19.5s21.33-19.5 42.67-19.5c21.33 0 21.33 19.5 42.67 19.5 21.33 0 21.33-19.5 42.66-19.5 21.34 0 21.34 19.5 42.67 19.5s21.33-19.5 42.66-19.5c21.34 0 21.34 19.5 42.67 19.5 1.97 0 3.75-.17 5.39-.47a254.85 254.85 0 0 0 23.24-49.31c-9.03 5.68-13.38 15.64-28.63 15.64-21.33 0-21.33-19.5-42.67-19.5z"/><path style="fill:#f0f0f0" d="M511.2 235.78c-20.52.48-20.8 19.48-41.87 19.48-21.33 0-21.33-19.5-42.67-19.5-21.33 0-21.33 19.5-42.66 19.5s-21.34-19.5-42.67-19.5c-21.33 0-21.33 19.5-42.66 19.5s-21.34-19.5-42.67-19.5c-21.34 0-21.34 19.5-42.67 19.5-21.33 0-21.33-19.5-42.66-19.5-21.34 0-21.34 19.5-42.67 19.5s-21.34-19.5-42.67-19.5c-21.33 0-21.33 19.5-42.67 19.5-21.05 0-21.34-19-41.87-19.48a259.8 259.8 0 0 0-.4 34.12c20.93.23 21.07 19.5 42.28 19.5 21.33 0 21.33-19.51 42.66-19.51s21.33 19.5 42.67 19.5 21.33-19.5 42.67-19.5c21.33 0 21.33 19.5 42.66 19.5s21.33-19.5 42.67-19.5c21.33 0 21.33 19.5 42.67 19.5 21.33 0 21.33-19.5 42.66-19.5 21.34 0 21.34 19.5 42.67 19.5s21.33-19.5 42.66-19.5c21.34 0 21.34 19.5 42.67 19.5 21.2 0 21.35-19.26 42.3-19.5a260.27 260.27 0 0 0-.42-34.11z"/></svg>
