<svg xmlns="http://www.w3.org/2000/svg" viewBox="0 0 512 512" style="enable-background:new 0 0 512 512" xml:space="preserve"><circle style="fill:#f0f0f0" cx="256" cy="256" r="256"/><path style="fill:#d80027" d="M244.87 256H512c0-23.1-3.08-45.49-8.82-66.78H244.87V256zM244.87 122.44h229.56a257.33 257.33 0 0 0-59.07-66.79H244.87v66.78zM256 512a254.9 254.9 0 0 0 159.36-55.65H96.64A254.9 254.9 0 0 0 256 512zM37.57 389.56h436.86a254.5 254.5 0 0 0 28.75-66.78H8.82a254.46 254.46 0 0 0 28.75 66.79z"/><path style="fill:#0052b4" d="M256 256V0C114.62 0 0 114.62 0 256h256z"/><path style="fill:#ffda44" d="M170.23 219.13a63.3 63.3 0 1 1 30.12-119 77.91 77.91 0 1 0 0 111.4 63.04 63.04 0 0 1-30.12 7.6z"/><path style="fill:#ffda44" d="m188.07 111.3 11.24 23.51 25.38-5.87-11.36 23.44 20.41 16.19-25.41 5.73.07 26.05-20.33-16.3-20.32 16.3.07-26.05-25.41-5.73 20.41-16.19-11.37-23.44 25.38 5.87z"/></svg>
