<svg xmlns="http://www.w3.org/2000/svg" viewBox="0 0 512 512" style="enable-background:new 0 0 512 512" xml:space="preserve"><circle style="fill:#f0f0f0" cx="256" cy="256" r="256"/><path style="fill:#d80027" d="M512 256c0-101.5-59.06-189.19-144.7-230.6v461.2C452.93 445.19 512 357.5 512 256z"/><path style="fill:#6da544" d="M0 256c0 101.5 59.06 189.19 144.7 230.6V25.4C59.07 66.81 0 154.5 0 256zM189.22 256a66.78 66.78 0 0 0 133.56 0v-22.26H189.22V256z"/><path style="fill:#ff9811" d="M345.04 211.48h-66.78a22.26 22.26 0 0 0-44.52 0h-66.79c0 12.3 10.71 22.26 23 22.26h-.73c0 12.3 9.96 22.26 22.26 22.26 0 12.3 9.96 22.26 22.26 22.26h44.52c12.3 0 22.26-9.96 22.26-22.26 12.3 0 22.26-9.97 22.26-22.26h-.74c12.3 0 23-9.97 23-22.26z"/></svg>
