<svg xmlns="http://www.w3.org/2000/svg" viewBox="0 0 512 512" style="enable-background:new 0 0 512 512" xml:space="preserve"><path style="fill:#0052b4" d="M256 512c31.31 0 61.31-5.63 89.04-15.92L356.17 256 345.04 15.92C317.31 5.63 287.31 0 256 0s-61.31 5.63-89.04 15.92L155.83 256l11.13 240.08A255.43 255.43 0 0 0 256 512z"/><path style="fill:#a2001d" d="M0 256c0 110.07 69.47 203.9 166.96 240.08V15.92C69.47 52.1 0 145.92 0 256zM345.04 15.92v480.16C442.53 459.9 512 366.08 512 256S442.53 52.1 345.04 15.92z"/><path style="fill:#ffda44" d="M122.44 256h22.26v89.04h-22.26zM33.39 256h22.26v89.04H33.39z"/><circle style="fill:#ffda44" cx="89.04" cy="289.39" r="22.26"/><circle style="fill:#ffda44" cx="89.04" cy="211.48" r="11.13"/><path style="fill:#ffda44" d="M66.78 322.78h44.52v22.26H66.78zM66.78 233.74h44.52V256H66.78zM89.04 133.57l7.89 24.25h25.51l-20.64 15 7.88 24.26-20.64-14.99-20.63 14.99 7.88-24.26-20.64-15h25.51z"/></svg>
