<svg xmlns="http://www.w3.org/2000/svg" viewBox="0 0 512 512" style="enable-background:new 0 0 512 512" xml:space="preserve"><circle style="fill:#f0f0f0" cx="256" cy="256" r="256"/><path style="fill:#ffda44" d="M138.37 356.17 75 437.01A255.17 255.17 0 0 0 256 512c105.83 0 196.64-64.23 235.63-155.83H138.37z"/><path style="fill:#496e2d" d="M492.03 156.75C453.26 64.66 362.19 0 256 0A255.17 255.17 0 0 0 74.99 74.99l64.1 81.76h352.94z"/><path d="M55.65 188.29v134.5h447.53A256.13 256.13 0 0 0 512 256c0-23.44-3.16-46.14-9.06-67.71H55.65z"/><path style="fill:#a2001d" d="M74.98 74.98c-99.97 99.97-99.97 262.06 0 362.04L256 256 74.98 74.98z"/><path style="fill:#ffda44" d="m103.61 189.22 16.58 51.01h53.64l-43.4 31.54 16.58 51.01-43.4-31.53-43.4 31.53 16.58-51.01-43.4-31.54h53.64z"/><path style="fill:#f0f0f0" d="M55.11 256h97.02v44.52H55.11z"/><path d="m170.5 204.96-15.74-15.74-51.15 51.15-51.15-51.15-15.74 15.74 51.2 51.1-51.2 51.2 15.74 15.52 51.15-51.05 51.15 51.05 15.74-15.52-51.19-51.2z"/></svg>
