<svg xmlns="http://www.w3.org/2000/svg" viewBox="0 0 512 512" style="enable-background:new 0 0 512 512" xml:space="preserve"><path style="fill:#6da544" d="M496.08 345.04C506.37 317.31 512 287.31 512 256s-5.63-61.31-15.92-89.04L256 144.7 15.92 166.96C5.63 194.69 0 224.69 0 256s5.63 61.31 15.92 89.04L256 367.3l240.08-22.26z"/><path style="fill:#ffda44" d="M496.08 166.96C459.9 69.47 366.08 0 256 0S52.1 69.47 15.92 166.96h480.16z"/><path style="fill:#d80027" d="M256 512c110.07 0 203.9-69.47 240.08-166.96H15.92C52.1 442.53 145.92 512 256 512z"/><path style="fill:#f0f0f0" d="M431.55 216.59h-134.1L256 89.04 214.56 216.6H80.46l108.49 78.82-41.45 127.55L256 345.04l108.5 77.92-41.45-127.55 108.5-78.82z"/></svg>
