<svg xmlns="http://www.w3.org/2000/svg" viewBox="0 0 512 512" style="enable-background:new 0 0 512 512" xml:space="preserve"><circle style="fill:#0052b4" cx="256" cy="256" r="256"/><circle style="fill:#ffda44" cx="256" cy="256" r="256"/><path style="fill:#0052b4" d="M256 0C122.12 0 12.26 102.78.97 233.74h510.06C499.74 102.78 389.88 0 256 0zM256 512c133.88 0 243.74-102.78 255.03-233.74H.98C12.26 409.22 122.12 512 256 512z"/><path style="fill:#f0f0f0" d="m211.48 345.04-28.69 13.5 15.28 27.78-31.15-5.96-3.95 31.47-21.69-23.15-21.7 23.15-3.95-31.47-31.15 5.96 15.28-27.78-28.69-13.5 28.69-13.49-15.28-27.78 31.15 5.96 3.95-31.47 21.7 23.14 21.69-23.14 3.95 31.47 31.15-5.96-15.28 27.78z"/></svg>
