<svg xmlns="http://www.w3.org/2000/svg" viewBox="0 0 512 512" style="enable-background:new 0 0 512 512" xml:space="preserve"><circle style="fill:#f0f0f0" cx="256" cy="256" r="256"/><path style="fill:#0052b4" d="m510.5 283.83-.01-.01v.01zM510.49 283.83v-.01L229.75 1.33a255.17 255.17 0 0 0-37.11 6.58C81.9 36.1 0 256 0 256s358.4 239.84 399.29 212.16a256.9 256.9 0 0 0 23.49-17.95L256.4 283.83h254.09z"/><path style="fill:#d80027" d="M445.22 256 196.24 7.03C83.7 33.95 0 135.19 0 256c0 141.38 114.62 256 256 256a254.8 254.8 0 0 0 144.53-44.69L189.22 256h256z"/><path style="fill:#f0f0f0" d="m243.47 377.99-31.26-14.7 16.65-30.28-33.95 6.49-4.31-34.29-23.64 25.22-23.65-25.22-4.3 34.29-33.95-6.49 16.65 30.28-31.27 14.7 31.27 14.71-16.65 30.28 33.95-6.5 4.3 34.3 23.65-25.22 23.64 25.22 4.31-34.3 33.95 6.5-16.65-30.28zM222.61 141.98l-22.74-10.69 12.11-22.02-24.69 4.72-3.13-24.95-17.2 18.35-17.2-18.35-3.13 24.95-24.69-4.72 12.1 22.02-22.74 10.69 55.66 11.14z"/><path style="fill:#f0f0f0" d="M233.74 141.98a66.78 66.78 0 0 1-133.57 0"/></svg>
