<svg xmlns="http://www.w3.org/2000/svg" viewBox="0 0 512 512" style="enable-background:new 0 0 512 512" xml:space="preserve"><path style="fill:#0052b4" d="M512 256c0 141.38-114.62 256-256 256S0 397.38 0 256C0 256.06 256 .03 256 0c141.38 0 256 114.62 256 256z"/><path style="fill:#f0f0f0" d="M256 0h-.04.04zM255.31 256h.69v-.69l-.69.69z"/><path style="fill:#f0f0f0" d="M256 133.56V0h-.04C114.59.02 0 114.63 0 256h133.56v-75.21L208.78 256h46.54l.68-.69v-46.53l-75.21-75.22H256z"/><path style="fill:#d80027" d="M129.51 33.4A257.22 257.22 0 0 0 33.4 129.5V256h66.78V100.18H256V33.38H129.51z"/><path style="fill:#d80027" d="m256 224.52-90.95-90.95h-31.48L256 256v-31.48zM443.33 189.96l5.53 17.01h17.88l-14.47 10.51 5.53 17-14.47-10.51-14.47 10.51 5.53-17-14.47-10.51h17.88zM379.41 312.39l8.29 25.51h26.82l-21.7 15.77 8.29 25.51-21.7-15.77-21.7 15.77 8.29-25.51-21.7-15.77h26.82zM381.83 112.05l6.9 21.26h22.35L393 146.44l6.91 21.26-18.08-13.14-18.09 13.14 6.91-21.26-18.08-13.13h22.35zM320.32 189.22l8.29 25.51h26.82l-21.7 15.76 8.29 25.51-21.7-15.76-21.7 15.76 8.29-25.51-21.7-15.76h26.82z"/></svg>
