<svg xmlns="http://www.w3.org/2000/svg" viewBox="0 0 512 512" style="enable-background:new 0 0 512 512" xml:space="preserve"><circle style="fill:#f0f0f0" cx="256" cy="256" r="256"/><path style="fill:#0052b4" d="M256 0C178.4 0 108.89 34.52 61.94 89.04h388.12C403.11 34.52 333.59 0 256 0zM450.06 422.96H61.94C108.89 477.48 178.4 512 256 512s147.11-34.52 194.06-89.04z"/><path style="fill:#d80027" d="M474.43 122.44H37.57C13.74 161.31 0 207.05 0 256s13.74 94.68 37.57 133.56h436.86C498.25 350.69 512 304.95 512 256s-13.75-94.68-37.57-133.56z"/><circle style="fill:#f0f0f0" cx="157.5" cy="256" r="98.5"/><path style="fill:#d80027" d="m157.5 157.5 22.1 68.02h71.64l-57.98 42.04 22.27 68.22-58.03-42.24-57.95 42.16 22.18-68.14-57.92-42.04h71.58z"/></svg>
