<svg xmlns="http://www.w3.org/2000/svg" viewBox="0 0 512 512" style="enable-background:new 0 0 512 512" xml:space="preserve"><circle style="fill:#f0f0f0" cx="256" cy="256" r="256"/><path style="fill:#f0f0f0" d="M0 256c0 97.03 53.99 181.45 133.56 224.87V31.13C54 74.55 0 158.97 0 256z"/><path style="fill:#496e2d" d="M256 0a254.86 254.86 0 0 0-122.44 31.13v449.74A254.85 254.85 0 0 0 256 512c141.38 0 256-114.62 256-256S397.38 0 256 0z"/><path style="fill:#f0f0f0" d="M365.45 298.34a72.35 72.35 0 1 1-51.75-130.4 89.05 89.05 0 1 0 74.56 103.19 72.01 72.01 0 0 1-22.8 27.2zM364.07 166.96l18.24 19.66 24.34-11.27-13.07 23.42 18.25 19.67-26.32-5.19-13.06 23.43-3.2-26.63-26.32-5.19 24.34-11.27z"/></svg>
