<svg xmlns="http://www.w3.org/2000/svg" viewBox="0 0 512 512" style="enable-background:new 0 0 512 512" xml:space="preserve"><path d="M437.02 437.02c-99.97 99.97-262.06 99.97-362.04 0-99.97-99.97-99.97-262.07 0-362.04C174.95-25 321.3-9.25 421.28 90.72c99.97 99.97 115.71 246.32 15.74 346.3z"/><path style="fill:#a2001d" d="M74.98 74.98c99.97-99.97 262.06-99.97 362.04 0 99.97 99.98 99.97 262.07 0 362.04"/><path style="fill:#f0f0f0" d="m195.64 345.04 4.15 12.76h13.41l-10.85 7.88 4.14 12.76-10.85-7.89-10.85 7.89 4.15-12.76-10.85-7.88h13.41zM161.39 222.61l6.91 21.26h22.35L172.57 257l6.9 21.26-18.08-13.14-18.08 13.14 6.91-21.26-18.09-13.13h22.36zM161.39 378.44l6.91 21.25h22.35l-18.08 13.14 6.9 21.26-18.08-13.14-18.08 13.14 6.91-21.26-18.09-13.14h22.35zM226.74 278.26l6.91 21.26H256l-18.08 13.14 6.9 21.25-18.08-13.14-18.08 13.14 6.91-21.25-18.09-13.14h22.36zM96.04 278.26l6.91 21.26h22.35l-18.08 13.14 6.9 21.25-18.08-13.14-18.08 13.14 6.91-21.25-18.09-13.14h22.35z"/><path style="fill:#ffda44" d="M428.55 189.56a66.27 66.27 0 0 0-42.28-19.36l47.82-37.2a88.82 88.82 0 0 0-69.48-25.82 66.46 66.46 0 0 0-17.1-29.27l-18.88 37.78a27.83 27.83 0 1 0-37.78 37.78l-37.78 18.89a66.45 66.45 0 0 0 29.28 17.1 88.78 88.78 0 0 0 25.81 69.47l41.78-53.71c3.15-3.1 7.3-4.8 11.71-4.8 4.46 0 8.66 1.73 11.8 4.88a16.58 16.58 0 0 1 4.9 11.8c0 4.47-1.74 8.66-4.9 11.81l15.75 15.75a38.7 38.7 0 0 0 11.41-27.55c0-8.51-2.72-16.6-7.73-23.3a44.23 44.23 0 0 1 19.93 11.5 44.57 44.57 0 0 1 0 62.96L428.55 284a66.35 66.35 0 0 0 19.56-47.22 66.37 66.37 0 0 0-19.56-47.23z"/></svg>
