<svg xmlns="http://www.w3.org/2000/svg" viewBox="0 0 512 512" style="enable-background:new 0 0 512 512" xml:space="preserve"><circle style="fill:#f0f0f0" cx="256" cy="256" r="256"/><path style="fill:#d80027" d="M256 0v256L74.98 437.02A255.2 255.2 0 0 0 256 512c141.38 0 256-114.62 256-256S256 0 256 0z"/><path style="fill:#0052b4" d="M256 0A255.2 255.2 0 0 0 74.98 74.98L256 256h256C512 114.62 397.38 0 256 0z"/><path style="fill:#ffda44" d="m175.29 256-31.26-14.71 16.65-30.27-33.95 6.49-4.31-34.3-23.64 25.23-23.65-25.23-4.3 34.3-33.95-6.5 16.65 30.28L22.26 256l31.27 14.71-16.65 30.28 33.95-6.5 4.3 34.3 23.65-25.23 23.64 25.23 4.31-34.3 33.94 6.5-16.64-30.28zM68.27 100.17l10.41 14.55 17.04-5.4-10.62 14.39 10.41 14.54-16.97-5.65-10.61 14.39.13-17.89-16.97-5.65 17.05-5.4zM68.27 365.02l10.41 14.54 17.04-5.4-10.62 14.39 10.41 14.54-16.97-5.65-10.61 14.39.13-17.88-16.97-5.66 17.05-5.39zM216.67 232.6l-10.41 14.54-17.04-5.4 10.62 14.39-10.41 14.54 16.97-5.65 10.62 14.38-.14-17.87 16.97-5.66-17.05-5.39z"/></svg>
