<svg xmlns="http://www.w3.org/2000/svg" viewBox="0 0 512 512" style="enable-background:new 0 0 512 512" xml:space="preserve"><path style="fill:#6da544" d="M0 256c0 110.07 69.47 203.9 166.96 240.08L189.22 256 166.96 15.92C69.47 52.1 0 145.92 0 256z"/><path style="fill:#d80027" d="M512 256C512 114.62 397.38 0 256 0c-31.31 0-61.31 5.63-89.05 15.92v480.16A255.44 255.44 0 0 0 256 512c141.38 0 256-114.62 256-256z"/><circle style="fill:#ffda44" cx="166.96" cy="256" r="89.04"/><path style="fill:#d80027" d="M116.87 211.48v55.65a50.09 50.09 0 1 0 100.17 0v-55.65H116.87z"/><path style="fill:#f0f0f0" d="M166.96 283.83c-9.2 0-16.7-7.5-16.7-16.7v-22.26h33.4v22.26c0 9.2-7.5 16.7-16.7 16.7z"/></svg>
