<svg xmlns="http://www.w3.org/2000/svg" viewBox="0 0 512 512" style="enable-background:new 0 0 512 512" xml:space="preserve"><path style="fill:#ffda44" d="M0 256c0 44.35 11.28 86.06 31.13 122.44L256 400.7l224.87-22.26A254.86 254.86 0 0 0 512 256l-256-22.26L0 256z"/><path style="fill:#338af3" d="M480.87 133.56C437.45 54 353.04 0 256 0S74.55 53.99 31.13 133.56A254.86 254.86 0 0 0 0 256h512c0-44.35-11.28-86.06-31.13-122.44z"/><path style="fill:#496e2d" d="M256 512c97.03 0 181.45-53.99 224.87-133.56H31.13C74.55 458 158.97 512 256 512z"/><path style="fill:#ffda44" d="m289.39 149.82 31.27 14.71-16.65 30.28 33.95-6.5 4.3 34.3 23.65-25.22 23.64 25.22 4.31-34.3 33.95 6.5-16.65-30.28 31.26-14.71-31.26-14.7 16.65-30.28-33.95 6.49-4.31-34.29-23.64 25.22-23.65-25.22-4.3 34.29-33.95-6.49 16.65 30.28z"/></svg>
