<svg xmlns="http://www.w3.org/2000/svg" viewBox="0 0 512 512" style="enable-background:new 0 0 512 512" xml:space="preserve"><circle style="fill:#6da544" cx="256" cy="256" r="256"/><path style="fill:#f0f0f0" d="M144.7 306.09a33.4 33.4 0 0 0 33.39 33.39h100.17a27.83 27.83 0 0 0 27.83 27.82h33.39a27.83 27.83 0 0 0 27.82-27.82v-33.4H144.7zM370.09 144.7v77.9a22.29 22.29 0 0 1-22.26 22.27v33.4a55.72 55.72 0 0 0 55.65-55.66V144.7h-33.4zM130.78 222.6a22.29 22.29 0 0 1-22.26 22.27v33.4a55.72 55.72 0 0 0 55.65-55.66V144.7h-33.39v77.9z"/><path style="fill:#f0f0f0" d="M320 144.7h33.39v77.91H320zM269.91 189.22a5.57 5.57 0 0 1-11.13 0V144.7H225.4v44.52a5.57 5.57 0 0 1-11.13 0V144.7h-33.39v44.52a39 39 0 0 0 38.96 38.95c8.27 0 15.94-2.6 22.26-7.01a38.73 38.73 0 0 0 27.17 6.7 22.28 22.28 0 0 1-21.6 17v33.4a55.72 55.72 0 0 0 55.65-55.65V144.7h-33.4v44.52z"/><path style="fill:#f0f0f0" d="M180.87 244.87h50.09v33.39h-50.09z"/></svg>
