<svg xmlns="http://www.w3.org/2000/svg" viewBox="0 0 512 512" style="enable-background:new 0 0 512 512" xml:space="preserve"><circle style="fill:#f0f0f0" cx="256" cy="256" r="256"/><path style="fill:#0052b4" d="M256 0C114.62 0 0 114.62 0 256c0 31.31 5.63 61.31 15.92 89.04h480.16A255.45 255.45 0 0 0 512 256C512 114.62 397.38 0 256 0z"/><path style="fill:#d80027" d="M256 0C145.93 0 52.1 69.47 15.92 166.96h480.16C459.9 69.47 366.08 0 256 0z"/><path style="fill:#d80027" d="M66.2 144.7v127.7c0 72.65 94.9 94.9 94.9 94.9s94.9-22.25 94.9-94.9V144.7H66.2z"/><path style="fill:#ffda44" d="M105.45 166.96h111.3v-44.52l-22.26 11.13-33.39-33.4-33.39 33.4-22.26-11.13zM233.74 290.18l-72.35-72.34-72.35 72.34 23.61 23.61 48.74-48.73 48.74 48.73z"/><path style="fill:#f0f0f0" d="M233.74 222.6h-33.76a22.26 22.26 0 1 0-38.88-21.64 22.25 22.25 0 1 0-38.88 21.65H89.04c0 12.3 10.71 22.26 23 22.26h-.74c0 12.3 9.97 22.26 22.27 22.26A22.26 22.26 0 0 0 151.7 289l-17.54 39.6a72.12 72.12 0 0 0 27.22 5.31c9.63 0 18.82-1.9 27.23-5.31L171.08 289a22.26 22.26 0 0 0 18.14-21.87c12.3 0 22.26-9.96 22.26-22.26h-.74c12.3 0 23-9.97 23-22.26z"/></svg>
