<svg xmlns="http://www.w3.org/2000/svg" viewBox="0 0 512 512" style="enable-background:new 0 0 512 512" xml:space="preserve"><circle style="fill:#f0f0f0" cx="256" cy="256" r="256"/><path style="fill:#ffda44" d="M428.8 67.14A255.07 255.07 0 0 0 256 0c-10.9 0-21.65.69-32.2 2.01L100.18 144.7 8.1 320.13a254.42 254.42 0 0 0 26.78 64.92L256 256 428.8 67.14z"/><path style="fill:#6da544" d="m469.13 397.84-358.17 69.12A254.8 254.8 0 0 0 256 512c88.92 0 167.24-45.34 213.13-114.16z"/><path style="fill:#d80027" d="M428.85 67.17 35.02 385.3a256.96 256.96 0 0 0 36.68 48.36L512 256c0-74.76-32.05-142.03-83.15-188.83z"/><path style="fill:#0052b4" d="M0 256c0 22.15 2.81 43.64 8.1 64.13L223.8 2.01C97.63 17.84 0 125.52 0 256z"/></svg>
