<svg xmlns="http://www.w3.org/2000/svg" viewBox="0 0 512 512" style="enable-background:new 0 0 512.001 512.001" xml:space="preserve"><path style="fill:#496e2d" d="M437.03 437.03c96-96.01 99.8-249.3 11.41-349.86L256 256 87.17 448.44c100.56 88.39 253.84 84.6 349.86-11.41z"/><path style="fill:#0052b4" d="M74.97 74.97c96.02-96 249.3-99.8 349.86-11.4L256 256 63.56 424.83c-88.39-100.56-84.6-253.84 11.41-349.86z"/><path style="fill:#ffda44" d="M424.83 63.56 63.56 424.83a258.5 258.5 0 0 0 11.41 12.2c3.97 3.96 8.05 7.76 12.2 11.41L448.44 87.17a259.07 259.07 0 0 0-11.42-12.2 259.54 259.54 0 0 0-12.2-11.41z"/><path style="fill:#f0f0f0" d="m107.86 89.04 5.53 17h17.88l-14.47 10.51 5.53 17.01-14.47-10.51-14.47 10.51 5.53-17.01-14.47-10.51h17.89zM199.2 89.04l5.53 17h17.88l-14.47 10.51 5.53 17.01-14.47-10.51-14.47 10.51 5.53-17.01-14.47-10.51h17.88zM107.86 178.08l5.53 17.01h17.88L116.8 205.6l5.53 17.01-14.47-10.51-14.47 10.51 5.53-17.01-14.47-10.51h17.89zM199.2 178.08l5.53 17.01h17.88l-14.47 10.51 5.53 17.01-14.47-10.51-14.47 10.51 5.53-17.01-14.47-10.51h17.88zM153.53 133.56l5.53 17.01h17.88l-14.47 10.51 5.53 17-14.47-10.51-14.47 10.51 5.53-17-14.47-10.51h17.89z"/></svg>
