<svg xmlns="http://www.w3.org/2000/svg" viewBox="0 0 512 512" style="enable-background:new 0 0 512 512" xml:space="preserve"><circle style="fill:#f0f0f0" cx="256" cy="256" r="256"/><path d="M74.98 437.02c-99.97-99.97-99.97-262.06 0-362.04L222.61 256 74.98 437.02z"/><path style="fill:#ffda44" d="M222.6 256 33.96 128.51a255.12 255.12 0 0 0-15.44 31.77L114.02 256l-95.5 95.73a254.82 254.82 0 0 0 15.42 31.74L222.61 256z"/><path style="fill:#6da544" d="M509.83 222.6H222.6L74.98 74.99a257 257 0 0 0-41.03 53.53L161.2 256 33.94 383.47a256.97 256.97 0 0 0 41.04 53.55L222.6 289.39h287.23a258.53 258.53 0 0 0 0-66.78z"/><path style="fill:#0052b4" d="M100.14 459.08A254.86 254.86 0 0 0 256 512c118.28 0 217.8-80.22 247.18-189.22H236.43l-136.3 136.3z"/><path style="fill:#d80027" d="M503.18 189.22C473.8 80.22 374.28 0 256 0a254.86 254.86 0 0 0-155.86 52.92l136.3 136.3h266.74z"/></svg>
