<svg xmlns="http://www.w3.org/2000/svg" viewBox="0 0 512 512" style="enable-background:new 0 0 512 512" xml:space="preserve"><circle style="fill:#f0f0f0" cx="256" cy="256" r="256"/><path style="fill:#d80027" d="M345.04 256c0 22.26-39.86 77.91-89.04 77.91s-89.04-55.65-89.04-77.91a89.04 89.04 0 1 1 178.08 0z"/><path style="fill:#0052b4" d="M345.04 256a89.04 89.04 0 1 1-178.08 0"/><path d="m350.44 334.7 23.61-23.6 15.74 15.73-23.6 23.61zM311.08 374.06l23.61-23.61 15.74 15.74-23.6 23.6zM397.67 381.91l23.61-23.6 15.74 15.73-23.6 23.61zM358.31 421.28l23.61-23.61 15.74 15.74-23.6 23.6zM374.06 358.31l23.6-23.6 15.75 15.73-23.61 23.62zM334.7 397.67l23.61-23.61 15.74 15.74-23.6 23.6zM397.68 177.29l-62.96-62.96 15.74-15.74 62.96 62.96zM334.71 161.56l-23.6-23.61 15.73-15.74 23.61 23.6zM374.06 200.9l-23.61-23.6 15.74-15.75 23.6 23.61zM381.92 114.33l-23.61-23.6 15.74-15.75 23.6 23.61zM421.28 153.69l-23.6-23.61 15.73-15.74 23.61 23.6zM90.72 358.32l62.96 62.96-15.74 15.74-62.96-62.96zM153.68 374.05l23.61 23.61-15.74 15.74-23.6-23.6zM114.33 334.7l23.61 23.61-15.74 15.74-23.6-23.6zM137.94 311.1l62.96 62.95-15.74 15.74-62.96-62.96zM153.68 90.72l-62.96 62.96-15.74-15.74 62.96-62.96zM177.29 114.32l-62.96 62.96-15.74-15.74 62.96-62.96zM200.9 137.95l-62.95 62.96-15.74-15.74 62.96-62.96z"/></svg>
