<svg xmlns="http://www.w3.org/2000/svg" viewBox="0 0 512 512" style="enable-background:new 0 0 512 512" xml:space="preserve"><path style="fill:#f0f0f0" d="M25.4 144.7C9.13 178.35 0 216.1 0 256s9.13 77.65 25.4 111.3L256 389.56l230.6-22.26C502.87 333.65 512 295.9 512 256s-9.13-77.65-25.4-111.3L256 122.44 25.4 144.7z"/><path d="M25.41 367.3C66.81 452.93 154.51 512 256 512s189.18-59.06 230.59-144.7H25.4z"/><path style="fill:#d80027" d="M25.41 144.7H486.6C445.19 59.07 357.49 0 256 0S66.82 59.06 25.41 144.7z"/><path style="fill:#496e2d" d="M74.98 74.98c-99.97 99.97-99.97 262.06 0 362.04L256 256 74.98 74.98z"/></svg>
