<svg xmlns="http://www.w3.org/2000/svg" viewBox="0 0 512 512" style="enable-background:new 0 0 512 512" xml:space="preserve"><circle style="fill:#f0f0f0" cx="256" cy="256" r="256"/><path style="fill:#a2001d" d="M496.08 166.96H15.92C5.63 194.69 0 224.69 0 256s5.63 61.31 15.92 89.04h480.16C506.37 317.31 512 287.31 512 256s-5.63-61.3-15.92-89.04z"/><path style="fill:#6da544" d="M256.74 512c87.68 0 165.06-44.1 211.2-111.3H45.54C91.69 467.9 169.07 512 256.75 512zM256.74 0c87.68 0 165.06 44.1 211.2 111.3H45.54C91.69 44.1 169.07 0 256.75 0z"/><path style="fill:#ffda44" d="m256 166.96 22.1 68.02h71.53l-57.87 42.04 22.11 68.02L256 303l-57.86 42.04 22.1-68.02-57.87-42.04h71.53z"/></svg>
