<svg xmlns="http://www.w3.org/2000/svg" viewBox="0 0 512 512" style="enable-background:new 0 0 512 512" xml:space="preserve"><circle style="fill:#f0f0f0" cx="256" cy="256" r="256"/><path style="fill:#d80027" d="M256 0C145.93 0 52.1 69.47 15.92 166.96h480.16C459.9 69.47 366.08 0 256 0z"/><path d="M256 512c110.07 0 203.9-69.47 240.08-166.96H15.92C52.1 442.53 145.92 512 256 512z"/><path style="fill:#6da544" d="m152.96 194.78 13.82 42.52h44.7l-36.17 26.27 13.82 42.52-36.17-26.28-36.16 26.28 13.81-42.52-36.16-26.27h44.7zM359.04 194.78l13.81 42.52h44.71l-36.17 26.27 13.81 42.52-36.16-26.28-36.17 26.28 13.82-42.52-36.17-26.27h44.71z"/></svg>
