<svg xmlns="http://www.w3.org/2000/svg" viewBox="0 0 512 512" style="enable-background:new 0 0 512 512" xml:space="preserve"><path style="fill:#d80027" d="M512 256c0 141.38-114.62 256-256 256S0 397.38 0 256L256 0c141.38 0 256 114.62 256 256z"/><path style="fill:#0052b4" d="M256 256V0C114.62 0 0 114.62 0 256h256z"/><path style="fill:#f0f0f0" d="m222.61 149.82-31.27 14.71 16.65 30.28-33.95-6.5-4.3 34.3-23.65-25.22-23.64 25.22-4.3-34.3-33.95 6.5 16.64-30.28-31.26-14.71 31.26-14.7-16.64-30.28 33.94 6.49 4.31-34.29 23.64 25.22 23.65-25.22 4.3 34.29 33.95-6.49-16.65 30.28z"/><circle style="fill:#0052b4" cx="146.1" cy="149.82" r="47.65"/><path style="fill:#f0f0f0" d="M146.1 175.21c-14 0-25.4-11.39-25.4-25.39s11.4-25.4 25.4-25.4c14 0 25.39 11.4 25.39 25.4 0 14-11.4 25.4-25.4 25.4z"/></svg>
