<svg xmlns="http://www.w3.org/2000/svg" viewBox="0 0 512 512" style="enable-background:new 0 0 512 512" xml:space="preserve"><circle style="fill:#ffda44" cx="256" cy="256" r="256"/><path style="fill:#496e2d" d="M256 0c-.19 0-11.13 102.4-11.13 102.4h215.94C414.11 40.22 339.75 0 256 0zM256 512c83.75 0 158.1-40.22 204.81-102.4H51.2C97.89 471.78 172.25 512 256 512zM506.87 204.8h-262L256 307.2h250.87c3.36-16.54 5.13-33.66 5.13-51.2s-1.77-34.66-5.13-51.2z"/><path style="fill:#d80027" d="M256 307.2V0C114.62 0 0 114.62 0 256c0 17.54 1.77 34.66 5.13 51.2H256z"/><path style="fill:#f0f0f0" d="m141.26 122.44 16.57 51.01h53.65l-43.4 31.53L184.66 256l-43.4-31.53L97.86 256l16.58-51.02-43.4-31.53h53.64z"/></svg>
