<svg xmlns="http://www.w3.org/2000/svg" viewBox="0 0 512 512" style="enable-background:new 0 0 512 512" xml:space="preserve"><path style="fill:#f0f0f0" d="M138.62 28.43a255.85 255.85 0 0 0-63.65 46.54 255.82 255.82 0 0 0-46.54 63.65l164.6 180.34 180.35 164.61a255.86 255.86 0 0 0 63.65-46.54 255.85 255.85 0 0 0 46.54-63.65l-164.6-180.35-180.35-164.6z"/><path d="M437.03 437.03a257.55 257.55 0 0 0 28.75-34.22L109.19 46.22a257.47 257.47 0 0 0-62.96 62.97L402.8 465.77c12.02-8.43 23.48-18 34.22-28.74z"/><path style="fill:#d80027" d="M74.97 437.03c80.77 80.76 202.07 96.27 298.41 46.54L28.43 138.62C-21.3 234.96-5.8 356.26 74.97 437.02zM437.03 74.97C356.26-5.79 234.96-21.3 138.62 28.43l344.95 344.95c49.73-96.34 34.22-217.64-46.54-298.4z"/></svg>
