<svg xmlns="http://www.w3.org/2000/svg" viewBox="0 0 512 512" style="enable-background:new 0 0 512 512" xml:space="preserve"><path style="fill:#338af3" d="M512 256c0 141.38-114.62 256-256 256S0 397.38 0 256C0 256.06 256 .03 256 0c141.38 0 256 114.62 256 256z"/><path style="fill:#0052b4" d="M122.44 256h86.34l-75.21-89.04-11.13 33.39zM256 208.78l-89.04-86.34H256z"/><path style="fill:#f0f0f0" d="M256 0h-.04.04zM255.31 256h.69v-.69l-.69.69z"/><path style="fill:#f0f0f0" d="M256 133.56V0h-.04C114.59.02 0 114.63 0 256h133.57v-75.21l75.2 75.21h46.55l.68-.69v-46.53l-75.21-75.22H256z"/><path style="fill:#d80027" d="M129.51 33.4A257.22 257.22 0 0 0 33.4 129.5V256h66.78V100.18H256V33.38H129.51z"/><path style="fill:#d80027" d="m256 224.52-90.95-90.95h-31.48L256 256v-31.48z"/><path style="fill:#ffda44" d="m279.41 422.96 5.52 17h17.88l-14.46 10.51 5.52 17.01-14.46-10.51-14.47 10.51 5.53-17.01L256 439.96h17.88zM421.81 311.65l5.53 17.01h17.88l-14.47 10.51 5.53 17-14.47-10.5-14.46 10.5 5.52-17-14.47-10.51h17.89zM457.49 144.7l5.53 17h17.88l-14.46 10.51 5.52 17.01-14.47-10.51-14.46 10.51 5.52-17.01-14.46-10.51h17.88zM466.33 267.13l5.53 17.01h17.88l-14.47 10.51 5.53 17-14.47-10.51-14.46 10.51 5.52-17-14.46-10.51h17.88zM305.05 382.96l15.93 8.12 12.64-12.64-2.79 17.65 15.93 8.12-17.66 2.8-2.8 17.66-8.12-15.93-17.66 2.8 12.65-12.65zM305.05 316.18l15.93 8.12 12.64-12.65-2.79 17.66 15.93 8.12-17.66 2.8-2.8 17.66-8.12-15.93-17.66 2.79 12.65-12.64zM360.7 358.98l15.93 8.12 12.65-12.64-2.8 17.66 15.93 8.12-17.66 2.8-2.8 17.66-8.11-15.94-17.67 2.8 12.65-12.64zM360.7 216l15.93 8.12 12.65-12.64-2.8 17.66 15.93 8.12-17.66 2.79-2.8 17.66-8.11-15.93-17.67 2.8 12.65-12.64zM414.64 214.29l15.93 8.12 12.64-12.65-2.79 17.66 15.93 8.12-17.66 2.8-2.8 17.66-8.12-15.93-17.66 2.8 12.64-12.65z"/></svg>
