<svg xmlns="http://www.w3.org/2000/svg" viewBox="0 0 512 512" style="enable-background:new 0 0 512 512" xml:space="preserve"><circle style="fill:#f0f0f0" cx="256" cy="256" r="256"/><path style="fill:#0052b4" d="M52.92 100.14a255.07 255.07 0 0 0-44.1 89.08H142l-89.08-89.08zM503.18 189.22a255.09 255.09 0 0 0-44.1-89.08L370 189.22h133.18zM8.82 322.78a255.1 255.1 0 0 0 44.1 89.08l89.07-89.08H8.82zM411.86 52.92a255.08 255.08 0 0 0-89.08-44.1V142l89.08-89.08zM100.14 459.08a255.09 255.09 0 0 0 89.08 44.1V370l-89.08 89.08zM189.22 8.82a255.1 255.1 0 0 0-89.08 44.1L189.22 142V8.81zM322.78 503.18a255.1 255.1 0 0 0 89.08-44.1L322.78 370v133.18zM370 322.78l89.08 89.08a255.08 255.08 0 0 0 44.1-89.08H370z"/><path style="fill:#d80027" d="M509.83 222.6H289.4V2.18a258.56 258.56 0 0 0-66.78 0V222.6H2.17a258.56 258.56 0 0 0 0 66.78H222.6v220.44a258.53 258.53 0 0 0 66.78 0V289.4h220.44a258.53 258.53 0 0 0 0-66.78z"/><path style="fill:#d80027" d="m322.78 322.78 114.24 114.24a256.64 256.64 0 0 0 15.05-16.43l-97.8-97.8h-31.49zM189.22 322.78 74.98 437.02a256.64 256.64 0 0 0 16.43 15.05l97.8-97.8v-31.49zM189.22 189.22 74.98 74.98a256.64 256.64 0 0 0-15.05 16.43l97.8 97.8h31.49zM322.78 189.22 437.02 74.98a256.33 256.33 0 0 0-16.43-15.05l-97.8 97.8v31.49z"/></svg>
