<svg xmlns="http://www.w3.org/2000/svg" viewBox="0 0 512 512" style="enable-background:new 0 0 512 512" xml:space="preserve"><circle style="fill:#f0f0f0" cx="256" cy="256" r="256"/><path style="fill:#338af3" d="M256 189.22h247.18a254.56 254.56 0 0 0-28.75-66.79H256v66.79zM96.64 456.35h318.72a257.3 257.3 0 0 0 59.06-66.79H37.57a257.35 257.35 0 0 0 59.07 66.79zM256 0v55.65h159.36A254.9 254.9 0 0 0 256 0z"/><path style="fill:#338af3" d="M256 189.22h247.18a254.56 254.56 0 0 0-28.75-66.79H256v66.79zM0 256c0 23.1 3.08 45.49 8.82 66.78h494.36A256.32 256.32 0 0 0 512 256H0z"/><path style="fill:#ffda44" d="m222.61 149.82-31.27 14.71 16.65 30.28-33.95-6.5-4.3 34.3-23.65-25.22-23.64 25.22-4.3-34.3-33.95 6.5 16.64-30.28-31.26-14.71 31.26-14.7-16.64-30.28 33.94 6.49 4.31-34.29 23.64 25.22 23.65-25.22 4.3 34.29 33.95-6.49-16.65 30.28z"/></svg>
