<svg xmlns="http://www.w3.org/2000/svg" viewBox="0 0 512 512" style="enable-background:new 0 0 512.001 512.001" xml:space="preserve"><path d="M512 256c0-11.32-.74-22.46-2.17-33.39H222.61L74.98 74.98c-99.97 99.97-99.97 262.06 0 362.04L222.61 289.4h287.22A258.56 258.56 0 0 0 512 256z"/><path style="fill:#f0f0f0" d="m511.93 261.82-.04 1.49.04-1.49zM511.68 268.82l-.08 1.46.08-1.46zM511.34 274.4l-.16 2.15.16-2.15zM510.48 228.1c.1.85.19 1.71.27 2.57-.08-.86-.18-1.71-.27-2.57zM511.6 241.72l.08 1.46-.08-1.46zM511.89 248.7l.04 1.48-.04-1.48zM511.18 235.45l.16 2.15-.16-2.15z"/><path style="fill:#d80027" d="m509.83 222.6.33 2.65C494.96 98.36 386.97 0 256 0A255.2 255.2 0 0 0 74.98 74.98L222.6 222.62h287.23z"/><path style="fill:#6da544" d="M509.83 289.4H222.6L74.98 437.01A255.2 255.2 0 0 0 256 512c130.97 0 238.96-98.36 254.16-225.25l-.33 2.64z"/><path style="fill:#f0f0f0" d="M510.75 281.33c-.08.86-.18 1.72-.27 2.57.1-.85.19-1.7.27-2.57z"/><path d="M511.34 237.6zM510.15 225.25zM510.75 230.67zM512 256zM511.6 270.28zM511.18 276.55zM510.48 283.9zM511.93 250.18zM511.68 243.18zM511.89 263.3z"/><path style="fill:#ffda44" d="M511.76 244.78H213.2L59.84 91.44a130.79 130.79 0 0 0-13.65 17.73l146.66 146.74L46.07 402.69c2.9 5.17 9.24 12.82 13.68 17.8L213.2 267.04h298.6c.15-3.7.2-7.4.2-11.13 0-5-.14-8.68-.24-11.13z"/><path style="fill:#ffda44" d="M62.19 310.57v-21.44c21.4 0 38.8-17.4 38.8-38.8a27.49 27.49 0 0 0-27.45-27.46 18.73 18.73 0 0 0-18.7 18.7c0 6.6 5.36 11.97 11.95 11.97a6.77 6.77 0 0 0 6.76-6.77H95a28.24 28.24 0 0 1-28.2 28.2 33.44 33.44 0 0 1-33.4-33.4 40.2 40.2 0 0 1 40.14-40.14 48.95 48.95 0 0 1 48.9 48.9 60.32 60.32 0 0 1-60.25 60.24z"/></svg>
