<svg xmlns="http://www.w3.org/2000/svg" viewBox="0 0 512 512" style="enable-background:new 0 0 512 512" xml:space="preserve"><path style="fill:#f0f0f0" d="M256 0c141.38 0 256 114.62 256 256S397.38 512 256 512c0-11.13-33.4-256-33.4-256L256 0z"/><path style="fill:#ffda44" d="M256 512C114.62 512 0 397.38 0 256S114.62 0 256 0"/><path style="fill:#acabb1" d="m354.03 222.76 48.11 63.65A33.4 33.4 0 1 0 419.9 273l-74.98-99.2-17.76 13.43-26.64 20.13 26.85 35.52 26.66-20.1zm69.26 73.18a11.13 11.13 0 1 1 13.43 17.76 11.13 11.13 0 0 1-13.43-17.76z"/><path style="fill:#ffda44" d="m436.55 242.87 26.85-35.52-26.64-20.13L419 173.79 344.02 273a33.4 33.4 0 1 0 17.76 13.42l48.1-63.65 26.67 20.1zm-93.76 68.65a11.13 11.13 0 1 1-17.75-13.41 11.13 11.13 0 0 1 17.75 13.41z"/></svg>
