<svg xmlns="http://www.w3.org/2000/svg" viewBox="0 0 512 512" style="enable-background:new 0 0 512 512" xml:space="preserve"><path style="fill:#0052b4" d="M486.6 367.3C502.87 333.65 512 295.9 512 256s-9.13-77.65-25.4-111.3L256 122.44 25.4 144.7C9.13 178.35 0 216.1 0 256s9.13 77.65 25.4 111.3L256 389.56l230.6-22.26z"/><path style="fill:#d80027" d="M256 512c101.5 0 189.19-59.06 230.6-144.7H25.4C66.81 452.93 154.5 512 256 512z"/><path style="fill:#f0f0f0" d="m443.37 306.25-13.52 10.57 5.86 16.12-14.22-9.59-13.52 10.56 4.72-16.49-14.22-9.6 17.15-.6 4.73-16.49 5.87 16.12zM408.74 246.28l-9.09 14.55 11.03 13.15-16.65-4.15-9.09 14.55-1.2-17.12-16.65-4.15 15.91-6.43-1.2-17.12 11.03 13.15zM355.69 201.77l-3.56 16.78 14.86 8.58-17.07 1.8-3.56 16.78-6.98-15.67-17.07 1.79 12.75-11.48-6.98-15.68 14.86 8.58zM290.62 178.09l2.39 16.99 16.9 2.98-15.42 7.52 2.39 17-11.92-12.35-15.43 7.52 8.06-15.15-11.92-12.34 16.9 2.98zM221.38 178.09l8.05 15.15 16.9-2.98-11.92 12.34 8.06 15.16-15.43-7.53-11.92 12.34 2.39-16.99-15.42-7.52 16.9-2.98zM156.31 201.77l12.75 11.48 14.86-8.58-6.98 15.68 12.75 11.48-17.06-1.79-6.99 15.67-3.56-16.78-17.07-1.79 14.86-8.58zM103.26 246.28l15.91 6.43 11.03-13.14-1.2 17.12 15.91 6.43-16.65 4.15-1.2 17.11-9.09-14.55-16.65 4.15 11.03-13.15zM68.63 306.25l17.16.6 5.86-16.12 4.74 16.49 17.14.6-14.22 9.6 4.73 16.49-13.52-10.56-14.23 9.59 5.87-16.12z"/><path style="fill:#ffda44" d="M486.6 144.7C445.19 59.07 357.5 0 256 0S66.81 59.06 25.4 144.7h461.2z"/></svg>
